G04 EAGLE Gerber RS-274X export*
G75*
%MOMM*%
%FSLAX34Y34*%
%LPD*%
%INBottom Copper*%
%IPPOS*%
%AMOC8*
5,1,8,0,0,1.08239X$1,22.5*%
G01*
%ADD10C,1.778000*%
%ADD11C,0.756400*%
%ADD12C,0.152400*%

G36*
X1066820Y-140458D02*
X1066820Y-140458D01*
X1066839Y-140460D01*
X1066941Y-140438D01*
X1067043Y-140422D01*
X1067060Y-140412D01*
X1067080Y-140408D01*
X1067169Y-140355D01*
X1067260Y-140306D01*
X1067274Y-140292D01*
X1067291Y-140282D01*
X1067358Y-140203D01*
X1067430Y-140128D01*
X1067438Y-140110D01*
X1067451Y-140095D01*
X1067490Y-139999D01*
X1067533Y-139905D01*
X1067535Y-139885D01*
X1067543Y-139867D01*
X1067561Y-139700D01*
X1067561Y304800D01*
X1067558Y304820D01*
X1067560Y304839D01*
X1067538Y304941D01*
X1067522Y305043D01*
X1067512Y305060D01*
X1067508Y305080D01*
X1067455Y305169D01*
X1067406Y305260D01*
X1067392Y305274D01*
X1067382Y305291D01*
X1067303Y305358D01*
X1067228Y305430D01*
X1067210Y305438D01*
X1067195Y305451D01*
X1067099Y305490D01*
X1067005Y305533D01*
X1066985Y305535D01*
X1066967Y305543D01*
X1066800Y305561D01*
X63500Y305561D01*
X63480Y305558D01*
X63461Y305560D01*
X63359Y305538D01*
X63257Y305522D01*
X63240Y305512D01*
X63220Y305508D01*
X63131Y305455D01*
X63040Y305406D01*
X63026Y305392D01*
X63009Y305382D01*
X62942Y305303D01*
X62871Y305228D01*
X62862Y305210D01*
X62849Y305195D01*
X62810Y305099D01*
X62767Y305005D01*
X62765Y304985D01*
X62757Y304967D01*
X62739Y304800D01*
X62739Y-139700D01*
X62742Y-139720D01*
X62740Y-139739D01*
X62762Y-139841D01*
X62779Y-139943D01*
X62788Y-139960D01*
X62792Y-139980D01*
X62845Y-140069D01*
X62894Y-140160D01*
X62908Y-140174D01*
X62918Y-140191D01*
X62997Y-140258D01*
X63072Y-140330D01*
X63090Y-140338D01*
X63105Y-140351D01*
X63201Y-140390D01*
X63295Y-140433D01*
X63315Y-140435D01*
X63333Y-140443D01*
X63500Y-140461D01*
X1066800Y-140461D01*
X1066820Y-140458D01*
G37*
%LPC*%
G36*
X113668Y3555D02*
X113668Y3555D01*
X112775Y4448D01*
X112775Y279932D01*
X113668Y280825D01*
X1000632Y280825D01*
X1001525Y279932D01*
X1001525Y4448D01*
X1000632Y3555D01*
X113668Y3555D01*
G37*
%LPD*%
G36*
X997734Y6608D02*
X997734Y6608D01*
X997753Y6606D01*
X997855Y6628D01*
X997957Y6644D01*
X997974Y6654D01*
X997994Y6658D01*
X998083Y6711D01*
X998174Y6760D01*
X998188Y6774D01*
X998205Y6784D01*
X998272Y6863D01*
X998344Y6938D01*
X998352Y6956D01*
X998365Y6971D01*
X998404Y7067D01*
X998447Y7161D01*
X998449Y7181D01*
X998457Y7199D01*
X998475Y7366D01*
X998475Y277014D01*
X998472Y277034D01*
X998474Y277053D01*
X998452Y277155D01*
X998436Y277257D01*
X998426Y277274D01*
X998422Y277294D01*
X998369Y277383D01*
X998320Y277474D01*
X998306Y277488D01*
X998296Y277505D01*
X998217Y277572D01*
X998142Y277644D01*
X998124Y277652D01*
X998109Y277665D01*
X998013Y277704D01*
X997919Y277747D01*
X997899Y277749D01*
X997881Y277757D01*
X997714Y277775D01*
X116586Y277775D01*
X116566Y277772D01*
X116547Y277774D01*
X116445Y277752D01*
X116343Y277736D01*
X116326Y277726D01*
X116306Y277722D01*
X116217Y277669D01*
X116126Y277620D01*
X116112Y277606D01*
X116095Y277596D01*
X116028Y277517D01*
X115956Y277442D01*
X115948Y277424D01*
X115935Y277409D01*
X115896Y277313D01*
X115853Y277219D01*
X115851Y277199D01*
X115843Y277181D01*
X115825Y277014D01*
X115825Y7366D01*
X115828Y7346D01*
X115826Y7327D01*
X115848Y7225D01*
X115864Y7123D01*
X115874Y7106D01*
X115878Y7086D01*
X115931Y6997D01*
X115980Y6906D01*
X115994Y6892D01*
X116004Y6875D01*
X116083Y6808D01*
X116158Y6736D01*
X116176Y6728D01*
X116191Y6715D01*
X116287Y6676D01*
X116381Y6633D01*
X116401Y6631D01*
X116419Y6623D01*
X116586Y6605D01*
X997714Y6605D01*
X997734Y6608D01*
G37*
%LPC*%
G36*
X620228Y40385D02*
X620228Y40385D01*
X616400Y41971D01*
X613471Y44900D01*
X611885Y48728D01*
X611885Y52872D01*
X613471Y56700D01*
X616400Y59629D01*
X616689Y59749D01*
X616772Y59800D01*
X616858Y59846D01*
X616876Y59865D01*
X616898Y59878D01*
X616960Y59953D01*
X617027Y60024D01*
X617038Y60048D01*
X617055Y60068D01*
X617090Y60159D01*
X617131Y60247D01*
X617134Y60273D01*
X617143Y60297D01*
X617147Y60395D01*
X617158Y60491D01*
X617152Y60517D01*
X617154Y60543D01*
X617126Y60637D01*
X617106Y60732D01*
X617092Y60754D01*
X617085Y60779D01*
X617030Y60859D01*
X616980Y60943D01*
X616960Y60960D01*
X616945Y60981D01*
X616867Y61039D01*
X616793Y61103D01*
X616768Y61113D01*
X616747Y61128D01*
X616655Y61158D01*
X616565Y61195D01*
X616532Y61198D01*
X616514Y61204D01*
X616481Y61204D01*
X616398Y61213D01*
X602433Y61213D01*
X602343Y61199D01*
X602252Y61191D01*
X602223Y61179D01*
X602191Y61174D01*
X602110Y61131D01*
X602026Y61095D01*
X601994Y61069D01*
X601973Y61058D01*
X601951Y61035D01*
X601895Y60990D01*
X599098Y58193D01*
X594702Y58193D01*
X591593Y61302D01*
X591593Y65698D01*
X594702Y68807D01*
X599098Y68807D01*
X601895Y66010D01*
X601969Y65957D01*
X602039Y65897D01*
X602069Y65885D01*
X602095Y65866D01*
X602182Y65839D01*
X602267Y65805D01*
X602308Y65801D01*
X602330Y65794D01*
X602362Y65795D01*
X602433Y65787D01*
X616398Y65787D01*
X616494Y65802D01*
X616591Y65812D01*
X616615Y65822D01*
X616641Y65826D01*
X616726Y65872D01*
X616816Y65912D01*
X616835Y65929D01*
X616858Y65942D01*
X616925Y66012D01*
X616997Y66078D01*
X617009Y66101D01*
X617027Y66120D01*
X617068Y66208D01*
X617115Y66294D01*
X617120Y66319D01*
X617131Y66343D01*
X617142Y66440D01*
X617159Y66536D01*
X617155Y66562D01*
X617158Y66587D01*
X617137Y66682D01*
X617123Y66779D01*
X617111Y66802D01*
X617106Y66828D01*
X617056Y66911D01*
X617012Y66998D01*
X616993Y67017D01*
X616980Y67039D01*
X616906Y67102D01*
X616836Y67170D01*
X616808Y67186D01*
X616793Y67199D01*
X616762Y67211D01*
X616689Y67251D01*
X616400Y67371D01*
X613471Y70300D01*
X611885Y74128D01*
X611885Y78272D01*
X613471Y82100D01*
X616400Y85029D01*
X616689Y85149D01*
X616772Y85200D01*
X616858Y85246D01*
X616876Y85265D01*
X616898Y85278D01*
X616960Y85353D01*
X617027Y85424D01*
X617038Y85448D01*
X617055Y85468D01*
X617090Y85559D01*
X617131Y85647D01*
X617134Y85673D01*
X617143Y85697D01*
X617147Y85795D01*
X617158Y85891D01*
X617152Y85917D01*
X617154Y85943D01*
X617126Y86037D01*
X617106Y86132D01*
X617092Y86154D01*
X617085Y86179D01*
X617030Y86259D01*
X616980Y86343D01*
X616960Y86360D01*
X616945Y86381D01*
X616867Y86439D01*
X616793Y86503D01*
X616768Y86513D01*
X616747Y86528D01*
X616655Y86558D01*
X616565Y86595D01*
X616532Y86598D01*
X616514Y86604D01*
X616481Y86604D01*
X616398Y86613D01*
X551633Y86613D01*
X551543Y86599D01*
X551452Y86591D01*
X551423Y86579D01*
X551391Y86574D01*
X551310Y86531D01*
X551226Y86495D01*
X551194Y86469D01*
X551173Y86458D01*
X551151Y86435D01*
X551095Y86390D01*
X548298Y83593D01*
X543902Y83593D01*
X541105Y86390D01*
X541031Y86443D01*
X540961Y86503D01*
X540931Y86515D01*
X540905Y86534D01*
X540818Y86561D01*
X540733Y86595D01*
X540692Y86599D01*
X540670Y86606D01*
X540638Y86605D01*
X540567Y86613D01*
X434971Y86613D01*
X410745Y110839D01*
X410745Y119105D01*
X410731Y119196D01*
X410723Y119286D01*
X410711Y119316D01*
X410706Y119348D01*
X410663Y119429D01*
X410627Y119513D01*
X410601Y119545D01*
X410590Y119566D01*
X410567Y119588D01*
X410551Y119608D01*
X410546Y119616D01*
X410541Y119621D01*
X410522Y119644D01*
X310144Y220022D01*
X310070Y220075D01*
X310000Y220135D01*
X309970Y220147D01*
X309944Y220166D01*
X309857Y220193D01*
X309772Y220227D01*
X309731Y220231D01*
X309709Y220238D01*
X309677Y220237D01*
X309605Y220245D01*
X185695Y220245D01*
X185604Y220231D01*
X185514Y220223D01*
X185484Y220211D01*
X185452Y220206D01*
X185371Y220163D01*
X185287Y220127D01*
X185255Y220101D01*
X185234Y220090D01*
X185212Y220067D01*
X185156Y220022D01*
X183330Y218196D01*
X183277Y218122D01*
X183217Y218052D01*
X183205Y218022D01*
X183186Y217996D01*
X183159Y217909D01*
X183125Y217824D01*
X183121Y217783D01*
X183114Y217761D01*
X183115Y217729D01*
X183107Y217657D01*
X183107Y213702D01*
X179998Y210593D01*
X175602Y210593D01*
X172493Y213702D01*
X172493Y218098D01*
X175602Y221207D01*
X179557Y221207D01*
X179648Y221221D01*
X179738Y221229D01*
X179768Y221241D01*
X179800Y221246D01*
X179881Y221289D01*
X179965Y221325D01*
X179997Y221351D01*
X180018Y221362D01*
X180040Y221385D01*
X180096Y221430D01*
X183485Y224819D01*
X197639Y224819D01*
X197709Y224830D01*
X197781Y224832D01*
X197830Y224850D01*
X197881Y224858D01*
X197945Y224892D01*
X198012Y224917D01*
X198053Y224949D01*
X198099Y224974D01*
X198148Y225026D01*
X198204Y225070D01*
X198232Y225114D01*
X198268Y225152D01*
X198298Y225217D01*
X198337Y225277D01*
X198350Y225328D01*
X198372Y225375D01*
X198380Y225446D01*
X198397Y225516D01*
X198393Y225568D01*
X198399Y225619D01*
X198384Y225690D01*
X198378Y225761D01*
X198358Y225809D01*
X198347Y225860D01*
X198310Y225921D01*
X198282Y225987D01*
X198237Y226043D01*
X198220Y226071D01*
X198203Y226086D01*
X198177Y226118D01*
X197893Y226402D01*
X197893Y230798D01*
X201002Y233907D01*
X205398Y233907D01*
X208195Y231110D01*
X208269Y231057D01*
X208339Y230997D01*
X208369Y230985D01*
X208395Y230966D01*
X208482Y230939D01*
X208567Y230905D01*
X208608Y230901D01*
X208630Y230894D01*
X208662Y230895D01*
X208733Y230887D01*
X343847Y230887D01*
X457924Y116810D01*
X457998Y116757D01*
X458068Y116697D01*
X458098Y116685D01*
X458124Y116666D01*
X458211Y116639D01*
X458296Y116605D01*
X458337Y116601D01*
X458359Y116594D01*
X458391Y116595D01*
X458462Y116587D01*
X477090Y116587D01*
X477161Y116598D01*
X477233Y116600D01*
X477282Y116618D01*
X477333Y116626D01*
X477396Y116660D01*
X477464Y116685D01*
X477504Y116717D01*
X477550Y116742D01*
X477600Y116794D01*
X477656Y116838D01*
X477684Y116882D01*
X477720Y116920D01*
X477750Y116985D01*
X477789Y117045D01*
X477801Y117096D01*
X477823Y117143D01*
X477831Y117214D01*
X477849Y117284D01*
X477845Y117336D01*
X477850Y117387D01*
X477835Y117458D01*
X477830Y117529D01*
X477809Y117577D01*
X477798Y117628D01*
X477761Y117689D01*
X477733Y117755D01*
X477688Y117811D01*
X477672Y117839D01*
X477654Y117854D01*
X477628Y117886D01*
X475871Y119644D01*
X435020Y160495D01*
X434946Y160548D01*
X434877Y160607D01*
X434847Y160619D01*
X434820Y160638D01*
X434733Y160665D01*
X434649Y160699D01*
X434608Y160704D01*
X434585Y160711D01*
X434553Y160710D01*
X434482Y160718D01*
X430526Y160718D01*
X427418Y163826D01*
X427418Y168222D01*
X430526Y171331D01*
X434922Y171331D01*
X438031Y168222D01*
X438031Y164267D01*
X438046Y164177D01*
X438053Y164086D01*
X438066Y164056D01*
X438071Y164024D01*
X438114Y163943D01*
X438149Y163860D01*
X438175Y163827D01*
X438186Y163807D01*
X438209Y163785D01*
X438254Y163729D01*
X479105Y122878D01*
X479179Y122825D01*
X479248Y122765D01*
X479278Y122753D01*
X479305Y122734D01*
X479392Y122707D01*
X479476Y122673D01*
X479517Y122669D01*
X479540Y122662D01*
X479572Y122663D01*
X479643Y122655D01*
X502467Y122655D01*
X502557Y122669D01*
X502648Y122677D01*
X502677Y122689D01*
X502709Y122694D01*
X502790Y122737D01*
X502874Y122773D01*
X502906Y122799D01*
X502927Y122810D01*
X502949Y122833D01*
X503005Y122878D01*
X505802Y125675D01*
X509757Y125675D01*
X509848Y125689D01*
X509938Y125697D01*
X509968Y125709D01*
X510000Y125714D01*
X510081Y125757D01*
X510165Y125793D01*
X510197Y125819D01*
X510218Y125830D01*
X510240Y125853D01*
X510296Y125898D01*
X526385Y141987D01*
X582937Y141987D01*
X583028Y142001D01*
X583118Y142009D01*
X583148Y142021D01*
X583180Y142026D01*
X583261Y142069D01*
X583345Y142105D01*
X583377Y142131D01*
X583398Y142142D01*
X583420Y142165D01*
X583476Y142210D01*
X599760Y158494D01*
X599802Y158552D01*
X599851Y158604D01*
X599873Y158651D01*
X599903Y158693D01*
X599924Y158762D01*
X599955Y158827D01*
X599960Y158879D01*
X599976Y158929D01*
X599974Y159000D01*
X599982Y159071D01*
X599971Y159122D01*
X599969Y159174D01*
X599945Y159242D01*
X599930Y159312D01*
X599903Y159357D01*
X599885Y159405D01*
X599840Y159461D01*
X599803Y159523D01*
X599764Y159557D01*
X599731Y159597D01*
X599671Y159636D01*
X599616Y159683D01*
X599568Y159702D01*
X599524Y159730D01*
X599455Y159748D01*
X599388Y159775D01*
X599317Y159783D01*
X599286Y159791D01*
X599262Y159789D01*
X599222Y159793D01*
X594702Y159793D01*
X591593Y162902D01*
X591593Y167298D01*
X594390Y170095D01*
X594443Y170169D01*
X594503Y170239D01*
X594515Y170269D01*
X594534Y170295D01*
X594561Y170382D01*
X594595Y170467D01*
X594599Y170508D01*
X594606Y170530D01*
X594605Y170562D01*
X594613Y170633D01*
X594613Y176284D01*
X594599Y176374D01*
X594591Y176465D01*
X594579Y176495D01*
X594574Y176527D01*
X594531Y176608D01*
X594495Y176691D01*
X594469Y176724D01*
X594458Y176744D01*
X594435Y176766D01*
X594390Y176822D01*
X592719Y178494D01*
X592645Y178547D01*
X592576Y178606D01*
X592546Y178618D01*
X592519Y178637D01*
X592432Y178664D01*
X592348Y178698D01*
X592307Y178703D01*
X592284Y178710D01*
X592252Y178709D01*
X592181Y178717D01*
X588225Y178717D01*
X585117Y181825D01*
X585117Y186221D01*
X588225Y189330D01*
X590731Y189330D01*
X590751Y189333D01*
X590770Y189331D01*
X590872Y189353D01*
X590974Y189370D01*
X590991Y189379D01*
X591011Y189383D01*
X591100Y189437D01*
X591191Y189485D01*
X591205Y189499D01*
X591222Y189510D01*
X591289Y189588D01*
X591361Y189663D01*
X591369Y189681D01*
X591382Y189696D01*
X591421Y189793D01*
X591464Y189886D01*
X591466Y189906D01*
X591474Y189925D01*
X591492Y190091D01*
X591492Y192358D01*
X591478Y192449D01*
X591470Y192539D01*
X591458Y192569D01*
X591453Y192601D01*
X591410Y192682D01*
X591374Y192766D01*
X591348Y192798D01*
X591337Y192819D01*
X591314Y192841D01*
X591269Y192897D01*
X585414Y198752D01*
X585340Y198806D01*
X585270Y198865D01*
X585240Y198877D01*
X585214Y198896D01*
X585127Y198923D01*
X585042Y198957D01*
X585001Y198962D01*
X584979Y198968D01*
X584947Y198968D01*
X584875Y198975D01*
X580920Y198975D01*
X577811Y202084D01*
X577811Y206480D01*
X580920Y209589D01*
X585316Y209589D01*
X588113Y206792D01*
X588187Y206739D01*
X588256Y206679D01*
X588287Y206667D01*
X588313Y206648D01*
X588400Y206622D01*
X588485Y206587D01*
X588525Y206583D01*
X588548Y206576D01*
X588580Y206577D01*
X588651Y206569D01*
X609267Y206569D01*
X609357Y206584D01*
X609448Y206591D01*
X609478Y206603D01*
X609510Y206609D01*
X609591Y206651D01*
X609675Y206687D01*
X609707Y206713D01*
X609727Y206724D01*
X609750Y206747D01*
X609806Y206792D01*
X623044Y220030D01*
X623097Y220104D01*
X623157Y220174D01*
X623169Y220204D01*
X623188Y220230D01*
X623214Y220317D01*
X623249Y220402D01*
X623253Y220443D01*
X623260Y220465D01*
X623259Y220497D01*
X623267Y220569D01*
X623267Y224524D01*
X626376Y227633D01*
X630772Y227633D01*
X633881Y224524D01*
X633881Y220836D01*
X633884Y220816D01*
X633882Y220797D01*
X633904Y220695D01*
X633920Y220593D01*
X633930Y220576D01*
X633934Y220556D01*
X633987Y220467D01*
X634035Y220376D01*
X634050Y220362D01*
X634060Y220345D01*
X634139Y220278D01*
X634214Y220206D01*
X634232Y220198D01*
X634247Y220185D01*
X634343Y220146D01*
X634437Y220103D01*
X634457Y220101D01*
X634475Y220093D01*
X634642Y220075D01*
X636066Y220075D01*
X639175Y216966D01*
X639175Y212570D01*
X637510Y210905D01*
X637457Y210831D01*
X637397Y210761D01*
X637385Y210731D01*
X637366Y210705D01*
X637339Y210618D01*
X637305Y210533D01*
X637301Y210492D01*
X637294Y210470D01*
X637295Y210438D01*
X637287Y210367D01*
X637287Y196033D01*
X637301Y195943D01*
X637309Y195852D01*
X637321Y195823D01*
X637326Y195791D01*
X637369Y195710D01*
X637405Y195626D01*
X637431Y195594D01*
X637442Y195573D01*
X637465Y195551D01*
X637485Y195526D01*
X637488Y195520D01*
X637492Y195517D01*
X637510Y195495D01*
X640307Y192698D01*
X640307Y188302D01*
X637198Y185193D01*
X633243Y185193D01*
X633152Y185179D01*
X633062Y185171D01*
X633032Y185159D01*
X633000Y185154D01*
X632919Y185111D01*
X632835Y185075D01*
X632803Y185049D01*
X632782Y185038D01*
X632760Y185015D01*
X632704Y184970D01*
X585147Y137413D01*
X528595Y137413D01*
X528504Y137399D01*
X528414Y137391D01*
X528384Y137379D01*
X528352Y137374D01*
X528271Y137331D01*
X528187Y137295D01*
X528155Y137269D01*
X528134Y137258D01*
X528118Y137241D01*
X528116Y137240D01*
X528108Y137232D01*
X528056Y137190D01*
X513530Y122664D01*
X513477Y122590D01*
X513417Y122520D01*
X513405Y122490D01*
X513386Y122464D01*
X513359Y122377D01*
X513325Y122292D01*
X513321Y122251D01*
X513314Y122229D01*
X513315Y122197D01*
X513307Y122125D01*
X513307Y118170D01*
X513023Y117886D01*
X512981Y117828D01*
X512932Y117776D01*
X512910Y117729D01*
X512880Y117687D01*
X512858Y117618D01*
X512828Y117553D01*
X512823Y117501D01*
X512807Y117451D01*
X512809Y117380D01*
X512801Y117309D01*
X512812Y117258D01*
X512814Y117206D01*
X512838Y117138D01*
X512853Y117068D01*
X512880Y117023D01*
X512898Y116975D01*
X512943Y116919D01*
X512980Y116857D01*
X513019Y116823D01*
X513052Y116783D01*
X513112Y116744D01*
X513167Y116697D01*
X513215Y116678D01*
X513259Y116650D01*
X513328Y116632D01*
X513395Y116605D01*
X513466Y116597D01*
X513497Y116589D01*
X513520Y116591D01*
X513561Y116587D01*
X515167Y116587D01*
X515257Y116601D01*
X515348Y116609D01*
X515377Y116621D01*
X515409Y116626D01*
X515490Y116669D01*
X515574Y116705D01*
X515606Y116731D01*
X515627Y116742D01*
X515649Y116765D01*
X515705Y116810D01*
X518502Y119607D01*
X522898Y119607D01*
X525695Y116810D01*
X525769Y116757D01*
X525839Y116697D01*
X525869Y116685D01*
X525895Y116666D01*
X525982Y116639D01*
X526067Y116605D01*
X526108Y116601D01*
X526130Y116594D01*
X526162Y116595D01*
X526233Y116587D01*
X595637Y116587D01*
X595728Y116601D01*
X595818Y116609D01*
X595848Y116621D01*
X595880Y116626D01*
X595961Y116669D01*
X596045Y116705D01*
X596077Y116731D01*
X596098Y116742D01*
X596120Y116765D01*
X596176Y116810D01*
X604070Y124704D01*
X604116Y124768D01*
X604134Y124787D01*
X604138Y124795D01*
X604183Y124848D01*
X604195Y124878D01*
X604214Y124904D01*
X604241Y124991D01*
X604275Y125076D01*
X604279Y125117D01*
X604286Y125139D01*
X604285Y125171D01*
X604293Y125243D01*
X604293Y129198D01*
X607402Y132307D01*
X611798Y132307D01*
X614907Y129198D01*
X614907Y124802D01*
X611798Y121693D01*
X607843Y121693D01*
X607752Y121679D01*
X607662Y121671D01*
X607632Y121659D01*
X607600Y121654D01*
X607519Y121611D01*
X607435Y121575D01*
X607403Y121549D01*
X607382Y121538D01*
X607360Y121515D01*
X607304Y121470D01*
X597847Y112013D01*
X526233Y112013D01*
X526143Y111999D01*
X526052Y111991D01*
X526023Y111979D01*
X525991Y111974D01*
X525910Y111931D01*
X525826Y111895D01*
X525794Y111869D01*
X525773Y111858D01*
X525751Y111835D01*
X525695Y111790D01*
X522898Y108993D01*
X518502Y108993D01*
X515705Y111790D01*
X515631Y111843D01*
X515561Y111903D01*
X515531Y111915D01*
X515505Y111934D01*
X515418Y111961D01*
X515333Y111995D01*
X515292Y111999D01*
X515270Y112006D01*
X515238Y112005D01*
X515167Y112013D01*
X456253Y112013D01*
X454690Y113576D01*
X342176Y226090D01*
X342102Y226143D01*
X342032Y226203D01*
X342002Y226215D01*
X341976Y226234D01*
X341889Y226261D01*
X341804Y226295D01*
X341763Y226299D01*
X341741Y226306D01*
X341709Y226305D01*
X341637Y226313D01*
X312158Y226313D01*
X312088Y226302D01*
X312016Y226300D01*
X311967Y226282D01*
X311916Y226274D01*
X311852Y226240D01*
X311785Y226215D01*
X311744Y226183D01*
X311698Y226158D01*
X311649Y226106D01*
X311593Y226062D01*
X311565Y226018D01*
X311529Y225980D01*
X311499Y225915D01*
X311460Y225855D01*
X311447Y225804D01*
X311425Y225757D01*
X311417Y225686D01*
X311400Y225616D01*
X311404Y225564D01*
X311398Y225513D01*
X311413Y225442D01*
X311419Y225371D01*
X311439Y225323D01*
X311450Y225272D01*
X311487Y225211D01*
X311515Y225145D01*
X311560Y225089D01*
X311577Y225061D01*
X311594Y225046D01*
X311620Y225014D01*
X313378Y223256D01*
X415319Y121315D01*
X415319Y119861D01*
X415320Y119852D01*
X415320Y119847D01*
X415325Y119821D01*
X415330Y119791D01*
X415332Y119719D01*
X415350Y119670D01*
X415358Y119619D01*
X415392Y119555D01*
X415417Y119488D01*
X415449Y119447D01*
X415474Y119401D01*
X415526Y119352D01*
X415570Y119296D01*
X415614Y119268D01*
X415652Y119232D01*
X415717Y119202D01*
X415777Y119163D01*
X415828Y119150D01*
X415875Y119128D01*
X415946Y119120D01*
X416016Y119103D01*
X416068Y119107D01*
X416119Y119101D01*
X416190Y119116D01*
X416261Y119122D01*
X416309Y119142D01*
X416360Y119153D01*
X416421Y119190D01*
X416487Y119218D01*
X416543Y119263D01*
X416571Y119280D01*
X416586Y119297D01*
X416618Y119323D01*
X416902Y119607D01*
X421298Y119607D01*
X424407Y116498D01*
X424407Y112543D01*
X424421Y112452D01*
X424429Y112362D01*
X424441Y112332D01*
X424446Y112300D01*
X424489Y112219D01*
X424525Y112135D01*
X424551Y112103D01*
X424562Y112082D01*
X424585Y112060D01*
X424630Y112004D01*
X432524Y104110D01*
X432598Y104057D01*
X432668Y103997D01*
X432698Y103985D01*
X432724Y103966D01*
X432811Y103939D01*
X432896Y103905D01*
X432937Y103901D01*
X432959Y103894D01*
X432991Y103895D01*
X433063Y103887D01*
X591367Y103887D01*
X591457Y103901D01*
X591548Y103909D01*
X591577Y103921D01*
X591609Y103926D01*
X591690Y103969D01*
X591774Y104005D01*
X591806Y104031D01*
X591827Y104042D01*
X591839Y104054D01*
X591840Y104055D01*
X591852Y104067D01*
X591905Y104110D01*
X594702Y106907D01*
X599098Y106907D01*
X602207Y103798D01*
X602207Y99402D01*
X599098Y96293D01*
X594702Y96293D01*
X591905Y99090D01*
X591831Y99143D01*
X591761Y99203D01*
X591731Y99215D01*
X591705Y99234D01*
X591618Y99261D01*
X591533Y99295D01*
X591492Y99299D01*
X591470Y99306D01*
X591438Y99305D01*
X591367Y99313D01*
X430577Y99313D01*
X430506Y99302D01*
X430435Y99300D01*
X430386Y99282D01*
X430334Y99274D01*
X430271Y99240D01*
X430204Y99215D01*
X430163Y99183D01*
X430117Y99158D01*
X430067Y99106D01*
X430011Y99062D01*
X429983Y99018D01*
X429947Y98980D01*
X429917Y98915D01*
X429878Y98855D01*
X429866Y98804D01*
X429844Y98757D01*
X429836Y98686D01*
X429818Y98616D01*
X429822Y98564D01*
X429817Y98513D01*
X429832Y98442D01*
X429838Y98371D01*
X429858Y98323D01*
X429869Y98272D01*
X429906Y98211D01*
X429934Y98145D01*
X429979Y98089D01*
X429995Y98061D01*
X430013Y98046D01*
X430039Y98014D01*
X436643Y91410D01*
X436717Y91357D01*
X436786Y91297D01*
X436816Y91285D01*
X436842Y91266D01*
X436929Y91239D01*
X437014Y91205D01*
X437055Y91201D01*
X437078Y91194D01*
X437110Y91195D01*
X437181Y91187D01*
X540567Y91187D01*
X540657Y91201D01*
X540748Y91209D01*
X540777Y91221D01*
X540809Y91226D01*
X540890Y91269D01*
X540974Y91305D01*
X541006Y91331D01*
X541027Y91342D01*
X541049Y91365D01*
X541105Y91410D01*
X543902Y94207D01*
X548298Y94207D01*
X551095Y91410D01*
X551169Y91357D01*
X551239Y91297D01*
X551269Y91285D01*
X551295Y91266D01*
X551382Y91239D01*
X551467Y91205D01*
X551508Y91201D01*
X551530Y91194D01*
X551562Y91195D01*
X551633Y91187D01*
X616398Y91187D01*
X616494Y91202D01*
X616591Y91212D01*
X616615Y91222D01*
X616641Y91226D01*
X616726Y91272D01*
X616816Y91312D01*
X616835Y91329D01*
X616858Y91342D01*
X616925Y91412D01*
X616997Y91478D01*
X617009Y91501D01*
X617027Y91520D01*
X617068Y91608D01*
X617115Y91694D01*
X617120Y91719D01*
X617131Y91743D01*
X617142Y91840D01*
X617159Y91936D01*
X617155Y91962D01*
X617158Y91987D01*
X617137Y92082D01*
X617123Y92179D01*
X617111Y92202D01*
X617106Y92228D01*
X617056Y92311D01*
X617012Y92398D01*
X616993Y92417D01*
X616980Y92439D01*
X616906Y92502D01*
X616836Y92570D01*
X616808Y92586D01*
X616793Y92599D01*
X616762Y92611D01*
X616689Y92651D01*
X616400Y92771D01*
X613471Y95700D01*
X611885Y99528D01*
X611885Y103672D01*
X613471Y107500D01*
X616400Y110429D01*
X620228Y112015D01*
X624372Y112015D01*
X628200Y110429D01*
X631129Y107500D01*
X632715Y103672D01*
X632715Y99528D01*
X631129Y95700D01*
X628200Y92771D01*
X627911Y92651D01*
X627828Y92600D01*
X627742Y92554D01*
X627724Y92535D01*
X627702Y92522D01*
X627640Y92447D01*
X627573Y92376D01*
X627562Y92352D01*
X627545Y92332D01*
X627510Y92241D01*
X627469Y92153D01*
X627466Y92127D01*
X627457Y92103D01*
X627453Y92005D01*
X627442Y91909D01*
X627448Y91883D01*
X627446Y91857D01*
X627474Y91763D01*
X627494Y91668D01*
X627508Y91646D01*
X627515Y91621D01*
X627570Y91541D01*
X627620Y91457D01*
X627640Y91440D01*
X627655Y91419D01*
X627733Y91361D01*
X627807Y91297D01*
X627832Y91287D01*
X627853Y91272D01*
X627945Y91242D01*
X628035Y91205D01*
X628068Y91202D01*
X628086Y91196D01*
X628119Y91196D01*
X628202Y91187D01*
X629467Y91187D01*
X629557Y91201D01*
X629648Y91209D01*
X629677Y91221D01*
X629709Y91226D01*
X629790Y91269D01*
X629874Y91305D01*
X629906Y91331D01*
X629927Y91342D01*
X629949Y91365D01*
X630005Y91410D01*
X632802Y94207D01*
X637198Y94207D01*
X640307Y91098D01*
X640307Y86702D01*
X637198Y83593D01*
X632802Y83593D01*
X630005Y86390D01*
X629931Y86443D01*
X629861Y86503D01*
X629831Y86515D01*
X629805Y86534D01*
X629718Y86561D01*
X629633Y86595D01*
X629592Y86599D01*
X629570Y86606D01*
X629538Y86605D01*
X629467Y86613D01*
X628202Y86613D01*
X628106Y86598D01*
X628009Y86588D01*
X627985Y86578D01*
X627959Y86574D01*
X627874Y86528D01*
X627784Y86488D01*
X627765Y86471D01*
X627742Y86458D01*
X627675Y86388D01*
X627603Y86322D01*
X627591Y86299D01*
X627573Y86280D01*
X627532Y86192D01*
X627485Y86106D01*
X627480Y86081D01*
X627469Y86057D01*
X627458Y85960D01*
X627441Y85864D01*
X627445Y85838D01*
X627442Y85813D01*
X627463Y85718D01*
X627477Y85621D01*
X627489Y85598D01*
X627494Y85572D01*
X627544Y85489D01*
X627588Y85402D01*
X627607Y85383D01*
X627620Y85361D01*
X627694Y85298D01*
X627764Y85230D01*
X627792Y85214D01*
X627807Y85201D01*
X627838Y85189D01*
X627911Y85149D01*
X628200Y85029D01*
X631129Y82100D01*
X632715Y78272D01*
X632715Y74128D01*
X631129Y70300D01*
X628200Y67371D01*
X627911Y67251D01*
X627828Y67200D01*
X627742Y67154D01*
X627724Y67135D01*
X627702Y67122D01*
X627640Y67047D01*
X627573Y66976D01*
X627562Y66952D01*
X627545Y66932D01*
X627510Y66841D01*
X627469Y66753D01*
X627466Y66727D01*
X627457Y66703D01*
X627453Y66605D01*
X627442Y66509D01*
X627448Y66483D01*
X627446Y66457D01*
X627474Y66363D01*
X627494Y66268D01*
X627508Y66246D01*
X627515Y66221D01*
X627570Y66141D01*
X627620Y66057D01*
X627640Y66040D01*
X627655Y66019D01*
X627733Y65961D01*
X627807Y65897D01*
X627832Y65887D01*
X627853Y65872D01*
X627945Y65842D01*
X628035Y65805D01*
X628068Y65802D01*
X628086Y65796D01*
X628119Y65796D01*
X628202Y65787D01*
X629467Y65787D01*
X629557Y65801D01*
X629648Y65809D01*
X629677Y65821D01*
X629709Y65826D01*
X629790Y65869D01*
X629874Y65905D01*
X629906Y65931D01*
X629927Y65942D01*
X629949Y65965D01*
X630005Y66010D01*
X632802Y68807D01*
X637198Y68807D01*
X640307Y65698D01*
X640307Y61302D01*
X637198Y58193D01*
X632802Y58193D01*
X630005Y60990D01*
X629931Y61043D01*
X629861Y61103D01*
X629831Y61115D01*
X629805Y61134D01*
X629718Y61161D01*
X629633Y61195D01*
X629592Y61199D01*
X629570Y61206D01*
X629538Y61205D01*
X629467Y61213D01*
X628202Y61213D01*
X628106Y61198D01*
X628009Y61188D01*
X627985Y61178D01*
X627959Y61174D01*
X627874Y61128D01*
X627784Y61088D01*
X627765Y61071D01*
X627742Y61058D01*
X627675Y60988D01*
X627603Y60922D01*
X627591Y60899D01*
X627573Y60880D01*
X627532Y60792D01*
X627485Y60706D01*
X627480Y60681D01*
X627469Y60657D01*
X627458Y60560D01*
X627441Y60464D01*
X627445Y60438D01*
X627442Y60413D01*
X627463Y60318D01*
X627477Y60221D01*
X627489Y60198D01*
X627494Y60172D01*
X627544Y60089D01*
X627588Y60002D01*
X627607Y59983D01*
X627620Y59961D01*
X627694Y59898D01*
X627764Y59830D01*
X627792Y59814D01*
X627807Y59801D01*
X627838Y59789D01*
X627911Y59749D01*
X628200Y59629D01*
X631129Y56700D01*
X632715Y52872D01*
X632715Y48728D01*
X631129Y44900D01*
X628200Y41971D01*
X624372Y40385D01*
X620228Y40385D01*
G37*
%LPD*%
%LPC*%
G36*
X186447Y10413D02*
X186447Y10413D01*
X151637Y45223D01*
X151637Y78671D01*
X159570Y86604D01*
X159623Y86678D01*
X159683Y86748D01*
X159695Y86778D01*
X159714Y86804D01*
X159741Y86891D01*
X159752Y86919D01*
X159765Y86948D01*
X159766Y86953D01*
X159775Y86976D01*
X159779Y87017D01*
X159786Y87039D01*
X159785Y87071D01*
X159793Y87143D01*
X159793Y91098D01*
X162902Y94207D01*
X167298Y94207D01*
X170407Y91098D01*
X170407Y86702D01*
X167298Y83593D01*
X163343Y83593D01*
X163252Y83579D01*
X163162Y83571D01*
X163132Y83559D01*
X163100Y83554D01*
X163019Y83511D01*
X162935Y83475D01*
X162903Y83449D01*
X162882Y83438D01*
X162860Y83415D01*
X162804Y83370D01*
X156434Y77000D01*
X156387Y76934D01*
X156376Y76923D01*
X156373Y76917D01*
X156321Y76856D01*
X156309Y76826D01*
X156290Y76800D01*
X156263Y76713D01*
X156229Y76628D01*
X156225Y76587D01*
X156218Y76565D01*
X156219Y76533D01*
X156211Y76461D01*
X156211Y58477D01*
X156222Y58406D01*
X156224Y58335D01*
X156242Y58286D01*
X156250Y58234D01*
X156284Y58171D01*
X156309Y58104D01*
X156341Y58063D01*
X156366Y58017D01*
X156418Y57968D01*
X156462Y57912D01*
X156506Y57884D01*
X156544Y57848D01*
X156609Y57818D01*
X156669Y57779D01*
X156720Y57766D01*
X156767Y57744D01*
X156838Y57736D01*
X156908Y57719D01*
X156960Y57723D01*
X157011Y57717D01*
X157082Y57732D01*
X157153Y57738D01*
X157201Y57758D01*
X157252Y57769D01*
X157313Y57806D01*
X157379Y57834D01*
X157435Y57879D01*
X157463Y57895D01*
X157478Y57913D01*
X157510Y57939D01*
X159200Y59629D01*
X163028Y61215D01*
X167172Y61215D01*
X171000Y59629D01*
X173929Y56700D01*
X175515Y52872D01*
X175515Y48728D01*
X173929Y44900D01*
X171000Y41971D01*
X167172Y40385D01*
X164781Y40385D01*
X164710Y40374D01*
X164639Y40372D01*
X164590Y40354D01*
X164538Y40346D01*
X164475Y40312D01*
X164408Y40287D01*
X164367Y40255D01*
X164321Y40230D01*
X164272Y40178D01*
X164216Y40134D01*
X164187Y40090D01*
X164152Y40052D01*
X164121Y39987D01*
X164083Y39927D01*
X164070Y39876D01*
X164048Y39829D01*
X164040Y39758D01*
X164023Y39688D01*
X164027Y39636D01*
X164021Y39585D01*
X164036Y39514D01*
X164042Y39443D01*
X164062Y39395D01*
X164073Y39344D01*
X164110Y39283D01*
X164138Y39217D01*
X164183Y39161D01*
X164199Y39133D01*
X164217Y39118D01*
X164243Y39086D01*
X188119Y15210D01*
X188193Y15157D01*
X188262Y15097D01*
X188292Y15085D01*
X188319Y15066D01*
X188406Y15039D01*
X188490Y15005D01*
X188531Y15001D01*
X188554Y14994D01*
X188586Y14995D01*
X188657Y14987D01*
X616398Y14987D01*
X616494Y15002D01*
X616591Y15012D01*
X616615Y15022D01*
X616641Y15026D01*
X616727Y15072D01*
X616816Y15112D01*
X616835Y15129D01*
X616858Y15142D01*
X616925Y15212D01*
X616997Y15278D01*
X617009Y15301D01*
X617027Y15320D01*
X617068Y15408D01*
X617115Y15494D01*
X617120Y15519D01*
X617131Y15543D01*
X617142Y15640D01*
X617159Y15736D01*
X617155Y15762D01*
X617158Y15787D01*
X617137Y15883D01*
X617123Y15979D01*
X617111Y16002D01*
X617106Y16028D01*
X617056Y16111D01*
X617012Y16198D01*
X616993Y16217D01*
X616980Y16239D01*
X616906Y16302D01*
X616836Y16370D01*
X616808Y16386D01*
X616793Y16399D01*
X616762Y16411D01*
X616689Y16451D01*
X616400Y16571D01*
X613471Y19500D01*
X611885Y23328D01*
X611885Y27472D01*
X613471Y31300D01*
X616400Y34229D01*
X620228Y35815D01*
X624372Y35815D01*
X628200Y34229D01*
X631129Y31300D01*
X632715Y27472D01*
X632715Y23328D01*
X631129Y19500D01*
X628200Y16571D01*
X627911Y16451D01*
X627828Y16400D01*
X627742Y16354D01*
X627724Y16335D01*
X627702Y16322D01*
X627640Y16247D01*
X627573Y16176D01*
X627562Y16152D01*
X627545Y16132D01*
X627510Y16041D01*
X627469Y15953D01*
X627466Y15927D01*
X627457Y15903D01*
X627453Y15805D01*
X627442Y15709D01*
X627447Y15683D01*
X627446Y15657D01*
X627474Y15563D01*
X627494Y15468D01*
X627508Y15446D01*
X627515Y15421D01*
X627570Y15341D01*
X627620Y15257D01*
X627640Y15240D01*
X627655Y15219D01*
X627733Y15160D01*
X627807Y15097D01*
X627832Y15087D01*
X627853Y15072D01*
X627945Y15042D01*
X628035Y15005D01*
X628068Y15002D01*
X628086Y14996D01*
X628119Y14996D01*
X628202Y14987D01*
X722637Y14987D01*
X722728Y15001D01*
X722818Y15009D01*
X722848Y15021D01*
X722880Y15026D01*
X722961Y15069D01*
X723045Y15105D01*
X723077Y15131D01*
X723098Y15142D01*
X723120Y15165D01*
X723176Y15210D01*
X725896Y17930D01*
X725949Y18004D01*
X726009Y18074D01*
X726021Y18104D01*
X726040Y18130D01*
X726067Y18217D01*
X726101Y18302D01*
X726105Y18343D01*
X726112Y18365D01*
X726111Y18397D01*
X726119Y18469D01*
X726119Y65211D01*
X734090Y73182D01*
X734143Y73256D01*
X734203Y73325D01*
X734215Y73355D01*
X734234Y73381D01*
X734261Y73468D01*
X734295Y73553D01*
X734299Y73594D01*
X734306Y73617D01*
X734305Y73649D01*
X734313Y73720D01*
X734313Y146867D01*
X734299Y146957D01*
X734291Y147048D01*
X734279Y147077D01*
X734274Y147109D01*
X734231Y147190D01*
X734195Y147274D01*
X734169Y147306D01*
X734158Y147327D01*
X734135Y147349D01*
X734090Y147405D01*
X731293Y150202D01*
X731293Y154598D01*
X734402Y157707D01*
X738798Y157707D01*
X741907Y154598D01*
X741907Y150202D01*
X739110Y147405D01*
X739056Y147331D01*
X738997Y147261D01*
X738985Y147231D01*
X738966Y147205D01*
X738939Y147118D01*
X738905Y147033D01*
X738901Y146992D01*
X738894Y146970D01*
X738895Y146938D01*
X738887Y146867D01*
X738887Y71510D01*
X730916Y63539D01*
X730863Y63465D01*
X730803Y63396D01*
X730791Y63366D01*
X730772Y63340D01*
X730745Y63253D01*
X730711Y63168D01*
X730707Y63127D01*
X730700Y63104D01*
X730701Y63072D01*
X730693Y63001D01*
X730693Y16259D01*
X724847Y10413D01*
X186447Y10413D01*
G37*
%LPD*%
G36*
X603078Y162033D02*
X603078Y162033D01*
X603149Y162039D01*
X603197Y162059D01*
X603248Y162070D01*
X603309Y162107D01*
X603375Y162135D01*
X603431Y162180D01*
X603459Y162197D01*
X603474Y162214D01*
X603506Y162240D01*
X629470Y188204D01*
X629523Y188278D01*
X629583Y188348D01*
X629595Y188378D01*
X629614Y188404D01*
X629641Y188491D01*
X629675Y188576D01*
X629679Y188617D01*
X629686Y188639D01*
X629685Y188671D01*
X629693Y188743D01*
X629693Y192698D01*
X632490Y195495D01*
X632536Y195558D01*
X632559Y195583D01*
X632564Y195593D01*
X632603Y195639D01*
X632615Y195669D01*
X632634Y195695D01*
X632661Y195782D01*
X632695Y195867D01*
X632699Y195908D01*
X632706Y195930D01*
X632705Y195962D01*
X632713Y196033D01*
X632713Y208700D01*
X632710Y208720D01*
X632712Y208739D01*
X632690Y208841D01*
X632674Y208943D01*
X632664Y208960D01*
X632660Y208980D01*
X632607Y209069D01*
X632558Y209160D01*
X632544Y209174D01*
X632534Y209191D01*
X632455Y209258D01*
X632380Y209330D01*
X632362Y209338D01*
X632347Y209351D01*
X632251Y209390D01*
X632157Y209433D01*
X632137Y209435D01*
X632119Y209443D01*
X631952Y209461D01*
X631670Y209461D01*
X628561Y212570D01*
X628561Y216258D01*
X628558Y216278D01*
X628560Y216298D01*
X628538Y216399D01*
X628522Y216501D01*
X628512Y216519D01*
X628508Y216538D01*
X628455Y216627D01*
X628406Y216718D01*
X628392Y216732D01*
X628382Y216749D01*
X628303Y216816D01*
X628228Y216888D01*
X628210Y216896D01*
X628195Y216909D01*
X628099Y216948D01*
X628005Y216991D01*
X627985Y216994D01*
X627967Y217001D01*
X627800Y217019D01*
X626816Y217019D01*
X626726Y217005D01*
X626635Y216998D01*
X626606Y216985D01*
X626574Y216980D01*
X626493Y216937D01*
X626409Y216901D01*
X626377Y216876D01*
X626356Y216865D01*
X626334Y216841D01*
X626278Y216796D01*
X611477Y201995D01*
X590476Y201995D01*
X590406Y201984D01*
X590334Y201982D01*
X590285Y201964D01*
X590234Y201956D01*
X590170Y201922D01*
X590103Y201898D01*
X590062Y201865D01*
X590016Y201841D01*
X589967Y201789D01*
X589911Y201744D01*
X589883Y201700D01*
X589847Y201662D01*
X589817Y201597D01*
X589778Y201537D01*
X589765Y201486D01*
X589743Y201439D01*
X589735Y201368D01*
X589718Y201298D01*
X589722Y201246D01*
X589716Y201195D01*
X589731Y201125D01*
X589737Y201053D01*
X589757Y201005D01*
X589768Y200954D01*
X589805Y200893D01*
X589833Y200827D01*
X589878Y200771D01*
X589894Y200743D01*
X589912Y200728D01*
X589938Y200696D01*
X594604Y196030D01*
X594678Y195977D01*
X594748Y195917D01*
X594778Y195905D01*
X594804Y195886D01*
X594891Y195859D01*
X594976Y195825D01*
X595017Y195821D01*
X595039Y195814D01*
X595071Y195815D01*
X595143Y195807D01*
X598997Y195807D01*
X602106Y192698D01*
X602106Y188844D01*
X602120Y188753D01*
X602128Y188663D01*
X602140Y188633D01*
X602145Y188601D01*
X602188Y188520D01*
X602224Y188436D01*
X602250Y188404D01*
X602261Y188383D01*
X602284Y188361D01*
X602329Y188305D01*
X603892Y186742D01*
X603908Y186730D01*
X603921Y186714D01*
X604008Y186658D01*
X604092Y186598D01*
X604111Y186592D01*
X604128Y186581D01*
X604228Y186556D01*
X604327Y186526D01*
X604347Y186526D01*
X604366Y186521D01*
X604469Y186529D01*
X604573Y186532D01*
X604592Y186539D01*
X604612Y186541D01*
X604706Y186581D01*
X604804Y186617D01*
X604820Y186629D01*
X604838Y186637D01*
X604969Y186742D01*
X607402Y189175D01*
X611798Y189175D01*
X614907Y186066D01*
X614907Y181670D01*
X611798Y178561D01*
X607402Y178561D01*
X604605Y181358D01*
X604531Y181411D01*
X604461Y181471D01*
X604431Y181483D01*
X604405Y181502D01*
X604318Y181529D01*
X604233Y181563D01*
X604192Y181567D01*
X604170Y181574D01*
X604138Y181573D01*
X604067Y181581D01*
X602585Y181581D01*
X601022Y183144D01*
X599196Y184970D01*
X599122Y185023D01*
X599052Y185083D01*
X599022Y185095D01*
X598996Y185114D01*
X598909Y185141D01*
X598824Y185175D01*
X598783Y185179D01*
X598761Y185186D01*
X598729Y185185D01*
X598657Y185193D01*
X596491Y185193D01*
X596472Y185190D01*
X596452Y185192D01*
X596351Y185170D01*
X596249Y185154D01*
X596231Y185144D01*
X596211Y185140D01*
X596122Y185087D01*
X596031Y185038D01*
X596017Y185024D01*
X596000Y185014D01*
X595933Y184935D01*
X595862Y184860D01*
X595853Y184842D01*
X595840Y184827D01*
X595802Y184731D01*
X595758Y184637D01*
X595756Y184617D01*
X595749Y184599D01*
X595730Y184432D01*
X595730Y182266D01*
X595745Y182176D01*
X595752Y182085D01*
X595765Y182055D01*
X595770Y182023D01*
X595813Y181942D01*
X595848Y181859D01*
X595874Y181826D01*
X595885Y181806D01*
X595908Y181784D01*
X595953Y181728D01*
X599187Y178494D01*
X599187Y170633D01*
X599201Y170543D01*
X599209Y170452D01*
X599221Y170423D01*
X599226Y170391D01*
X599269Y170310D01*
X599305Y170226D01*
X599331Y170194D01*
X599342Y170173D01*
X599365Y170151D01*
X599410Y170095D01*
X602207Y167298D01*
X602207Y162778D01*
X602218Y162708D01*
X602220Y162636D01*
X602238Y162587D01*
X602246Y162536D01*
X602280Y162472D01*
X602305Y162405D01*
X602337Y162364D01*
X602362Y162318D01*
X602414Y162269D01*
X602458Y162213D01*
X602502Y162185D01*
X602540Y162149D01*
X602605Y162119D01*
X602665Y162080D01*
X602716Y162067D01*
X602763Y162045D01*
X602834Y162037D01*
X602904Y162020D01*
X602956Y162024D01*
X603007Y162018D01*
X603078Y162033D01*
G37*
%LPC*%
G36*
X150096Y147093D02*
X150096Y147093D01*
X146987Y150202D01*
X146987Y154598D01*
X150096Y157707D01*
X154051Y157707D01*
X154142Y157721D01*
X154232Y157729D01*
X154262Y157741D01*
X154294Y157746D01*
X154375Y157789D01*
X154459Y157825D01*
X154491Y157851D01*
X154512Y157862D01*
X154534Y157885D01*
X154590Y157930D01*
X176747Y180087D01*
X210367Y180087D01*
X210457Y180101D01*
X210548Y180109D01*
X210577Y180121D01*
X210609Y180126D01*
X210690Y180169D01*
X210774Y180205D01*
X210806Y180231D01*
X210827Y180242D01*
X210849Y180265D01*
X210905Y180310D01*
X213702Y183107D01*
X218098Y183107D01*
X221207Y179998D01*
X221207Y175602D01*
X218098Y172493D01*
X213702Y172493D01*
X210905Y175290D01*
X210831Y175343D01*
X210761Y175403D01*
X210731Y175415D01*
X210705Y175434D01*
X210618Y175461D01*
X210533Y175495D01*
X210492Y175499D01*
X210470Y175506D01*
X210438Y175505D01*
X210367Y175513D01*
X178957Y175513D01*
X178866Y175499D01*
X178776Y175491D01*
X178746Y175479D01*
X178714Y175474D01*
X178633Y175431D01*
X178549Y175395D01*
X178517Y175369D01*
X178496Y175358D01*
X178474Y175335D01*
X178418Y175290D01*
X174834Y171706D01*
X174792Y171648D01*
X174743Y171596D01*
X174721Y171549D01*
X174691Y171507D01*
X174670Y171438D01*
X174639Y171373D01*
X174634Y171321D01*
X174618Y171271D01*
X174620Y171200D01*
X174612Y171129D01*
X174623Y171078D01*
X174625Y171026D01*
X174649Y170958D01*
X174664Y170888D01*
X174691Y170843D01*
X174709Y170795D01*
X174754Y170739D01*
X174791Y170677D01*
X174830Y170643D01*
X174863Y170603D01*
X174923Y170564D01*
X174978Y170517D01*
X175026Y170498D01*
X175070Y170470D01*
X175139Y170452D01*
X175206Y170425D01*
X175277Y170417D01*
X175308Y170409D01*
X175332Y170411D01*
X175372Y170407D01*
X179998Y170407D01*
X183107Y167298D01*
X183107Y162902D01*
X179998Y159793D01*
X175602Y159793D01*
X172805Y162590D01*
X172731Y162643D01*
X172661Y162703D01*
X172631Y162715D01*
X172605Y162734D01*
X172518Y162761D01*
X172433Y162795D01*
X172392Y162799D01*
X172370Y162806D01*
X172338Y162805D01*
X172267Y162813D01*
X166257Y162813D01*
X166166Y162799D01*
X166076Y162791D01*
X166046Y162779D01*
X166014Y162774D01*
X165933Y162731D01*
X165849Y162695D01*
X165817Y162669D01*
X165796Y162658D01*
X165774Y162635D01*
X165718Y162590D01*
X157824Y154696D01*
X157771Y154622D01*
X157711Y154552D01*
X157699Y154522D01*
X157680Y154496D01*
X157653Y154409D01*
X157619Y154324D01*
X157615Y154283D01*
X157608Y154261D01*
X157609Y154229D01*
X157601Y154157D01*
X157601Y150202D01*
X154492Y147093D01*
X150096Y147093D01*
G37*
%LPD*%
%LPC*%
G36*
X250202Y124893D02*
X250202Y124893D01*
X247093Y128002D01*
X247093Y132398D01*
X249890Y135195D01*
X249943Y135269D01*
X250003Y135339D01*
X250015Y135369D01*
X250034Y135395D01*
X250061Y135482D01*
X250095Y135567D01*
X250099Y135608D01*
X250106Y135630D01*
X250105Y135662D01*
X250113Y135733D01*
X250113Y161167D01*
X250099Y161257D01*
X250091Y161348D01*
X250079Y161377D01*
X250074Y161409D01*
X250031Y161490D01*
X249995Y161574D01*
X249969Y161606D01*
X249958Y161627D01*
X249935Y161649D01*
X249890Y161705D01*
X248693Y162902D01*
X248693Y166857D01*
X248679Y166948D01*
X248671Y167038D01*
X248659Y167068D01*
X248654Y167100D01*
X248611Y167181D01*
X248575Y167265D01*
X248549Y167297D01*
X248538Y167318D01*
X248515Y167340D01*
X248470Y167396D01*
X218196Y197670D01*
X218122Y197723D01*
X218052Y197783D01*
X218022Y197795D01*
X217996Y197814D01*
X217909Y197841D01*
X217824Y197875D01*
X217783Y197879D01*
X217761Y197886D01*
X217729Y197885D01*
X217657Y197893D01*
X213702Y197893D01*
X210593Y201002D01*
X210593Y205398D01*
X213702Y208507D01*
X218098Y208507D01*
X221207Y205398D01*
X221207Y201443D01*
X221221Y201352D01*
X221229Y201262D01*
X221241Y201232D01*
X221246Y201200D01*
X221289Y201119D01*
X221325Y201035D01*
X221351Y201003D01*
X221362Y200982D01*
X221385Y200960D01*
X221430Y200904D01*
X251704Y170630D01*
X251778Y170577D01*
X251848Y170517D01*
X251878Y170505D01*
X251904Y170486D01*
X251991Y170459D01*
X252076Y170425D01*
X252117Y170421D01*
X252139Y170414D01*
X252171Y170415D01*
X252243Y170407D01*
X256198Y170407D01*
X259307Y167298D01*
X259307Y162902D01*
X256198Y159793D01*
X255448Y159793D01*
X255428Y159790D01*
X255409Y159792D01*
X255307Y159770D01*
X255205Y159754D01*
X255188Y159744D01*
X255168Y159740D01*
X255079Y159687D01*
X254988Y159638D01*
X254974Y159624D01*
X254957Y159614D01*
X254890Y159535D01*
X254818Y159460D01*
X254810Y159442D01*
X254797Y159427D01*
X254758Y159331D01*
X254715Y159237D01*
X254713Y159217D01*
X254705Y159199D01*
X254687Y159032D01*
X254687Y135733D01*
X254701Y135643D01*
X254709Y135552D01*
X254721Y135523D01*
X254726Y135491D01*
X254769Y135410D01*
X254805Y135326D01*
X254831Y135294D01*
X254842Y135273D01*
X254865Y135251D01*
X254910Y135195D01*
X257707Y132398D01*
X257707Y128002D01*
X254598Y124893D01*
X250202Y124893D01*
G37*
%LPD*%
%LPC*%
G36*
X759802Y70893D02*
X759802Y70893D01*
X756693Y74002D01*
X756693Y78398D01*
X759490Y81195D01*
X759543Y81269D01*
X759603Y81339D01*
X759615Y81369D01*
X759634Y81395D01*
X759661Y81482D01*
X759695Y81567D01*
X759699Y81608D01*
X759706Y81630D01*
X759705Y81662D01*
X759713Y81733D01*
X759713Y90223D01*
X772190Y102700D01*
X772243Y102774D01*
X772303Y102844D01*
X772315Y102874D01*
X772334Y102900D01*
X772361Y102987D01*
X772395Y103072D01*
X772399Y103113D01*
X772406Y103135D01*
X772405Y103167D01*
X772413Y103239D01*
X772413Y121467D01*
X772399Y121557D01*
X772391Y121648D01*
X772379Y121677D01*
X772374Y121709D01*
X772331Y121790D01*
X772295Y121874D01*
X772269Y121906D01*
X772258Y121927D01*
X772235Y121949D01*
X772190Y122005D01*
X769393Y124802D01*
X769393Y129198D01*
X772502Y132307D01*
X776898Y132307D01*
X780007Y129198D01*
X780007Y124802D01*
X777210Y122005D01*
X777157Y121931D01*
X777097Y121861D01*
X777085Y121831D01*
X777066Y121805D01*
X777039Y121718D01*
X777005Y121633D01*
X777001Y121592D01*
X776994Y121570D01*
X776995Y121538D01*
X776987Y121467D01*
X776987Y101029D01*
X764510Y88552D01*
X764457Y88478D01*
X764397Y88408D01*
X764385Y88378D01*
X764366Y88352D01*
X764339Y88265D01*
X764305Y88180D01*
X764301Y88139D01*
X764294Y88117D01*
X764295Y88085D01*
X764287Y88013D01*
X764287Y81733D01*
X764301Y81643D01*
X764309Y81552D01*
X764321Y81523D01*
X764326Y81491D01*
X764369Y81410D01*
X764405Y81326D01*
X764431Y81294D01*
X764442Y81273D01*
X764465Y81251D01*
X764510Y81195D01*
X767307Y78398D01*
X767307Y74002D01*
X764198Y70893D01*
X759802Y70893D01*
G37*
%LPD*%
%LPC*%
G36*
X484526Y168369D02*
X484526Y168369D01*
X481418Y171478D01*
X481418Y175874D01*
X484526Y178982D01*
X488482Y178982D01*
X488572Y178997D01*
X488663Y179004D01*
X488693Y179017D01*
X488725Y179022D01*
X488805Y179065D01*
X488889Y179101D01*
X488921Y179126D01*
X488942Y179137D01*
X488964Y179161D01*
X489020Y179205D01*
X489901Y180087D01*
X527867Y180087D01*
X527957Y180101D01*
X528048Y180109D01*
X528077Y180121D01*
X528109Y180126D01*
X528190Y180169D01*
X528274Y180205D01*
X528306Y180231D01*
X528327Y180242D01*
X528349Y180265D01*
X528405Y180310D01*
X531202Y183107D01*
X535598Y183107D01*
X538707Y179998D01*
X538707Y175602D01*
X535598Y172493D01*
X531202Y172493D01*
X528405Y175290D01*
X528331Y175343D01*
X528261Y175403D01*
X528231Y175415D01*
X528205Y175434D01*
X528118Y175461D01*
X528033Y175495D01*
X527992Y175499D01*
X527970Y175506D01*
X527938Y175505D01*
X527867Y175513D01*
X492792Y175513D01*
X492773Y175510D01*
X492753Y175512D01*
X492652Y175490D01*
X492550Y175474D01*
X492532Y175464D01*
X492512Y175460D01*
X492423Y175407D01*
X492332Y175358D01*
X492318Y175344D01*
X492301Y175334D01*
X492234Y175255D01*
X492163Y175180D01*
X492154Y175162D01*
X492141Y175147D01*
X492103Y175051D01*
X492059Y174957D01*
X492057Y174937D01*
X492050Y174919D01*
X492031Y174752D01*
X492031Y171478D01*
X488922Y168369D01*
X484526Y168369D01*
G37*
%LPD*%
%LPC*%
G36*
X645628Y167385D02*
X645628Y167385D01*
X641800Y168971D01*
X638871Y171900D01*
X637285Y175728D01*
X637285Y179872D01*
X638871Y183700D01*
X641800Y186629D01*
X645628Y188215D01*
X649772Y188215D01*
X653600Y186629D01*
X656529Y183700D01*
X658115Y179872D01*
X658115Y175728D01*
X656529Y171900D01*
X653600Y168971D01*
X649772Y167385D01*
X645628Y167385D01*
G37*
%LPD*%
%LPC*%
G36*
X671028Y167385D02*
X671028Y167385D01*
X667200Y168971D01*
X664271Y171900D01*
X662685Y175728D01*
X662685Y179872D01*
X664271Y183700D01*
X667200Y186629D01*
X671028Y188215D01*
X675172Y188215D01*
X679000Y186629D01*
X681929Y183700D01*
X683515Y179872D01*
X683515Y175728D01*
X681929Y171900D01*
X679000Y168971D01*
X675172Y167385D01*
X671028Y167385D01*
G37*
%LPD*%
%LPC*%
G36*
X696428Y167385D02*
X696428Y167385D01*
X692600Y168971D01*
X689671Y171900D01*
X688085Y175728D01*
X688085Y179872D01*
X689671Y183700D01*
X692600Y186629D01*
X696428Y188215D01*
X700572Y188215D01*
X704400Y186629D01*
X707329Y183700D01*
X708915Y179872D01*
X708915Y175728D01*
X707329Y171900D01*
X704400Y168971D01*
X700572Y167385D01*
X696428Y167385D01*
G37*
%LPD*%
%LPC*%
G36*
X721828Y167385D02*
X721828Y167385D01*
X718000Y168971D01*
X715071Y171900D01*
X713485Y175728D01*
X713485Y179872D01*
X715071Y183700D01*
X718000Y186629D01*
X721828Y188215D01*
X725972Y188215D01*
X729800Y186629D01*
X732729Y183700D01*
X734315Y179872D01*
X734315Y175728D01*
X732729Y171900D01*
X729800Y168971D01*
X725972Y167385D01*
X721828Y167385D01*
G37*
%LPD*%
%LPC*%
G36*
X137628Y40385D02*
X137628Y40385D01*
X133800Y41971D01*
X130871Y44900D01*
X129285Y48728D01*
X129285Y52872D01*
X130871Y56700D01*
X133800Y59629D01*
X137628Y61215D01*
X141772Y61215D01*
X145600Y59629D01*
X148529Y56700D01*
X150115Y52872D01*
X150115Y48728D01*
X148529Y44900D01*
X145600Y41971D01*
X141772Y40385D01*
X137628Y40385D01*
G37*
%LPD*%
%LPC*%
G36*
X213828Y40385D02*
X213828Y40385D01*
X210000Y41971D01*
X207071Y44900D01*
X205485Y48728D01*
X205485Y52872D01*
X207071Y56700D01*
X210000Y59629D01*
X213828Y61215D01*
X217972Y61215D01*
X221800Y59629D01*
X224729Y56700D01*
X226315Y52872D01*
X226315Y48728D01*
X224729Y44900D01*
X221800Y41971D01*
X217972Y40385D01*
X213828Y40385D01*
G37*
%LPD*%
%LPC*%
G36*
X188428Y40385D02*
X188428Y40385D01*
X184600Y41971D01*
X181671Y44900D01*
X180085Y48728D01*
X180085Y52872D01*
X181671Y56700D01*
X184600Y59629D01*
X188428Y61215D01*
X192572Y61215D01*
X196400Y59629D01*
X199329Y56700D01*
X200915Y52872D01*
X200915Y48728D01*
X199329Y44900D01*
X196400Y41971D01*
X192572Y40385D01*
X188428Y40385D01*
G37*
%LPD*%
%LPC*%
G36*
X696302Y197893D02*
X696302Y197893D01*
X693193Y201002D01*
X693193Y204957D01*
X693179Y205048D01*
X693171Y205138D01*
X693159Y205168D01*
X693154Y205200D01*
X693111Y205281D01*
X693075Y205365D01*
X693049Y205397D01*
X693038Y205418D01*
X693015Y205440D01*
X692970Y205496D01*
X675396Y223070D01*
X675322Y223123D01*
X675252Y223183D01*
X675222Y223195D01*
X675196Y223214D01*
X675109Y223241D01*
X675024Y223275D01*
X674983Y223279D01*
X674961Y223286D01*
X674929Y223285D01*
X674857Y223293D01*
X670902Y223293D01*
X667793Y226402D01*
X667793Y230798D01*
X670902Y233907D01*
X675298Y233907D01*
X678407Y230798D01*
X678407Y226843D01*
X678421Y226752D01*
X678429Y226662D01*
X678441Y226632D01*
X678446Y226600D01*
X678489Y226519D01*
X678525Y226435D01*
X678551Y226403D01*
X678562Y226382D01*
X678585Y226360D01*
X678630Y226304D01*
X696204Y208730D01*
X696278Y208677D01*
X696348Y208617D01*
X696378Y208605D01*
X696404Y208586D01*
X696491Y208559D01*
X696576Y208525D01*
X696617Y208521D01*
X696639Y208514D01*
X696671Y208515D01*
X696743Y208507D01*
X700698Y208507D01*
X703807Y205398D01*
X703807Y201002D01*
X700698Y197893D01*
X696302Y197893D01*
G37*
%LPD*%
%LPC*%
G36*
X302602Y172493D02*
X302602Y172493D01*
X299493Y175602D01*
X299493Y179998D01*
X302290Y182795D01*
X302343Y182869D01*
X302403Y182939D01*
X302415Y182969D01*
X302434Y182995D01*
X302461Y183082D01*
X302495Y183167D01*
X302499Y183208D01*
X302506Y183230D01*
X302505Y183262D01*
X302513Y183333D01*
X302513Y203021D01*
X302499Y203111D01*
X302491Y203202D01*
X302479Y203231D01*
X302474Y203263D01*
X302431Y203344D01*
X302395Y203428D01*
X302369Y203460D01*
X302358Y203481D01*
X302335Y203503D01*
X302290Y203559D01*
X299493Y206356D01*
X299493Y210752D01*
X302602Y213861D01*
X306998Y213861D01*
X310107Y210752D01*
X310107Y206356D01*
X307310Y203559D01*
X307257Y203485D01*
X307197Y203415D01*
X307185Y203385D01*
X307166Y203359D01*
X307139Y203272D01*
X307105Y203187D01*
X307101Y203146D01*
X307094Y203124D01*
X307095Y203092D01*
X307087Y203021D01*
X307087Y183333D01*
X307101Y183243D01*
X307109Y183152D01*
X307121Y183123D01*
X307126Y183091D01*
X307169Y183010D01*
X307205Y182926D01*
X307231Y182894D01*
X307242Y182873D01*
X307265Y182851D01*
X307310Y182795D01*
X310107Y179998D01*
X310107Y175602D01*
X306998Y172493D01*
X302602Y172493D01*
G37*
%LPD*%
%LPC*%
G36*
X505696Y182325D02*
X505696Y182325D01*
X502587Y185434D01*
X502587Y189830D01*
X505490Y192733D01*
X505543Y192807D01*
X505603Y192877D01*
X505615Y192907D01*
X505634Y192933D01*
X505661Y193020D01*
X505695Y193105D01*
X505699Y193146D01*
X505706Y193168D01*
X505705Y193200D01*
X505713Y193271D01*
X505713Y197667D01*
X505699Y197757D01*
X505691Y197848D01*
X505679Y197877D01*
X505674Y197909D01*
X505631Y197990D01*
X505595Y198074D01*
X505569Y198106D01*
X505558Y198127D01*
X505535Y198149D01*
X505490Y198205D01*
X502693Y201002D01*
X502693Y205398D01*
X505802Y208507D01*
X510198Y208507D01*
X513307Y205398D01*
X513307Y201002D01*
X510510Y198205D01*
X510457Y198131D01*
X510397Y198061D01*
X510385Y198031D01*
X510366Y198005D01*
X510339Y197918D01*
X510305Y197833D01*
X510301Y197792D01*
X510294Y197770D01*
X510295Y197738D01*
X510287Y197667D01*
X510287Y193059D01*
X510301Y192969D01*
X510309Y192878D01*
X510321Y192849D01*
X510326Y192817D01*
X510369Y192736D01*
X510405Y192652D01*
X510431Y192620D01*
X510442Y192599D01*
X510465Y192577D01*
X510510Y192521D01*
X513201Y189830D01*
X513201Y185434D01*
X510092Y182325D01*
X505696Y182325D01*
G37*
%LPD*%
D10*
X647700Y177800D03*
X673100Y177800D03*
X698500Y177800D03*
X723900Y177800D03*
X139700Y50800D03*
X165100Y50800D03*
X190500Y50800D03*
X215900Y50800D03*
X622300Y101600D03*
X622300Y76200D03*
X622300Y50800D03*
X622300Y25400D03*
D11*
X254000Y165100D03*
X583118Y204282D03*
D12*
X603532Y183868D01*
D11*
X628574Y222326D03*
D12*
X610530Y204282D02*
X583118Y204282D01*
X610530Y204282D02*
X628574Y222326D01*
D11*
X596799Y190500D03*
X252400Y130200D03*
D12*
X252400Y163500D01*
X254000Y165100D01*
X603532Y183868D02*
X609600Y183868D01*
D11*
X609600Y183868D03*
X215900Y203200D03*
D12*
X252400Y166700D01*
X252400Y163500D01*
D11*
X596900Y63500D03*
D12*
X635000Y63500D01*
D11*
X635000Y63500D03*
X508000Y203200D03*
D12*
X508000Y187738D01*
X507894Y187632D01*
D11*
X507894Y187632D03*
X304800Y208554D03*
D12*
X304800Y177800D01*
D11*
X304800Y177800D03*
D12*
X774700Y127000D02*
X774700Y101976D01*
D11*
X774700Y127000D03*
X762000Y76200D03*
D12*
X762000Y89276D01*
X774700Y101976D01*
D11*
X736600Y152400D03*
D12*
X736600Y72458D01*
X728406Y17206D02*
X723900Y12700D01*
X728406Y64264D02*
X736600Y72458D01*
X728406Y64264D02*
X728406Y17206D01*
X723900Y12700D02*
X187395Y12700D01*
X153924Y46171D01*
X153924Y77724D02*
X165100Y88900D01*
D11*
X165100Y88900D03*
D12*
X153924Y77724D02*
X153924Y46171D01*
D11*
X152294Y152400D03*
D12*
X165047Y165153D01*
D11*
X215900Y177800D03*
D12*
X177694Y177800D02*
X165047Y165153D01*
X177694Y177800D02*
X215900Y177800D01*
D11*
X177800Y165100D03*
D12*
X165100Y165100D01*
X165047Y165153D01*
D11*
X486724Y173676D03*
D12*
X490849Y177800D01*
X533400Y177800D01*
D11*
X533400Y177800D03*
D12*
X584200Y139700D02*
X635000Y190500D01*
D11*
X635000Y190500D03*
D12*
X527332Y139700D02*
X508000Y120368D01*
D11*
X508000Y120368D03*
D12*
X527332Y139700D02*
X584200Y139700D01*
D11*
X432724Y166024D03*
D12*
X478381Y120368D01*
X508000Y120368D01*
D11*
X633868Y214768D03*
D12*
X635000Y213636D01*
X635000Y190500D01*
X342900Y228600D02*
X203200Y228600D01*
D11*
X203200Y228600D03*
D12*
X342900Y228600D02*
X457200Y114300D01*
D11*
X609600Y127000D03*
X590423Y184023D03*
D12*
X596900Y177547D01*
X596900Y165100D01*
D11*
X596900Y165100D03*
D12*
X520700Y114300D02*
X457200Y114300D01*
D11*
X520700Y114300D03*
D12*
X596900Y114300D02*
X609600Y127000D01*
X596900Y114300D02*
X520700Y114300D01*
D11*
X635000Y88900D03*
D12*
X413032Y111787D02*
X413032Y120368D01*
D11*
X177800Y215900D03*
D12*
X413032Y111787D02*
X435919Y88900D01*
X184432Y222532D02*
X177800Y215900D01*
X310868Y222532D02*
X413032Y120368D01*
X310868Y222532D02*
X184432Y222532D01*
X546100Y88900D02*
X635000Y88900D01*
D11*
X546100Y88900D03*
D12*
X435919Y88900D01*
D11*
X698500Y203200D03*
D12*
X673100Y228600D01*
D11*
X673100Y228600D03*
X596900Y101600D03*
D12*
X431800Y101600D01*
X419100Y114300D01*
D11*
X419100Y114300D03*
M02*
