G04 EAGLE Gerber RS-274X export*
G75*
%MOMM*%
%FSLAX34Y34*%
%LPD*%
%INSilkscreen Top*%
%IPPOS*%
%AMOC8*
5,1,8,0,0,1.08239X$1,22.5*%
G01*
%ADD10C,0.127000*%
%ADD11C,0.152400*%
%ADD12C,0.050800*%
%ADD13C,0.101600*%
%ADD14C,0.203200*%
%ADD15R,0.200000X0.200000*%
%ADD16R,0.150000X0.250000*%
%ADD17C,0.200000*%
%ADD18C,0.254000*%
%ADD19C,0.025400*%
%ADD20C,0.000000*%
%ADD21C,0.100000*%


D10*
X873000Y34200D02*
X826200Y34200D01*
X826200Y79700D01*
X826200Y199700D02*
X826200Y245200D01*
X873000Y245200D01*
X930400Y34200D02*
X981200Y34200D01*
X981200Y84700D01*
X981200Y194700D02*
X981200Y245200D01*
X930400Y245200D01*
D11*
X796907Y39978D02*
X796907Y35462D01*
X796906Y39978D02*
X796908Y40111D01*
X796914Y40243D01*
X796924Y40375D01*
X796937Y40507D01*
X796955Y40639D01*
X796976Y40769D01*
X797001Y40900D01*
X797030Y41029D01*
X797063Y41157D01*
X797099Y41285D01*
X797139Y41411D01*
X797183Y41536D01*
X797231Y41660D01*
X797282Y41782D01*
X797337Y41903D01*
X797395Y42022D01*
X797457Y42140D01*
X797522Y42255D01*
X797591Y42369D01*
X797662Y42480D01*
X797738Y42589D01*
X797816Y42696D01*
X797897Y42801D01*
X797982Y42903D01*
X798069Y43003D01*
X798159Y43100D01*
X798252Y43195D01*
X798348Y43286D01*
X798446Y43375D01*
X798547Y43461D01*
X798651Y43544D01*
X798757Y43624D01*
X798865Y43700D01*
X798975Y43774D01*
X799088Y43844D01*
X799202Y43911D01*
X799319Y43974D01*
X799437Y44034D01*
X799557Y44091D01*
X799679Y44144D01*
X799802Y44193D01*
X799926Y44239D01*
X800052Y44281D01*
X800179Y44319D01*
X800307Y44354D01*
X800436Y44385D01*
X800565Y44412D01*
X800696Y44435D01*
X800827Y44455D01*
X800959Y44470D01*
X801091Y44482D01*
X801223Y44490D01*
X801356Y44494D01*
X801488Y44494D01*
X801621Y44490D01*
X801753Y44482D01*
X801885Y44470D01*
X802017Y44455D01*
X802148Y44435D01*
X802279Y44412D01*
X802408Y44385D01*
X802537Y44354D01*
X802665Y44319D01*
X802792Y44281D01*
X802918Y44239D01*
X803042Y44193D01*
X803165Y44144D01*
X803287Y44091D01*
X803407Y44034D01*
X803525Y43974D01*
X803642Y43911D01*
X803756Y43844D01*
X803869Y43774D01*
X803979Y43700D01*
X804087Y43624D01*
X804193Y43544D01*
X804297Y43461D01*
X804398Y43375D01*
X804496Y43286D01*
X804592Y43195D01*
X804685Y43100D01*
X804775Y43003D01*
X804862Y42903D01*
X804947Y42801D01*
X805028Y42696D01*
X805106Y42589D01*
X805182Y42480D01*
X805253Y42369D01*
X805322Y42255D01*
X805387Y42140D01*
X805449Y42022D01*
X805507Y41903D01*
X805562Y41782D01*
X805613Y41660D01*
X805661Y41536D01*
X805705Y41411D01*
X805745Y41285D01*
X805781Y41157D01*
X805814Y41029D01*
X805843Y40900D01*
X805868Y40769D01*
X805889Y40639D01*
X805907Y40507D01*
X805920Y40375D01*
X805930Y40243D01*
X805936Y40111D01*
X805938Y39978D01*
X805938Y35462D01*
X789682Y35462D01*
X789682Y39978D01*
X789684Y40097D01*
X789690Y40217D01*
X789700Y40336D01*
X789714Y40454D01*
X789731Y40573D01*
X789753Y40690D01*
X789778Y40807D01*
X789808Y40922D01*
X789841Y41037D01*
X789878Y41151D01*
X789918Y41263D01*
X789963Y41374D01*
X790011Y41483D01*
X790062Y41591D01*
X790117Y41697D01*
X790176Y41801D01*
X790238Y41903D01*
X790303Y42003D01*
X790372Y42101D01*
X790444Y42197D01*
X790519Y42290D01*
X790596Y42380D01*
X790677Y42468D01*
X790761Y42553D01*
X790848Y42635D01*
X790937Y42715D01*
X791029Y42791D01*
X791123Y42865D01*
X791220Y42935D01*
X791318Y43002D01*
X791419Y43066D01*
X791523Y43126D01*
X791628Y43183D01*
X791735Y43236D01*
X791843Y43286D01*
X791953Y43332D01*
X792065Y43374D01*
X792178Y43413D01*
X792292Y43448D01*
X792407Y43479D01*
X792524Y43507D01*
X792641Y43530D01*
X792758Y43550D01*
X792877Y43566D01*
X792996Y43578D01*
X793115Y43586D01*
X793234Y43590D01*
X793354Y43590D01*
X793473Y43586D01*
X793592Y43578D01*
X793711Y43566D01*
X793830Y43550D01*
X793947Y43530D01*
X794064Y43507D01*
X794181Y43479D01*
X794296Y43448D01*
X794410Y43413D01*
X794523Y43374D01*
X794635Y43332D01*
X794745Y43286D01*
X794853Y43236D01*
X794960Y43183D01*
X795065Y43126D01*
X795169Y43066D01*
X795270Y43002D01*
X795368Y42935D01*
X795465Y42865D01*
X795559Y42791D01*
X795651Y42715D01*
X795740Y42635D01*
X795827Y42553D01*
X795911Y42468D01*
X795992Y42380D01*
X796069Y42290D01*
X796144Y42197D01*
X796216Y42101D01*
X796285Y42003D01*
X796350Y41903D01*
X796412Y41801D01*
X796471Y41697D01*
X796526Y41591D01*
X796577Y41483D01*
X796625Y41374D01*
X796670Y41263D01*
X796710Y41151D01*
X796747Y41037D01*
X796780Y40922D01*
X796810Y40807D01*
X796835Y40690D01*
X796857Y40573D01*
X796874Y40454D01*
X796888Y40336D01*
X796898Y40217D01*
X796904Y40097D01*
X796906Y39978D01*
X789682Y53835D02*
X805938Y53835D01*
X789682Y49319D02*
X789682Y58350D01*
X793294Y63908D02*
X789682Y68424D01*
X805938Y68424D01*
X805938Y72939D02*
X805938Y63908D01*
D10*
X347500Y86600D02*
X347498Y86502D01*
X347492Y86404D01*
X347483Y86306D01*
X347469Y86209D01*
X347452Y86112D01*
X347431Y86016D01*
X347406Y85921D01*
X347378Y85827D01*
X347345Y85735D01*
X347310Y85643D01*
X347270Y85553D01*
X347228Y85465D01*
X347181Y85378D01*
X347132Y85294D01*
X347079Y85211D01*
X347023Y85131D01*
X346963Y85052D01*
X346901Y84976D01*
X346836Y84903D01*
X346768Y84832D01*
X346697Y84764D01*
X346624Y84699D01*
X346548Y84637D01*
X346469Y84577D01*
X346389Y84521D01*
X346306Y84468D01*
X346222Y84419D01*
X346135Y84372D01*
X346047Y84330D01*
X345957Y84290D01*
X345865Y84255D01*
X345773Y84222D01*
X345679Y84194D01*
X345584Y84169D01*
X345488Y84148D01*
X345391Y84131D01*
X345294Y84117D01*
X345196Y84108D01*
X345098Y84102D01*
X345000Y84100D01*
X290000Y84100D01*
X289902Y84102D01*
X289804Y84108D01*
X289706Y84117D01*
X289609Y84131D01*
X289512Y84148D01*
X289416Y84169D01*
X289321Y84194D01*
X289227Y84222D01*
X289135Y84255D01*
X289043Y84290D01*
X288953Y84330D01*
X288865Y84372D01*
X288778Y84419D01*
X288694Y84468D01*
X288611Y84521D01*
X288531Y84577D01*
X288452Y84637D01*
X288376Y84699D01*
X288303Y84764D01*
X288232Y84832D01*
X288164Y84903D01*
X288099Y84976D01*
X288037Y85052D01*
X287977Y85131D01*
X287921Y85211D01*
X287868Y85294D01*
X287819Y85378D01*
X287772Y85465D01*
X287730Y85553D01*
X287690Y85643D01*
X287655Y85735D01*
X287622Y85827D01*
X287594Y85921D01*
X287569Y86016D01*
X287548Y86112D01*
X287531Y86209D01*
X287517Y86306D01*
X287508Y86404D01*
X287502Y86502D01*
X287500Y86600D01*
X287500Y116600D02*
X287520Y116707D01*
X287544Y116813D01*
X287571Y116918D01*
X287602Y117022D01*
X287637Y117125D01*
X287675Y117226D01*
X287717Y117326D01*
X287763Y117425D01*
X287812Y117522D01*
X287864Y117617D01*
X287920Y117710D01*
X287979Y117801D01*
X288041Y117890D01*
X288107Y117976D01*
X288175Y118061D01*
X288247Y118142D01*
X288321Y118221D01*
X288398Y118298D01*
X288478Y118371D01*
X288560Y118442D01*
X288645Y118510D01*
X288732Y118575D01*
X288822Y118636D01*
X288913Y118694D01*
X289007Y118749D01*
X289103Y118801D01*
X289200Y118849D01*
X289299Y118894D01*
X289399Y118935D01*
X289501Y118972D01*
X289604Y119006D01*
X289709Y119036D01*
X289814Y119063D01*
X289920Y119085D01*
X290027Y119104D01*
X290135Y119119D01*
X290243Y119130D01*
X290351Y119137D01*
X290459Y119141D01*
X290568Y119140D01*
X290676Y119136D01*
X290785Y119128D01*
X290893Y119116D01*
X291000Y119100D01*
X345000Y119100D01*
X345098Y119098D01*
X345196Y119092D01*
X345294Y119083D01*
X345391Y119069D01*
X345488Y119052D01*
X345584Y119031D01*
X345679Y119006D01*
X345773Y118978D01*
X345865Y118945D01*
X345957Y118910D01*
X346047Y118870D01*
X346135Y118828D01*
X346222Y118781D01*
X346306Y118732D01*
X346389Y118679D01*
X346469Y118623D01*
X346548Y118563D01*
X346624Y118501D01*
X346697Y118436D01*
X346768Y118368D01*
X346836Y118297D01*
X346901Y118224D01*
X346963Y118148D01*
X347023Y118069D01*
X347079Y117989D01*
X347132Y117906D01*
X347181Y117822D01*
X347228Y117735D01*
X347270Y117647D01*
X347310Y117557D01*
X347345Y117465D01*
X347378Y117373D01*
X347406Y117279D01*
X347431Y117184D01*
X347452Y117088D01*
X347469Y116991D01*
X347483Y116894D01*
X347492Y116796D01*
X347498Y116698D01*
X347500Y116600D01*
X347500Y112600D01*
X347500Y90600D02*
X347500Y86600D01*
X287500Y86600D02*
X287500Y90600D01*
X287500Y112600D02*
X287500Y116600D01*
X302500Y94100D02*
X332500Y94100D01*
X332500Y109100D02*
X302500Y109100D01*
X332500Y109100D02*
X332500Y94100D01*
X302500Y94100D02*
X302500Y109100D01*
D12*
X303383Y78185D02*
X305359Y78185D01*
X305359Y78186D02*
X305446Y78184D01*
X305534Y78178D01*
X305621Y78169D01*
X305707Y78155D01*
X305793Y78138D01*
X305877Y78117D01*
X305961Y78092D01*
X306044Y78063D01*
X306125Y78031D01*
X306205Y77996D01*
X306283Y77957D01*
X306360Y77914D01*
X306434Y77868D01*
X306506Y77819D01*
X306576Y77767D01*
X306644Y77711D01*
X306709Y77653D01*
X306772Y77592D01*
X306831Y77528D01*
X306888Y77461D01*
X306942Y77393D01*
X306993Y77321D01*
X307040Y77248D01*
X307085Y77173D01*
X307126Y77095D01*
X307163Y77016D01*
X307197Y76936D01*
X307227Y76854D01*
X307254Y76771D01*
X307277Y76686D01*
X307296Y76601D01*
X307311Y76515D01*
X307323Y76428D01*
X307331Y76341D01*
X307335Y76254D01*
X307335Y76166D01*
X307331Y76079D01*
X307323Y75992D01*
X307311Y75905D01*
X307296Y75819D01*
X307277Y75734D01*
X307254Y75649D01*
X307227Y75566D01*
X307197Y75484D01*
X307163Y75404D01*
X307126Y75325D01*
X307085Y75247D01*
X307040Y75172D01*
X306993Y75099D01*
X306942Y75027D01*
X306888Y74959D01*
X306831Y74892D01*
X306772Y74828D01*
X306709Y74767D01*
X306644Y74709D01*
X306576Y74653D01*
X306506Y74601D01*
X306434Y74552D01*
X306360Y74506D01*
X306283Y74463D01*
X306205Y74424D01*
X306125Y74389D01*
X306044Y74357D01*
X305961Y74328D01*
X305877Y74303D01*
X305793Y74282D01*
X305707Y74265D01*
X305621Y74251D01*
X305534Y74242D01*
X305446Y74236D01*
X305359Y74234D01*
X303383Y74234D01*
X303383Y81346D01*
X305359Y81346D01*
X305438Y81344D01*
X305516Y81338D01*
X305594Y81328D01*
X305672Y81315D01*
X305749Y81297D01*
X305825Y81276D01*
X305899Y81251D01*
X305973Y81222D01*
X306045Y81190D01*
X306115Y81154D01*
X306183Y81114D01*
X306249Y81071D01*
X306313Y81025D01*
X306375Y80976D01*
X306434Y80924D01*
X306490Y80869D01*
X306544Y80811D01*
X306594Y80751D01*
X306642Y80688D01*
X306686Y80623D01*
X306727Y80556D01*
X306765Y80487D01*
X306799Y80416D01*
X306830Y80343D01*
X306857Y80269D01*
X306880Y80194D01*
X306899Y80118D01*
X306915Y80040D01*
X306927Y79962D01*
X306935Y79884D01*
X306939Y79805D01*
X306939Y79727D01*
X306935Y79648D01*
X306927Y79570D01*
X306915Y79492D01*
X306899Y79414D01*
X306880Y79338D01*
X306857Y79263D01*
X306830Y79189D01*
X306799Y79116D01*
X306765Y79045D01*
X306727Y78976D01*
X306686Y78909D01*
X306642Y78844D01*
X306594Y78781D01*
X306544Y78721D01*
X306490Y78663D01*
X306434Y78608D01*
X306375Y78556D01*
X306313Y78507D01*
X306249Y78461D01*
X306183Y78418D01*
X306115Y78378D01*
X306045Y78342D01*
X305973Y78310D01*
X305899Y78281D01*
X305825Y78256D01*
X305749Y78235D01*
X305672Y78217D01*
X305594Y78204D01*
X305516Y78194D01*
X305438Y78188D01*
X305359Y78186D01*
X310148Y76210D02*
X310148Y81346D01*
X310148Y76210D02*
X310150Y76123D01*
X310156Y76035D01*
X310165Y75948D01*
X310179Y75862D01*
X310196Y75776D01*
X310217Y75692D01*
X310242Y75608D01*
X310271Y75525D01*
X310303Y75444D01*
X310338Y75364D01*
X310377Y75286D01*
X310420Y75209D01*
X310466Y75135D01*
X310515Y75063D01*
X310567Y74993D01*
X310623Y74925D01*
X310681Y74860D01*
X310742Y74797D01*
X310806Y74738D01*
X310873Y74681D01*
X310941Y74627D01*
X311013Y74576D01*
X311086Y74529D01*
X311161Y74484D01*
X311239Y74443D01*
X311318Y74406D01*
X311398Y74372D01*
X311480Y74342D01*
X311563Y74315D01*
X311648Y74292D01*
X311733Y74273D01*
X311819Y74258D01*
X311906Y74246D01*
X311993Y74238D01*
X312080Y74234D01*
X312168Y74234D01*
X312255Y74238D01*
X312342Y74246D01*
X312429Y74258D01*
X312515Y74273D01*
X312600Y74292D01*
X312685Y74315D01*
X312768Y74342D01*
X312850Y74372D01*
X312930Y74406D01*
X313009Y74443D01*
X313087Y74484D01*
X313162Y74529D01*
X313235Y74576D01*
X313307Y74627D01*
X313375Y74681D01*
X313442Y74738D01*
X313506Y74797D01*
X313567Y74860D01*
X313625Y74925D01*
X313681Y74993D01*
X313733Y75063D01*
X313782Y75135D01*
X313828Y75209D01*
X313871Y75286D01*
X313910Y75364D01*
X313945Y75444D01*
X313977Y75525D01*
X314006Y75608D01*
X314031Y75692D01*
X314052Y75776D01*
X314069Y75862D01*
X314083Y75948D01*
X314092Y76035D01*
X314098Y76123D01*
X314100Y76210D01*
X314099Y76210D02*
X314099Y81346D01*
X318753Y81346D02*
X318753Y74234D01*
X316777Y81346D02*
X320729Y81346D01*
X324697Y81346D02*
X324697Y74234D01*
X322721Y81346D02*
X326672Y81346D01*
X329122Y79370D02*
X329122Y76210D01*
X329121Y79370D02*
X329123Y79457D01*
X329129Y79545D01*
X329138Y79632D01*
X329152Y79718D01*
X329169Y79804D01*
X329190Y79888D01*
X329215Y79972D01*
X329244Y80055D01*
X329276Y80136D01*
X329311Y80216D01*
X329350Y80294D01*
X329393Y80371D01*
X329439Y80445D01*
X329488Y80517D01*
X329540Y80587D01*
X329596Y80655D01*
X329654Y80720D01*
X329715Y80783D01*
X329779Y80842D01*
X329846Y80899D01*
X329914Y80953D01*
X329986Y81004D01*
X330059Y81051D01*
X330134Y81096D01*
X330212Y81137D01*
X330291Y81174D01*
X330371Y81208D01*
X330453Y81238D01*
X330536Y81265D01*
X330621Y81288D01*
X330706Y81307D01*
X330792Y81322D01*
X330879Y81334D01*
X330966Y81342D01*
X331053Y81346D01*
X331141Y81346D01*
X331228Y81342D01*
X331315Y81334D01*
X331402Y81322D01*
X331488Y81307D01*
X331573Y81288D01*
X331658Y81265D01*
X331741Y81238D01*
X331823Y81208D01*
X331903Y81174D01*
X331982Y81137D01*
X332060Y81096D01*
X332135Y81051D01*
X332208Y81004D01*
X332280Y80953D01*
X332348Y80899D01*
X332415Y80842D01*
X332479Y80783D01*
X332540Y80720D01*
X332598Y80655D01*
X332654Y80587D01*
X332706Y80517D01*
X332755Y80445D01*
X332801Y80371D01*
X332844Y80294D01*
X332883Y80216D01*
X332918Y80136D01*
X332950Y80055D01*
X332979Y79972D01*
X333004Y79888D01*
X333025Y79804D01*
X333042Y79718D01*
X333056Y79632D01*
X333065Y79545D01*
X333071Y79457D01*
X333073Y79370D01*
X333073Y76210D01*
X333071Y76123D01*
X333065Y76035D01*
X333056Y75948D01*
X333042Y75862D01*
X333025Y75776D01*
X333004Y75692D01*
X332979Y75608D01*
X332950Y75525D01*
X332918Y75444D01*
X332883Y75364D01*
X332844Y75286D01*
X332801Y75209D01*
X332755Y75135D01*
X332706Y75063D01*
X332654Y74993D01*
X332598Y74925D01*
X332540Y74860D01*
X332479Y74797D01*
X332415Y74738D01*
X332348Y74681D01*
X332280Y74627D01*
X332208Y74576D01*
X332135Y74529D01*
X332060Y74484D01*
X331982Y74443D01*
X331903Y74406D01*
X331823Y74372D01*
X331741Y74342D01*
X331658Y74315D01*
X331573Y74292D01*
X331488Y74273D01*
X331402Y74258D01*
X331315Y74246D01*
X331228Y74238D01*
X331141Y74234D01*
X331053Y74234D01*
X330966Y74238D01*
X330879Y74246D01*
X330792Y74258D01*
X330706Y74273D01*
X330621Y74292D01*
X330536Y74315D01*
X330453Y74342D01*
X330371Y74372D01*
X330291Y74406D01*
X330212Y74443D01*
X330134Y74484D01*
X330059Y74529D01*
X329986Y74576D01*
X329914Y74627D01*
X329846Y74681D01*
X329779Y74738D01*
X329715Y74797D01*
X329654Y74860D01*
X329596Y74925D01*
X329540Y74993D01*
X329488Y75063D01*
X329439Y75135D01*
X329393Y75209D01*
X329350Y75286D01*
X329311Y75364D01*
X329276Y75444D01*
X329244Y75525D01*
X329215Y75608D01*
X329190Y75692D01*
X329169Y75776D01*
X329152Y75862D01*
X329138Y75948D01*
X329129Y76035D01*
X329123Y76123D01*
X329121Y76210D01*
X336208Y74234D02*
X336208Y81346D01*
X340159Y74234D01*
X340159Y81346D01*
X343295Y79766D02*
X345270Y81346D01*
X345270Y74234D01*
X343295Y74234D02*
X347246Y74234D01*
D10*
X347500Y35800D02*
X347498Y35702D01*
X347492Y35604D01*
X347483Y35506D01*
X347469Y35409D01*
X347452Y35312D01*
X347431Y35216D01*
X347406Y35121D01*
X347378Y35027D01*
X347345Y34935D01*
X347310Y34843D01*
X347270Y34753D01*
X347228Y34665D01*
X347181Y34578D01*
X347132Y34494D01*
X347079Y34411D01*
X347023Y34331D01*
X346963Y34252D01*
X346901Y34176D01*
X346836Y34103D01*
X346768Y34032D01*
X346697Y33964D01*
X346624Y33899D01*
X346548Y33837D01*
X346469Y33777D01*
X346389Y33721D01*
X346306Y33668D01*
X346222Y33619D01*
X346135Y33572D01*
X346047Y33530D01*
X345957Y33490D01*
X345865Y33455D01*
X345773Y33422D01*
X345679Y33394D01*
X345584Y33369D01*
X345488Y33348D01*
X345391Y33331D01*
X345294Y33317D01*
X345196Y33308D01*
X345098Y33302D01*
X345000Y33300D01*
X290000Y33300D01*
X289902Y33302D01*
X289804Y33308D01*
X289706Y33317D01*
X289609Y33331D01*
X289512Y33348D01*
X289416Y33369D01*
X289321Y33394D01*
X289227Y33422D01*
X289135Y33455D01*
X289043Y33490D01*
X288953Y33530D01*
X288865Y33572D01*
X288778Y33619D01*
X288694Y33668D01*
X288611Y33721D01*
X288531Y33777D01*
X288452Y33837D01*
X288376Y33899D01*
X288303Y33964D01*
X288232Y34032D01*
X288164Y34103D01*
X288099Y34176D01*
X288037Y34252D01*
X287977Y34331D01*
X287921Y34411D01*
X287868Y34494D01*
X287819Y34578D01*
X287772Y34665D01*
X287730Y34753D01*
X287690Y34843D01*
X287655Y34935D01*
X287622Y35027D01*
X287594Y35121D01*
X287569Y35216D01*
X287548Y35312D01*
X287531Y35409D01*
X287517Y35506D01*
X287508Y35604D01*
X287502Y35702D01*
X287500Y35800D01*
X287500Y65800D02*
X287520Y65907D01*
X287544Y66013D01*
X287571Y66118D01*
X287602Y66222D01*
X287637Y66325D01*
X287675Y66426D01*
X287717Y66526D01*
X287763Y66625D01*
X287812Y66722D01*
X287864Y66817D01*
X287920Y66910D01*
X287979Y67001D01*
X288041Y67090D01*
X288107Y67176D01*
X288175Y67261D01*
X288247Y67342D01*
X288321Y67421D01*
X288398Y67498D01*
X288478Y67571D01*
X288560Y67642D01*
X288645Y67710D01*
X288732Y67775D01*
X288822Y67836D01*
X288913Y67894D01*
X289007Y67949D01*
X289103Y68001D01*
X289200Y68049D01*
X289299Y68094D01*
X289399Y68135D01*
X289501Y68172D01*
X289604Y68206D01*
X289709Y68236D01*
X289814Y68263D01*
X289920Y68285D01*
X290027Y68304D01*
X290135Y68319D01*
X290243Y68330D01*
X290351Y68337D01*
X290459Y68341D01*
X290568Y68340D01*
X290676Y68336D01*
X290785Y68328D01*
X290893Y68316D01*
X291000Y68300D01*
X345000Y68300D01*
X345098Y68298D01*
X345196Y68292D01*
X345294Y68283D01*
X345391Y68269D01*
X345488Y68252D01*
X345584Y68231D01*
X345679Y68206D01*
X345773Y68178D01*
X345865Y68145D01*
X345957Y68110D01*
X346047Y68070D01*
X346135Y68028D01*
X346222Y67981D01*
X346306Y67932D01*
X346389Y67879D01*
X346469Y67823D01*
X346548Y67763D01*
X346624Y67701D01*
X346697Y67636D01*
X346768Y67568D01*
X346836Y67497D01*
X346901Y67424D01*
X346963Y67348D01*
X347023Y67269D01*
X347079Y67189D01*
X347132Y67106D01*
X347181Y67022D01*
X347228Y66935D01*
X347270Y66847D01*
X347310Y66757D01*
X347345Y66665D01*
X347378Y66573D01*
X347406Y66479D01*
X347431Y66384D01*
X347452Y66288D01*
X347469Y66191D01*
X347483Y66094D01*
X347492Y65996D01*
X347498Y65898D01*
X347500Y65800D01*
X347500Y61800D01*
X347500Y39800D02*
X347500Y35800D01*
X287500Y35800D02*
X287500Y39800D01*
X287500Y61800D02*
X287500Y65800D01*
X302500Y43300D02*
X332500Y43300D01*
X332500Y58300D02*
X302500Y58300D01*
X332500Y58300D02*
X332500Y43300D01*
X302500Y43300D02*
X302500Y58300D01*
D12*
X303383Y27385D02*
X305359Y27385D01*
X305359Y27386D02*
X305446Y27384D01*
X305534Y27378D01*
X305621Y27369D01*
X305707Y27355D01*
X305793Y27338D01*
X305877Y27317D01*
X305961Y27292D01*
X306044Y27263D01*
X306125Y27231D01*
X306205Y27196D01*
X306283Y27157D01*
X306360Y27114D01*
X306434Y27068D01*
X306506Y27019D01*
X306576Y26967D01*
X306644Y26911D01*
X306709Y26853D01*
X306772Y26792D01*
X306831Y26728D01*
X306888Y26661D01*
X306942Y26593D01*
X306993Y26521D01*
X307040Y26448D01*
X307085Y26373D01*
X307126Y26295D01*
X307163Y26216D01*
X307197Y26136D01*
X307227Y26054D01*
X307254Y25971D01*
X307277Y25886D01*
X307296Y25801D01*
X307311Y25715D01*
X307323Y25628D01*
X307331Y25541D01*
X307335Y25454D01*
X307335Y25366D01*
X307331Y25279D01*
X307323Y25192D01*
X307311Y25105D01*
X307296Y25019D01*
X307277Y24934D01*
X307254Y24849D01*
X307227Y24766D01*
X307197Y24684D01*
X307163Y24604D01*
X307126Y24525D01*
X307085Y24447D01*
X307040Y24372D01*
X306993Y24299D01*
X306942Y24227D01*
X306888Y24159D01*
X306831Y24092D01*
X306772Y24028D01*
X306709Y23967D01*
X306644Y23909D01*
X306576Y23853D01*
X306506Y23801D01*
X306434Y23752D01*
X306360Y23706D01*
X306283Y23663D01*
X306205Y23624D01*
X306125Y23589D01*
X306044Y23557D01*
X305961Y23528D01*
X305877Y23503D01*
X305793Y23482D01*
X305707Y23465D01*
X305621Y23451D01*
X305534Y23442D01*
X305446Y23436D01*
X305359Y23434D01*
X303383Y23434D01*
X303383Y30546D01*
X305359Y30546D01*
X305438Y30544D01*
X305516Y30538D01*
X305594Y30528D01*
X305672Y30515D01*
X305749Y30497D01*
X305825Y30476D01*
X305899Y30451D01*
X305973Y30422D01*
X306045Y30390D01*
X306115Y30354D01*
X306183Y30314D01*
X306249Y30271D01*
X306313Y30225D01*
X306375Y30176D01*
X306434Y30124D01*
X306490Y30069D01*
X306544Y30011D01*
X306594Y29951D01*
X306642Y29888D01*
X306686Y29823D01*
X306727Y29756D01*
X306765Y29687D01*
X306799Y29616D01*
X306830Y29543D01*
X306857Y29469D01*
X306880Y29394D01*
X306899Y29318D01*
X306915Y29240D01*
X306927Y29162D01*
X306935Y29084D01*
X306939Y29005D01*
X306939Y28927D01*
X306935Y28848D01*
X306927Y28770D01*
X306915Y28692D01*
X306899Y28614D01*
X306880Y28538D01*
X306857Y28463D01*
X306830Y28389D01*
X306799Y28316D01*
X306765Y28245D01*
X306727Y28176D01*
X306686Y28109D01*
X306642Y28044D01*
X306594Y27981D01*
X306544Y27921D01*
X306490Y27863D01*
X306434Y27808D01*
X306375Y27756D01*
X306313Y27707D01*
X306249Y27661D01*
X306183Y27618D01*
X306115Y27578D01*
X306045Y27542D01*
X305973Y27510D01*
X305899Y27481D01*
X305825Y27456D01*
X305749Y27435D01*
X305672Y27417D01*
X305594Y27404D01*
X305516Y27394D01*
X305438Y27388D01*
X305359Y27386D01*
X310148Y25410D02*
X310148Y30546D01*
X310148Y25410D02*
X310150Y25323D01*
X310156Y25235D01*
X310165Y25148D01*
X310179Y25062D01*
X310196Y24976D01*
X310217Y24892D01*
X310242Y24808D01*
X310271Y24725D01*
X310303Y24644D01*
X310338Y24564D01*
X310377Y24486D01*
X310420Y24409D01*
X310466Y24335D01*
X310515Y24263D01*
X310567Y24193D01*
X310623Y24125D01*
X310681Y24060D01*
X310742Y23997D01*
X310806Y23938D01*
X310873Y23881D01*
X310941Y23827D01*
X311013Y23776D01*
X311086Y23729D01*
X311161Y23684D01*
X311239Y23643D01*
X311318Y23606D01*
X311398Y23572D01*
X311480Y23542D01*
X311563Y23515D01*
X311648Y23492D01*
X311733Y23473D01*
X311819Y23458D01*
X311906Y23446D01*
X311993Y23438D01*
X312080Y23434D01*
X312168Y23434D01*
X312255Y23438D01*
X312342Y23446D01*
X312429Y23458D01*
X312515Y23473D01*
X312600Y23492D01*
X312685Y23515D01*
X312768Y23542D01*
X312850Y23572D01*
X312930Y23606D01*
X313009Y23643D01*
X313087Y23684D01*
X313162Y23729D01*
X313235Y23776D01*
X313307Y23827D01*
X313375Y23881D01*
X313442Y23938D01*
X313506Y23997D01*
X313567Y24060D01*
X313625Y24125D01*
X313681Y24193D01*
X313733Y24263D01*
X313782Y24335D01*
X313828Y24409D01*
X313871Y24486D01*
X313910Y24564D01*
X313945Y24644D01*
X313977Y24725D01*
X314006Y24808D01*
X314031Y24892D01*
X314052Y24976D01*
X314069Y25062D01*
X314083Y25148D01*
X314092Y25235D01*
X314098Y25323D01*
X314100Y25410D01*
X314099Y25410D02*
X314099Y30546D01*
X318753Y30546D02*
X318753Y23434D01*
X316777Y30546D02*
X320729Y30546D01*
X324697Y30546D02*
X324697Y23434D01*
X322721Y30546D02*
X326672Y30546D01*
X329122Y28570D02*
X329122Y25410D01*
X329121Y28570D02*
X329123Y28657D01*
X329129Y28745D01*
X329138Y28832D01*
X329152Y28918D01*
X329169Y29004D01*
X329190Y29088D01*
X329215Y29172D01*
X329244Y29255D01*
X329276Y29336D01*
X329311Y29416D01*
X329350Y29494D01*
X329393Y29571D01*
X329439Y29645D01*
X329488Y29717D01*
X329540Y29787D01*
X329596Y29855D01*
X329654Y29920D01*
X329715Y29983D01*
X329779Y30042D01*
X329846Y30099D01*
X329914Y30153D01*
X329986Y30204D01*
X330059Y30251D01*
X330134Y30296D01*
X330212Y30337D01*
X330291Y30374D01*
X330371Y30408D01*
X330453Y30438D01*
X330536Y30465D01*
X330621Y30488D01*
X330706Y30507D01*
X330792Y30522D01*
X330879Y30534D01*
X330966Y30542D01*
X331053Y30546D01*
X331141Y30546D01*
X331228Y30542D01*
X331315Y30534D01*
X331402Y30522D01*
X331488Y30507D01*
X331573Y30488D01*
X331658Y30465D01*
X331741Y30438D01*
X331823Y30408D01*
X331903Y30374D01*
X331982Y30337D01*
X332060Y30296D01*
X332135Y30251D01*
X332208Y30204D01*
X332280Y30153D01*
X332348Y30099D01*
X332415Y30042D01*
X332479Y29983D01*
X332540Y29920D01*
X332598Y29855D01*
X332654Y29787D01*
X332706Y29717D01*
X332755Y29645D01*
X332801Y29571D01*
X332844Y29494D01*
X332883Y29416D01*
X332918Y29336D01*
X332950Y29255D01*
X332979Y29172D01*
X333004Y29088D01*
X333025Y29004D01*
X333042Y28918D01*
X333056Y28832D01*
X333065Y28745D01*
X333071Y28657D01*
X333073Y28570D01*
X333073Y25410D01*
X333071Y25323D01*
X333065Y25235D01*
X333056Y25148D01*
X333042Y25062D01*
X333025Y24976D01*
X333004Y24892D01*
X332979Y24808D01*
X332950Y24725D01*
X332918Y24644D01*
X332883Y24564D01*
X332844Y24486D01*
X332801Y24409D01*
X332755Y24335D01*
X332706Y24263D01*
X332654Y24193D01*
X332598Y24125D01*
X332540Y24060D01*
X332479Y23997D01*
X332415Y23938D01*
X332348Y23881D01*
X332280Y23827D01*
X332208Y23776D01*
X332135Y23729D01*
X332060Y23684D01*
X331982Y23643D01*
X331903Y23606D01*
X331823Y23572D01*
X331741Y23542D01*
X331658Y23515D01*
X331573Y23492D01*
X331488Y23473D01*
X331402Y23458D01*
X331315Y23446D01*
X331228Y23438D01*
X331141Y23434D01*
X331053Y23434D01*
X330966Y23438D01*
X330879Y23446D01*
X330792Y23458D01*
X330706Y23473D01*
X330621Y23492D01*
X330536Y23515D01*
X330453Y23542D01*
X330371Y23572D01*
X330291Y23606D01*
X330212Y23643D01*
X330134Y23684D01*
X330059Y23729D01*
X329986Y23776D01*
X329914Y23827D01*
X329846Y23881D01*
X329779Y23938D01*
X329715Y23997D01*
X329654Y24060D01*
X329596Y24125D01*
X329540Y24193D01*
X329488Y24263D01*
X329439Y24335D01*
X329393Y24409D01*
X329350Y24486D01*
X329311Y24564D01*
X329276Y24644D01*
X329244Y24725D01*
X329215Y24808D01*
X329190Y24892D01*
X329169Y24976D01*
X329152Y25062D01*
X329138Y25148D01*
X329129Y25235D01*
X329123Y25323D01*
X329121Y25410D01*
X336208Y23434D02*
X336208Y30546D01*
X340159Y23434D01*
X340159Y30546D01*
X345468Y30546D02*
X345550Y30544D01*
X345632Y30538D01*
X345714Y30529D01*
X345795Y30516D01*
X345875Y30499D01*
X345955Y30478D01*
X346033Y30454D01*
X346110Y30426D01*
X346186Y30395D01*
X346261Y30360D01*
X346333Y30321D01*
X346404Y30280D01*
X346473Y30235D01*
X346539Y30187D01*
X346604Y30136D01*
X346666Y30082D01*
X346725Y30025D01*
X346782Y29966D01*
X346836Y29904D01*
X346887Y29839D01*
X346935Y29773D01*
X346980Y29704D01*
X347021Y29633D01*
X347060Y29561D01*
X347095Y29486D01*
X347126Y29410D01*
X347154Y29333D01*
X347178Y29255D01*
X347199Y29175D01*
X347216Y29095D01*
X347229Y29014D01*
X347238Y28932D01*
X347244Y28850D01*
X347246Y28768D01*
X345468Y30546D02*
X345375Y30544D01*
X345283Y30538D01*
X345191Y30529D01*
X345099Y30516D01*
X345008Y30499D01*
X344918Y30479D01*
X344828Y30455D01*
X344740Y30427D01*
X344652Y30395D01*
X344567Y30361D01*
X344482Y30322D01*
X344400Y30281D01*
X344319Y30236D01*
X344239Y30187D01*
X344162Y30136D01*
X344087Y30082D01*
X344015Y30024D01*
X343945Y29964D01*
X343877Y29900D01*
X343812Y29835D01*
X343749Y29766D01*
X343690Y29695D01*
X343633Y29622D01*
X343579Y29546D01*
X343529Y29469D01*
X343481Y29389D01*
X343437Y29308D01*
X343397Y29224D01*
X343359Y29140D01*
X343325Y29053D01*
X343295Y28966D01*
X346653Y27385D02*
X346714Y27446D01*
X346772Y27509D01*
X346827Y27575D01*
X346880Y27643D01*
X346929Y27714D01*
X346974Y27786D01*
X347017Y27861D01*
X347056Y27937D01*
X347092Y28016D01*
X347124Y28095D01*
X347152Y28176D01*
X347177Y28259D01*
X347198Y28342D01*
X347215Y28426D01*
X347229Y28511D01*
X347238Y28596D01*
X347244Y28682D01*
X347246Y28768D01*
X346653Y27385D02*
X343295Y23434D01*
X347246Y23434D01*
D13*
X736092Y125739D02*
X736092Y128336D01*
X736092Y125739D02*
X736090Y125640D01*
X736084Y125540D01*
X736075Y125441D01*
X736062Y125343D01*
X736045Y125245D01*
X736024Y125147D01*
X735999Y125051D01*
X735971Y124956D01*
X735939Y124862D01*
X735904Y124769D01*
X735865Y124677D01*
X735822Y124587D01*
X735777Y124499D01*
X735727Y124412D01*
X735675Y124328D01*
X735619Y124245D01*
X735561Y124165D01*
X735499Y124087D01*
X735434Y124012D01*
X735366Y123939D01*
X735296Y123869D01*
X735223Y123801D01*
X735148Y123736D01*
X735070Y123674D01*
X734990Y123616D01*
X734907Y123560D01*
X734823Y123508D01*
X734736Y123458D01*
X734648Y123413D01*
X734558Y123370D01*
X734466Y123331D01*
X734373Y123296D01*
X734279Y123264D01*
X734184Y123236D01*
X734088Y123211D01*
X733990Y123190D01*
X733892Y123173D01*
X733794Y123160D01*
X733695Y123151D01*
X733595Y123145D01*
X733496Y123143D01*
X727004Y123143D01*
X727004Y123142D02*
X726905Y123144D01*
X726805Y123150D01*
X726706Y123159D01*
X726608Y123172D01*
X726510Y123190D01*
X726412Y123210D01*
X726316Y123235D01*
X726220Y123263D01*
X726126Y123295D01*
X726033Y123330D01*
X725942Y123369D01*
X725852Y123412D01*
X725763Y123457D01*
X725677Y123507D01*
X725592Y123559D01*
X725510Y123615D01*
X725430Y123674D01*
X725352Y123735D01*
X725276Y123800D01*
X725203Y123868D01*
X725133Y123938D01*
X725065Y124011D01*
X725000Y124087D01*
X724939Y124165D01*
X724880Y124245D01*
X724824Y124327D01*
X724772Y124412D01*
X724723Y124498D01*
X724677Y124587D01*
X724634Y124677D01*
X724595Y124768D01*
X724560Y124861D01*
X724528Y124955D01*
X724500Y125051D01*
X724475Y125147D01*
X724455Y125245D01*
X724437Y125343D01*
X724424Y125441D01*
X724415Y125540D01*
X724409Y125639D01*
X724407Y125739D01*
X724408Y125739D02*
X724408Y128336D01*
X727004Y132701D02*
X724408Y135946D01*
X736092Y135946D01*
X736092Y132701D02*
X736092Y139192D01*
X431292Y193604D02*
X431292Y196201D01*
X431292Y193604D02*
X431290Y193505D01*
X431284Y193405D01*
X431275Y193306D01*
X431262Y193208D01*
X431245Y193110D01*
X431224Y193012D01*
X431199Y192916D01*
X431171Y192821D01*
X431139Y192727D01*
X431104Y192634D01*
X431065Y192542D01*
X431022Y192452D01*
X430977Y192364D01*
X430927Y192277D01*
X430875Y192193D01*
X430819Y192110D01*
X430761Y192030D01*
X430699Y191952D01*
X430634Y191877D01*
X430566Y191804D01*
X430496Y191734D01*
X430423Y191666D01*
X430348Y191601D01*
X430270Y191539D01*
X430190Y191481D01*
X430107Y191425D01*
X430023Y191373D01*
X429936Y191323D01*
X429848Y191278D01*
X429758Y191235D01*
X429666Y191196D01*
X429573Y191161D01*
X429479Y191129D01*
X429384Y191101D01*
X429288Y191076D01*
X429190Y191055D01*
X429092Y191038D01*
X428994Y191025D01*
X428895Y191016D01*
X428795Y191010D01*
X428696Y191008D01*
X422204Y191008D01*
X422105Y191010D01*
X422005Y191016D01*
X421906Y191025D01*
X421808Y191038D01*
X421710Y191056D01*
X421612Y191076D01*
X421516Y191101D01*
X421420Y191129D01*
X421326Y191161D01*
X421233Y191196D01*
X421142Y191235D01*
X421052Y191278D01*
X420963Y191323D01*
X420877Y191373D01*
X420792Y191425D01*
X420710Y191481D01*
X420630Y191540D01*
X420552Y191601D01*
X420476Y191666D01*
X420403Y191734D01*
X420333Y191804D01*
X420265Y191877D01*
X420200Y191953D01*
X420139Y192031D01*
X420080Y192111D01*
X420024Y192193D01*
X419972Y192278D01*
X419923Y192364D01*
X419877Y192453D01*
X419834Y192543D01*
X419795Y192634D01*
X419760Y192727D01*
X419728Y192821D01*
X419700Y192917D01*
X419675Y193013D01*
X419655Y193111D01*
X419637Y193209D01*
X419624Y193307D01*
X419615Y193406D01*
X419609Y193505D01*
X419607Y193605D01*
X419608Y193604D02*
X419608Y196201D01*
X419608Y204136D02*
X419610Y204243D01*
X419616Y204349D01*
X419626Y204455D01*
X419639Y204561D01*
X419657Y204667D01*
X419678Y204771D01*
X419703Y204875D01*
X419732Y204978D01*
X419764Y205079D01*
X419801Y205179D01*
X419841Y205278D01*
X419884Y205376D01*
X419931Y205472D01*
X419982Y205566D01*
X420036Y205658D01*
X420093Y205748D01*
X420153Y205836D01*
X420217Y205921D01*
X420284Y206004D01*
X420354Y206085D01*
X420426Y206163D01*
X420502Y206239D01*
X420580Y206311D01*
X420661Y206381D01*
X420744Y206448D01*
X420829Y206512D01*
X420917Y206572D01*
X421007Y206629D01*
X421099Y206683D01*
X421193Y206734D01*
X421289Y206781D01*
X421387Y206824D01*
X421486Y206864D01*
X421586Y206901D01*
X421687Y206933D01*
X421790Y206962D01*
X421894Y206987D01*
X421998Y207008D01*
X422104Y207026D01*
X422210Y207039D01*
X422316Y207049D01*
X422422Y207055D01*
X422529Y207057D01*
X419608Y204136D02*
X419610Y204015D01*
X419616Y203894D01*
X419626Y203774D01*
X419639Y203653D01*
X419657Y203534D01*
X419678Y203414D01*
X419703Y203296D01*
X419732Y203179D01*
X419765Y203062D01*
X419801Y202947D01*
X419842Y202833D01*
X419885Y202720D01*
X419933Y202608D01*
X419984Y202499D01*
X420039Y202391D01*
X420097Y202284D01*
X420158Y202180D01*
X420223Y202078D01*
X420291Y201978D01*
X420362Y201880D01*
X420436Y201784D01*
X420513Y201691D01*
X420594Y201601D01*
X420677Y201513D01*
X420763Y201428D01*
X420852Y201345D01*
X420943Y201266D01*
X421037Y201189D01*
X421133Y201116D01*
X421231Y201046D01*
X421332Y200979D01*
X421435Y200915D01*
X421540Y200855D01*
X421647Y200797D01*
X421755Y200744D01*
X421865Y200694D01*
X421977Y200648D01*
X422090Y200605D01*
X422205Y200566D01*
X424801Y206083D02*
X424723Y206162D01*
X424643Y206238D01*
X424560Y206311D01*
X424474Y206381D01*
X424387Y206448D01*
X424296Y206512D01*
X424204Y206572D01*
X424110Y206630D01*
X424013Y206684D01*
X423915Y206734D01*
X423815Y206781D01*
X423714Y206825D01*
X423611Y206865D01*
X423506Y206901D01*
X423401Y206933D01*
X423294Y206962D01*
X423187Y206987D01*
X423078Y207009D01*
X422969Y207026D01*
X422860Y207040D01*
X422750Y207049D01*
X422639Y207055D01*
X422529Y207057D01*
X424801Y206084D02*
X431292Y200566D01*
X431292Y207057D01*
X812292Y128336D02*
X812292Y125739D01*
X812290Y125640D01*
X812284Y125540D01*
X812275Y125441D01*
X812262Y125343D01*
X812245Y125245D01*
X812224Y125147D01*
X812199Y125051D01*
X812171Y124956D01*
X812139Y124862D01*
X812104Y124769D01*
X812065Y124677D01*
X812022Y124587D01*
X811977Y124499D01*
X811927Y124412D01*
X811875Y124328D01*
X811819Y124245D01*
X811761Y124165D01*
X811699Y124087D01*
X811634Y124012D01*
X811566Y123939D01*
X811496Y123869D01*
X811423Y123801D01*
X811348Y123736D01*
X811270Y123674D01*
X811190Y123616D01*
X811107Y123560D01*
X811023Y123508D01*
X810936Y123458D01*
X810848Y123413D01*
X810758Y123370D01*
X810666Y123331D01*
X810573Y123296D01*
X810479Y123264D01*
X810384Y123236D01*
X810288Y123211D01*
X810190Y123190D01*
X810092Y123173D01*
X809994Y123160D01*
X809895Y123151D01*
X809795Y123145D01*
X809696Y123143D01*
X803204Y123143D01*
X803204Y123142D02*
X803105Y123144D01*
X803005Y123150D01*
X802906Y123159D01*
X802808Y123172D01*
X802710Y123190D01*
X802612Y123210D01*
X802516Y123235D01*
X802420Y123263D01*
X802326Y123295D01*
X802233Y123330D01*
X802142Y123369D01*
X802052Y123412D01*
X801963Y123457D01*
X801877Y123507D01*
X801792Y123559D01*
X801710Y123615D01*
X801630Y123674D01*
X801552Y123735D01*
X801476Y123800D01*
X801403Y123868D01*
X801333Y123938D01*
X801265Y124011D01*
X801200Y124087D01*
X801139Y124165D01*
X801080Y124245D01*
X801024Y124327D01*
X800972Y124412D01*
X800923Y124498D01*
X800877Y124587D01*
X800834Y124677D01*
X800795Y124768D01*
X800760Y124861D01*
X800728Y124955D01*
X800700Y125051D01*
X800675Y125147D01*
X800655Y125245D01*
X800637Y125343D01*
X800624Y125441D01*
X800615Y125540D01*
X800609Y125639D01*
X800607Y125739D01*
X800608Y125739D02*
X800608Y128336D01*
X812292Y132701D02*
X812292Y135946D01*
X812290Y136059D01*
X812284Y136172D01*
X812274Y136285D01*
X812260Y136398D01*
X812243Y136510D01*
X812221Y136621D01*
X812196Y136731D01*
X812166Y136841D01*
X812133Y136949D01*
X812096Y137056D01*
X812056Y137162D01*
X812011Y137266D01*
X811963Y137369D01*
X811912Y137470D01*
X811857Y137569D01*
X811799Y137666D01*
X811737Y137761D01*
X811672Y137854D01*
X811604Y137944D01*
X811533Y138032D01*
X811458Y138118D01*
X811381Y138201D01*
X811301Y138281D01*
X811218Y138358D01*
X811132Y138433D01*
X811044Y138504D01*
X810954Y138572D01*
X810861Y138637D01*
X810766Y138699D01*
X810669Y138757D01*
X810570Y138812D01*
X810469Y138863D01*
X810366Y138911D01*
X810262Y138956D01*
X810156Y138996D01*
X810049Y139033D01*
X809941Y139066D01*
X809831Y139096D01*
X809721Y139121D01*
X809610Y139143D01*
X809498Y139160D01*
X809385Y139174D01*
X809272Y139184D01*
X809159Y139190D01*
X809046Y139192D01*
X808933Y139190D01*
X808820Y139184D01*
X808707Y139174D01*
X808594Y139160D01*
X808482Y139143D01*
X808371Y139121D01*
X808261Y139096D01*
X808151Y139066D01*
X808043Y139033D01*
X807936Y138996D01*
X807830Y138956D01*
X807726Y138911D01*
X807623Y138863D01*
X807522Y138812D01*
X807423Y138757D01*
X807326Y138699D01*
X807231Y138637D01*
X807138Y138572D01*
X807048Y138504D01*
X806960Y138433D01*
X806874Y138358D01*
X806791Y138281D01*
X806711Y138201D01*
X806634Y138118D01*
X806559Y138032D01*
X806488Y137944D01*
X806420Y137854D01*
X806355Y137761D01*
X806293Y137666D01*
X806235Y137569D01*
X806180Y137470D01*
X806129Y137369D01*
X806081Y137266D01*
X806036Y137162D01*
X805996Y137056D01*
X805959Y136949D01*
X805926Y136841D01*
X805896Y136731D01*
X805871Y136621D01*
X805849Y136510D01*
X805832Y136398D01*
X805818Y136285D01*
X805808Y136172D01*
X805802Y136059D01*
X805800Y135946D01*
X800608Y136596D02*
X800608Y132701D01*
X800608Y136596D02*
X800610Y136697D01*
X800616Y136797D01*
X800626Y136897D01*
X800639Y136997D01*
X800657Y137096D01*
X800678Y137195D01*
X800703Y137292D01*
X800732Y137389D01*
X800765Y137484D01*
X800801Y137578D01*
X800841Y137670D01*
X800884Y137761D01*
X800931Y137850D01*
X800981Y137937D01*
X801035Y138023D01*
X801092Y138106D01*
X801152Y138186D01*
X801215Y138265D01*
X801282Y138341D01*
X801351Y138414D01*
X801423Y138484D01*
X801497Y138552D01*
X801574Y138617D01*
X801654Y138678D01*
X801736Y138737D01*
X801820Y138792D01*
X801906Y138844D01*
X801994Y138893D01*
X802084Y138938D01*
X802176Y138980D01*
X802269Y139018D01*
X802364Y139052D01*
X802459Y139083D01*
X802556Y139110D01*
X802654Y139133D01*
X802753Y139153D01*
X802853Y139168D01*
X802953Y139180D01*
X803053Y139188D01*
X803154Y139192D01*
X803254Y139192D01*
X803355Y139188D01*
X803455Y139180D01*
X803555Y139168D01*
X803655Y139153D01*
X803754Y139133D01*
X803852Y139110D01*
X803949Y139083D01*
X804044Y139052D01*
X804139Y139018D01*
X804232Y138980D01*
X804324Y138938D01*
X804414Y138893D01*
X804502Y138844D01*
X804588Y138792D01*
X804672Y138737D01*
X804754Y138678D01*
X804834Y138617D01*
X804911Y138552D01*
X804985Y138484D01*
X805057Y138414D01*
X805126Y138341D01*
X805193Y138265D01*
X805256Y138186D01*
X805316Y138106D01*
X805373Y138023D01*
X805427Y137937D01*
X805477Y137850D01*
X805524Y137761D01*
X805567Y137670D01*
X805607Y137578D01*
X805643Y137484D01*
X805676Y137389D01*
X805705Y137292D01*
X805730Y137195D01*
X805751Y137096D01*
X805769Y136997D01*
X805782Y136897D01*
X805792Y136797D01*
X805798Y136697D01*
X805800Y136596D01*
X805801Y136596D02*
X805801Y133999D01*
X507492Y193604D02*
X507492Y196201D01*
X507492Y193604D02*
X507490Y193505D01*
X507484Y193405D01*
X507475Y193306D01*
X507462Y193208D01*
X507445Y193110D01*
X507424Y193012D01*
X507399Y192916D01*
X507371Y192821D01*
X507339Y192727D01*
X507304Y192634D01*
X507265Y192542D01*
X507222Y192452D01*
X507177Y192364D01*
X507127Y192277D01*
X507075Y192193D01*
X507019Y192110D01*
X506961Y192030D01*
X506899Y191952D01*
X506834Y191877D01*
X506766Y191804D01*
X506696Y191734D01*
X506623Y191666D01*
X506548Y191601D01*
X506470Y191539D01*
X506390Y191481D01*
X506307Y191425D01*
X506223Y191373D01*
X506136Y191323D01*
X506048Y191278D01*
X505958Y191235D01*
X505866Y191196D01*
X505773Y191161D01*
X505679Y191129D01*
X505584Y191101D01*
X505488Y191076D01*
X505390Y191055D01*
X505292Y191038D01*
X505194Y191025D01*
X505095Y191016D01*
X504995Y191010D01*
X504896Y191008D01*
X498404Y191008D01*
X498305Y191010D01*
X498205Y191016D01*
X498106Y191025D01*
X498008Y191038D01*
X497910Y191056D01*
X497812Y191076D01*
X497716Y191101D01*
X497620Y191129D01*
X497526Y191161D01*
X497433Y191196D01*
X497342Y191235D01*
X497252Y191278D01*
X497163Y191323D01*
X497077Y191373D01*
X496992Y191425D01*
X496910Y191481D01*
X496830Y191540D01*
X496752Y191601D01*
X496676Y191666D01*
X496603Y191734D01*
X496533Y191804D01*
X496465Y191877D01*
X496400Y191953D01*
X496339Y192031D01*
X496280Y192111D01*
X496224Y192193D01*
X496172Y192278D01*
X496123Y192364D01*
X496077Y192453D01*
X496034Y192543D01*
X495995Y192634D01*
X495960Y192727D01*
X495928Y192821D01*
X495900Y192917D01*
X495875Y193013D01*
X495855Y193111D01*
X495837Y193209D01*
X495824Y193307D01*
X495815Y193406D01*
X495809Y193505D01*
X495807Y193605D01*
X495808Y193604D02*
X495808Y196201D01*
X495808Y203163D02*
X504896Y200566D01*
X504896Y207057D01*
X502299Y205110D02*
X507492Y205110D01*
X431292Y204536D02*
X431292Y201939D01*
X431290Y201840D01*
X431284Y201740D01*
X431275Y201641D01*
X431262Y201543D01*
X431245Y201445D01*
X431224Y201347D01*
X431199Y201251D01*
X431171Y201156D01*
X431139Y201062D01*
X431104Y200969D01*
X431065Y200877D01*
X431022Y200787D01*
X430977Y200699D01*
X430927Y200612D01*
X430875Y200528D01*
X430819Y200445D01*
X430761Y200365D01*
X430699Y200287D01*
X430634Y200212D01*
X430566Y200139D01*
X430496Y200069D01*
X430423Y200001D01*
X430348Y199936D01*
X430270Y199874D01*
X430190Y199816D01*
X430107Y199760D01*
X430023Y199708D01*
X429936Y199658D01*
X429848Y199613D01*
X429758Y199570D01*
X429666Y199531D01*
X429573Y199496D01*
X429479Y199464D01*
X429384Y199436D01*
X429288Y199411D01*
X429190Y199390D01*
X429092Y199373D01*
X428994Y199360D01*
X428895Y199351D01*
X428795Y199345D01*
X428696Y199343D01*
X422204Y199343D01*
X422204Y199342D02*
X422105Y199344D01*
X422005Y199350D01*
X421906Y199359D01*
X421808Y199372D01*
X421710Y199390D01*
X421612Y199410D01*
X421516Y199435D01*
X421420Y199463D01*
X421326Y199495D01*
X421233Y199530D01*
X421142Y199569D01*
X421052Y199612D01*
X420963Y199657D01*
X420877Y199707D01*
X420792Y199759D01*
X420710Y199815D01*
X420630Y199874D01*
X420552Y199935D01*
X420476Y200000D01*
X420403Y200068D01*
X420333Y200138D01*
X420265Y200211D01*
X420200Y200287D01*
X420139Y200365D01*
X420080Y200445D01*
X420024Y200527D01*
X419972Y200612D01*
X419923Y200698D01*
X419877Y200787D01*
X419834Y200877D01*
X419795Y200968D01*
X419760Y201061D01*
X419728Y201155D01*
X419700Y201251D01*
X419675Y201347D01*
X419655Y201445D01*
X419637Y201543D01*
X419624Y201641D01*
X419615Y201740D01*
X419609Y201839D01*
X419607Y201939D01*
X419608Y201939D02*
X419608Y204536D01*
X431292Y208901D02*
X431292Y212796D01*
X431290Y212895D01*
X431284Y212995D01*
X431275Y213094D01*
X431262Y213192D01*
X431245Y213290D01*
X431224Y213388D01*
X431199Y213484D01*
X431171Y213579D01*
X431139Y213673D01*
X431104Y213766D01*
X431065Y213858D01*
X431022Y213948D01*
X430977Y214036D01*
X430927Y214123D01*
X430875Y214207D01*
X430819Y214290D01*
X430761Y214370D01*
X430699Y214448D01*
X430634Y214523D01*
X430566Y214596D01*
X430496Y214666D01*
X430423Y214734D01*
X430348Y214799D01*
X430270Y214861D01*
X430190Y214919D01*
X430107Y214975D01*
X430023Y215027D01*
X429936Y215077D01*
X429848Y215122D01*
X429758Y215165D01*
X429666Y215204D01*
X429573Y215239D01*
X429479Y215271D01*
X429384Y215299D01*
X429288Y215324D01*
X429190Y215345D01*
X429092Y215362D01*
X428994Y215375D01*
X428895Y215384D01*
X428795Y215390D01*
X428696Y215392D01*
X427397Y215392D01*
X427298Y215390D01*
X427198Y215384D01*
X427099Y215375D01*
X427001Y215362D01*
X426903Y215345D01*
X426805Y215324D01*
X426709Y215299D01*
X426614Y215271D01*
X426520Y215239D01*
X426427Y215204D01*
X426335Y215165D01*
X426245Y215122D01*
X426157Y215077D01*
X426070Y215027D01*
X425986Y214975D01*
X425903Y214919D01*
X425823Y214861D01*
X425745Y214799D01*
X425670Y214734D01*
X425597Y214666D01*
X425527Y214596D01*
X425459Y214523D01*
X425394Y214448D01*
X425332Y214370D01*
X425274Y214290D01*
X425218Y214207D01*
X425166Y214123D01*
X425116Y214036D01*
X425071Y213948D01*
X425028Y213858D01*
X424989Y213766D01*
X424954Y213673D01*
X424922Y213579D01*
X424894Y213484D01*
X424869Y213388D01*
X424848Y213290D01*
X424831Y213192D01*
X424818Y213094D01*
X424809Y212995D01*
X424803Y212895D01*
X424801Y212796D01*
X424801Y208901D01*
X419608Y208901D01*
X419608Y215392D01*
X650804Y216408D02*
X653401Y216408D01*
X650804Y216408D02*
X650705Y216410D01*
X650605Y216416D01*
X650506Y216425D01*
X650408Y216438D01*
X650310Y216455D01*
X650212Y216476D01*
X650116Y216501D01*
X650021Y216529D01*
X649927Y216561D01*
X649834Y216596D01*
X649742Y216635D01*
X649652Y216678D01*
X649564Y216723D01*
X649477Y216773D01*
X649393Y216825D01*
X649310Y216881D01*
X649230Y216939D01*
X649152Y217001D01*
X649077Y217066D01*
X649004Y217134D01*
X648934Y217204D01*
X648866Y217277D01*
X648801Y217352D01*
X648739Y217430D01*
X648681Y217510D01*
X648625Y217593D01*
X648573Y217677D01*
X648523Y217764D01*
X648478Y217852D01*
X648435Y217942D01*
X648396Y218034D01*
X648361Y218127D01*
X648329Y218221D01*
X648301Y218316D01*
X648276Y218412D01*
X648255Y218510D01*
X648238Y218608D01*
X648225Y218706D01*
X648216Y218805D01*
X648210Y218905D01*
X648208Y219004D01*
X648208Y225496D01*
X648210Y225595D01*
X648216Y225695D01*
X648225Y225794D01*
X648238Y225892D01*
X648255Y225990D01*
X648276Y226088D01*
X648301Y226184D01*
X648329Y226279D01*
X648361Y226373D01*
X648396Y226466D01*
X648435Y226558D01*
X648478Y226648D01*
X648523Y226736D01*
X648573Y226823D01*
X648625Y226907D01*
X648681Y226990D01*
X648739Y227070D01*
X648801Y227148D01*
X648866Y227223D01*
X648934Y227296D01*
X649004Y227366D01*
X649077Y227434D01*
X649152Y227499D01*
X649230Y227561D01*
X649310Y227619D01*
X649393Y227675D01*
X649477Y227727D01*
X649564Y227777D01*
X649652Y227822D01*
X649742Y227865D01*
X649834Y227904D01*
X649926Y227939D01*
X650021Y227971D01*
X650116Y227999D01*
X650212Y228024D01*
X650310Y228045D01*
X650408Y228062D01*
X650506Y228075D01*
X650605Y228084D01*
X650705Y228090D01*
X650804Y228092D01*
X653401Y228092D01*
X657766Y222899D02*
X661661Y222899D01*
X661760Y222897D01*
X661860Y222891D01*
X661959Y222882D01*
X662057Y222869D01*
X662155Y222852D01*
X662253Y222831D01*
X662349Y222806D01*
X662444Y222778D01*
X662538Y222746D01*
X662631Y222711D01*
X662723Y222672D01*
X662813Y222629D01*
X662901Y222584D01*
X662988Y222534D01*
X663072Y222482D01*
X663155Y222426D01*
X663235Y222368D01*
X663313Y222306D01*
X663388Y222241D01*
X663461Y222173D01*
X663531Y222103D01*
X663599Y222030D01*
X663664Y221955D01*
X663726Y221877D01*
X663784Y221797D01*
X663840Y221714D01*
X663892Y221630D01*
X663942Y221543D01*
X663987Y221455D01*
X664030Y221365D01*
X664069Y221273D01*
X664104Y221180D01*
X664136Y221086D01*
X664164Y220991D01*
X664189Y220895D01*
X664210Y220797D01*
X664227Y220699D01*
X664240Y220601D01*
X664249Y220502D01*
X664255Y220402D01*
X664257Y220303D01*
X664257Y219654D01*
X664258Y219654D02*
X664256Y219541D01*
X664250Y219428D01*
X664240Y219315D01*
X664226Y219202D01*
X664209Y219090D01*
X664187Y218979D01*
X664162Y218869D01*
X664132Y218759D01*
X664099Y218651D01*
X664062Y218544D01*
X664022Y218438D01*
X663977Y218334D01*
X663929Y218231D01*
X663878Y218130D01*
X663823Y218031D01*
X663765Y217934D01*
X663703Y217839D01*
X663638Y217746D01*
X663570Y217656D01*
X663499Y217568D01*
X663424Y217482D01*
X663347Y217399D01*
X663267Y217319D01*
X663184Y217242D01*
X663098Y217167D01*
X663010Y217096D01*
X662920Y217028D01*
X662827Y216963D01*
X662732Y216901D01*
X662635Y216843D01*
X662536Y216788D01*
X662435Y216737D01*
X662332Y216689D01*
X662228Y216644D01*
X662122Y216604D01*
X662015Y216567D01*
X661907Y216534D01*
X661797Y216504D01*
X661687Y216479D01*
X661576Y216457D01*
X661464Y216440D01*
X661351Y216426D01*
X661238Y216416D01*
X661125Y216410D01*
X661012Y216408D01*
X660899Y216410D01*
X660786Y216416D01*
X660673Y216426D01*
X660560Y216440D01*
X660448Y216457D01*
X660337Y216479D01*
X660227Y216504D01*
X660117Y216534D01*
X660009Y216567D01*
X659902Y216604D01*
X659796Y216644D01*
X659692Y216689D01*
X659589Y216737D01*
X659488Y216788D01*
X659389Y216843D01*
X659292Y216901D01*
X659197Y216963D01*
X659104Y217028D01*
X659014Y217096D01*
X658926Y217167D01*
X658840Y217242D01*
X658757Y217319D01*
X658677Y217399D01*
X658600Y217482D01*
X658525Y217568D01*
X658454Y217656D01*
X658386Y217746D01*
X658321Y217839D01*
X658259Y217934D01*
X658201Y218031D01*
X658146Y218130D01*
X658095Y218231D01*
X658047Y218334D01*
X658002Y218438D01*
X657962Y218544D01*
X657925Y218651D01*
X657892Y218759D01*
X657862Y218869D01*
X657837Y218979D01*
X657815Y219090D01*
X657798Y219202D01*
X657784Y219315D01*
X657774Y219428D01*
X657768Y219541D01*
X657766Y219654D01*
X657766Y222899D01*
X657768Y223042D01*
X657774Y223185D01*
X657784Y223328D01*
X657798Y223470D01*
X657815Y223612D01*
X657837Y223754D01*
X657862Y223895D01*
X657892Y224035D01*
X657925Y224174D01*
X657962Y224312D01*
X658003Y224449D01*
X658047Y224585D01*
X658096Y224720D01*
X658148Y224853D01*
X658203Y224985D01*
X658263Y225115D01*
X658326Y225244D01*
X658392Y225371D01*
X658462Y225495D01*
X658535Y225618D01*
X658612Y225739D01*
X658692Y225858D01*
X658775Y225974D01*
X658861Y226089D01*
X658950Y226200D01*
X659043Y226310D01*
X659138Y226416D01*
X659237Y226520D01*
X659338Y226621D01*
X659442Y226720D01*
X659548Y226815D01*
X659658Y226908D01*
X659769Y226997D01*
X659884Y227083D01*
X660000Y227166D01*
X660119Y227246D01*
X660240Y227323D01*
X660362Y227396D01*
X660487Y227466D01*
X660614Y227532D01*
X660743Y227595D01*
X660873Y227655D01*
X661005Y227710D01*
X661138Y227762D01*
X661273Y227811D01*
X661409Y227855D01*
X661546Y227896D01*
X661684Y227933D01*
X661823Y227966D01*
X661963Y227996D01*
X662104Y228021D01*
X662246Y228043D01*
X662388Y228060D01*
X662530Y228074D01*
X662673Y228084D01*
X662816Y228090D01*
X662959Y228092D01*
X215392Y141036D02*
X215392Y138439D01*
X215390Y138340D01*
X215384Y138240D01*
X215375Y138141D01*
X215362Y138043D01*
X215345Y137945D01*
X215324Y137847D01*
X215299Y137751D01*
X215271Y137656D01*
X215239Y137562D01*
X215204Y137469D01*
X215165Y137377D01*
X215122Y137287D01*
X215077Y137199D01*
X215027Y137112D01*
X214975Y137028D01*
X214919Y136945D01*
X214861Y136865D01*
X214799Y136787D01*
X214734Y136712D01*
X214666Y136639D01*
X214596Y136569D01*
X214523Y136501D01*
X214448Y136436D01*
X214370Y136374D01*
X214290Y136316D01*
X214207Y136260D01*
X214123Y136208D01*
X214036Y136158D01*
X213948Y136113D01*
X213858Y136070D01*
X213766Y136031D01*
X213673Y135996D01*
X213579Y135964D01*
X213484Y135936D01*
X213388Y135911D01*
X213290Y135890D01*
X213192Y135873D01*
X213094Y135860D01*
X212995Y135851D01*
X212895Y135845D01*
X212796Y135843D01*
X206304Y135843D01*
X206304Y135842D02*
X206205Y135844D01*
X206105Y135850D01*
X206006Y135859D01*
X205908Y135872D01*
X205810Y135890D01*
X205712Y135910D01*
X205616Y135935D01*
X205520Y135963D01*
X205426Y135995D01*
X205333Y136030D01*
X205242Y136069D01*
X205152Y136112D01*
X205063Y136157D01*
X204977Y136207D01*
X204892Y136259D01*
X204810Y136315D01*
X204730Y136374D01*
X204652Y136435D01*
X204576Y136500D01*
X204503Y136568D01*
X204433Y136638D01*
X204365Y136711D01*
X204300Y136787D01*
X204239Y136865D01*
X204180Y136945D01*
X204124Y137027D01*
X204072Y137112D01*
X204023Y137198D01*
X203977Y137287D01*
X203934Y137377D01*
X203895Y137468D01*
X203860Y137561D01*
X203828Y137655D01*
X203800Y137751D01*
X203775Y137847D01*
X203755Y137945D01*
X203737Y138043D01*
X203724Y138141D01*
X203715Y138240D01*
X203709Y138339D01*
X203707Y138439D01*
X203708Y138439D02*
X203708Y141036D01*
X203708Y145401D02*
X205006Y145401D01*
X203708Y145401D02*
X203708Y151892D01*
X215392Y148646D01*
X545592Y193604D02*
X545592Y196201D01*
X545592Y193604D02*
X545590Y193505D01*
X545584Y193405D01*
X545575Y193306D01*
X545562Y193208D01*
X545545Y193110D01*
X545524Y193012D01*
X545499Y192916D01*
X545471Y192821D01*
X545439Y192727D01*
X545404Y192634D01*
X545365Y192542D01*
X545322Y192452D01*
X545277Y192364D01*
X545227Y192277D01*
X545175Y192193D01*
X545119Y192110D01*
X545061Y192030D01*
X544999Y191952D01*
X544934Y191877D01*
X544866Y191804D01*
X544796Y191734D01*
X544723Y191666D01*
X544648Y191601D01*
X544570Y191539D01*
X544490Y191481D01*
X544407Y191425D01*
X544323Y191373D01*
X544236Y191323D01*
X544148Y191278D01*
X544058Y191235D01*
X543966Y191196D01*
X543873Y191161D01*
X543779Y191129D01*
X543684Y191101D01*
X543588Y191076D01*
X543490Y191055D01*
X543392Y191038D01*
X543294Y191025D01*
X543195Y191016D01*
X543095Y191010D01*
X542996Y191008D01*
X536504Y191008D01*
X536405Y191010D01*
X536305Y191016D01*
X536206Y191025D01*
X536108Y191038D01*
X536010Y191056D01*
X535912Y191076D01*
X535816Y191101D01*
X535720Y191129D01*
X535626Y191161D01*
X535533Y191196D01*
X535442Y191235D01*
X535352Y191278D01*
X535263Y191323D01*
X535177Y191373D01*
X535092Y191425D01*
X535010Y191481D01*
X534930Y191540D01*
X534852Y191601D01*
X534776Y191666D01*
X534703Y191734D01*
X534633Y191804D01*
X534565Y191877D01*
X534500Y191953D01*
X534439Y192031D01*
X534380Y192111D01*
X534324Y192193D01*
X534272Y192278D01*
X534223Y192364D01*
X534177Y192453D01*
X534134Y192543D01*
X534095Y192634D01*
X534060Y192727D01*
X534028Y192821D01*
X534000Y192917D01*
X533975Y193013D01*
X533955Y193111D01*
X533937Y193209D01*
X533924Y193307D01*
X533915Y193406D01*
X533909Y193505D01*
X533907Y193605D01*
X533908Y193604D02*
X533908Y196201D01*
X542346Y200566D02*
X542233Y200568D01*
X542120Y200574D01*
X542007Y200584D01*
X541894Y200598D01*
X541782Y200615D01*
X541671Y200637D01*
X541561Y200662D01*
X541451Y200692D01*
X541343Y200725D01*
X541236Y200762D01*
X541130Y200802D01*
X541026Y200847D01*
X540923Y200895D01*
X540822Y200946D01*
X540723Y201001D01*
X540626Y201059D01*
X540531Y201121D01*
X540438Y201186D01*
X540348Y201254D01*
X540260Y201325D01*
X540174Y201400D01*
X540091Y201477D01*
X540011Y201557D01*
X539934Y201640D01*
X539859Y201726D01*
X539788Y201814D01*
X539720Y201904D01*
X539655Y201997D01*
X539593Y202092D01*
X539535Y202189D01*
X539480Y202288D01*
X539429Y202389D01*
X539381Y202492D01*
X539336Y202596D01*
X539296Y202702D01*
X539259Y202809D01*
X539226Y202917D01*
X539196Y203027D01*
X539171Y203137D01*
X539149Y203248D01*
X539132Y203360D01*
X539118Y203473D01*
X539108Y203586D01*
X539102Y203699D01*
X539100Y203812D01*
X539102Y203925D01*
X539108Y204038D01*
X539118Y204151D01*
X539132Y204264D01*
X539149Y204376D01*
X539171Y204487D01*
X539196Y204597D01*
X539226Y204707D01*
X539259Y204815D01*
X539296Y204922D01*
X539336Y205028D01*
X539381Y205132D01*
X539429Y205235D01*
X539480Y205336D01*
X539535Y205435D01*
X539593Y205532D01*
X539655Y205627D01*
X539720Y205720D01*
X539788Y205810D01*
X539859Y205898D01*
X539934Y205984D01*
X540011Y206067D01*
X540091Y206147D01*
X540174Y206224D01*
X540260Y206299D01*
X540348Y206370D01*
X540438Y206438D01*
X540531Y206503D01*
X540626Y206565D01*
X540723Y206623D01*
X540822Y206678D01*
X540923Y206729D01*
X541026Y206777D01*
X541130Y206822D01*
X541236Y206862D01*
X541343Y206899D01*
X541451Y206932D01*
X541561Y206962D01*
X541671Y206987D01*
X541782Y207009D01*
X541894Y207026D01*
X542007Y207040D01*
X542120Y207050D01*
X542233Y207056D01*
X542346Y207058D01*
X542459Y207056D01*
X542572Y207050D01*
X542685Y207040D01*
X542798Y207026D01*
X542910Y207009D01*
X543021Y206987D01*
X543131Y206962D01*
X543241Y206932D01*
X543349Y206899D01*
X543456Y206862D01*
X543562Y206822D01*
X543666Y206777D01*
X543769Y206729D01*
X543870Y206678D01*
X543969Y206623D01*
X544066Y206565D01*
X544161Y206503D01*
X544254Y206438D01*
X544344Y206370D01*
X544432Y206299D01*
X544518Y206224D01*
X544601Y206147D01*
X544681Y206067D01*
X544758Y205984D01*
X544833Y205898D01*
X544904Y205810D01*
X544972Y205720D01*
X545037Y205627D01*
X545099Y205532D01*
X545157Y205435D01*
X545212Y205336D01*
X545263Y205235D01*
X545311Y205132D01*
X545356Y205028D01*
X545396Y204922D01*
X545433Y204815D01*
X545466Y204707D01*
X545496Y204597D01*
X545521Y204487D01*
X545543Y204376D01*
X545560Y204264D01*
X545574Y204151D01*
X545584Y204038D01*
X545590Y203925D01*
X545592Y203812D01*
X545590Y203699D01*
X545584Y203586D01*
X545574Y203473D01*
X545560Y203360D01*
X545543Y203248D01*
X545521Y203137D01*
X545496Y203027D01*
X545466Y202917D01*
X545433Y202809D01*
X545396Y202702D01*
X545356Y202596D01*
X545311Y202492D01*
X545263Y202389D01*
X545212Y202288D01*
X545157Y202189D01*
X545099Y202092D01*
X545037Y201997D01*
X544972Y201904D01*
X544904Y201814D01*
X544833Y201726D01*
X544758Y201640D01*
X544681Y201557D01*
X544601Y201477D01*
X544518Y201400D01*
X544432Y201325D01*
X544344Y201254D01*
X544254Y201186D01*
X544161Y201121D01*
X544066Y201059D01*
X543969Y201001D01*
X543870Y200946D01*
X543769Y200895D01*
X543666Y200847D01*
X543562Y200802D01*
X543456Y200762D01*
X543349Y200725D01*
X543241Y200692D01*
X543131Y200662D01*
X543021Y200637D01*
X542910Y200615D01*
X542798Y200598D01*
X542685Y200584D01*
X542572Y200574D01*
X542459Y200568D01*
X542346Y200566D01*
X536504Y201216D02*
X536403Y201218D01*
X536303Y201224D01*
X536203Y201234D01*
X536103Y201247D01*
X536004Y201265D01*
X535905Y201286D01*
X535808Y201311D01*
X535711Y201340D01*
X535616Y201373D01*
X535522Y201409D01*
X535430Y201449D01*
X535339Y201492D01*
X535250Y201539D01*
X535163Y201589D01*
X535077Y201643D01*
X534994Y201700D01*
X534914Y201760D01*
X534835Y201823D01*
X534759Y201890D01*
X534686Y201959D01*
X534616Y202031D01*
X534548Y202105D01*
X534483Y202182D01*
X534422Y202262D01*
X534363Y202344D01*
X534308Y202428D01*
X534256Y202514D01*
X534207Y202602D01*
X534162Y202692D01*
X534120Y202784D01*
X534082Y202877D01*
X534048Y202972D01*
X534017Y203067D01*
X533990Y203164D01*
X533967Y203262D01*
X533947Y203361D01*
X533932Y203461D01*
X533920Y203561D01*
X533912Y203661D01*
X533908Y203762D01*
X533908Y203862D01*
X533912Y203963D01*
X533920Y204063D01*
X533932Y204163D01*
X533947Y204263D01*
X533967Y204362D01*
X533990Y204460D01*
X534017Y204557D01*
X534048Y204652D01*
X534082Y204747D01*
X534120Y204840D01*
X534162Y204932D01*
X534207Y205022D01*
X534256Y205110D01*
X534308Y205196D01*
X534363Y205280D01*
X534422Y205362D01*
X534483Y205442D01*
X534548Y205519D01*
X534616Y205593D01*
X534686Y205665D01*
X534759Y205734D01*
X534835Y205801D01*
X534914Y205864D01*
X534994Y205924D01*
X535077Y205981D01*
X535163Y206035D01*
X535250Y206085D01*
X535339Y206132D01*
X535430Y206175D01*
X535522Y206215D01*
X535616Y206251D01*
X535711Y206284D01*
X535808Y206313D01*
X535905Y206338D01*
X536004Y206359D01*
X536103Y206377D01*
X536203Y206390D01*
X536303Y206400D01*
X536403Y206406D01*
X536504Y206408D01*
X536605Y206406D01*
X536705Y206400D01*
X536805Y206390D01*
X536905Y206377D01*
X537004Y206359D01*
X537103Y206338D01*
X537200Y206313D01*
X537297Y206284D01*
X537392Y206251D01*
X537486Y206215D01*
X537578Y206175D01*
X537669Y206132D01*
X537758Y206085D01*
X537845Y206035D01*
X537931Y205981D01*
X538014Y205924D01*
X538094Y205864D01*
X538173Y205801D01*
X538249Y205734D01*
X538322Y205665D01*
X538392Y205593D01*
X538460Y205519D01*
X538525Y205442D01*
X538586Y205362D01*
X538645Y205280D01*
X538700Y205196D01*
X538752Y205110D01*
X538801Y205022D01*
X538846Y204932D01*
X538888Y204840D01*
X538926Y204747D01*
X538960Y204652D01*
X538991Y204557D01*
X539018Y204460D01*
X539041Y204362D01*
X539061Y204263D01*
X539076Y204163D01*
X539088Y204063D01*
X539096Y203963D01*
X539100Y203862D01*
X539100Y203762D01*
X539096Y203661D01*
X539088Y203561D01*
X539076Y203461D01*
X539061Y203361D01*
X539041Y203262D01*
X539018Y203164D01*
X538991Y203067D01*
X538960Y202972D01*
X538926Y202877D01*
X538888Y202784D01*
X538846Y202692D01*
X538801Y202602D01*
X538752Y202514D01*
X538700Y202428D01*
X538645Y202344D01*
X538586Y202262D01*
X538525Y202182D01*
X538460Y202105D01*
X538392Y202031D01*
X538322Y201959D01*
X538249Y201890D01*
X538173Y201823D01*
X538094Y201760D01*
X538014Y201700D01*
X537931Y201643D01*
X537845Y201589D01*
X537758Y201539D01*
X537669Y201492D01*
X537578Y201449D01*
X537486Y201409D01*
X537392Y201373D01*
X537297Y201340D01*
X537200Y201311D01*
X537103Y201286D01*
X537004Y201265D01*
X536905Y201247D01*
X536805Y201234D01*
X536705Y201224D01*
X536605Y201218D01*
X536504Y201216D01*
D14*
X717550Y190500D02*
X730250Y190500D01*
X736600Y184150D01*
X736600Y171450D02*
X730250Y165100D01*
X692150Y190500D02*
X685800Y184150D01*
X692150Y190500D02*
X704850Y190500D01*
X711200Y184150D01*
X711200Y171450D02*
X704850Y165100D01*
X692150Y165100D01*
X685800Y171450D01*
X711200Y184150D02*
X717550Y190500D01*
X711200Y171450D02*
X717550Y165100D01*
X730250Y165100D01*
X654050Y190500D02*
X641350Y190500D01*
X654050Y190500D02*
X660400Y184150D01*
X660400Y171450D02*
X654050Y165100D01*
X660400Y184150D02*
X666750Y190500D01*
X679450Y190500D01*
X685800Y184150D01*
X685800Y171450D02*
X679450Y165100D01*
X666750Y165100D01*
X660400Y171450D01*
X635000Y171450D02*
X635000Y184150D01*
X641350Y190500D01*
X635000Y171450D02*
X641350Y165100D01*
X654050Y165100D01*
X736600Y171450D02*
X736600Y184150D01*
D10*
X639953Y196723D02*
X637413Y196723D01*
X637313Y196725D01*
X637214Y196731D01*
X637114Y196741D01*
X637016Y196754D01*
X636917Y196772D01*
X636820Y196793D01*
X636724Y196818D01*
X636628Y196847D01*
X636534Y196880D01*
X636441Y196916D01*
X636350Y196956D01*
X636260Y197000D01*
X636172Y197047D01*
X636086Y197097D01*
X636002Y197151D01*
X635920Y197208D01*
X635841Y197268D01*
X635763Y197332D01*
X635689Y197398D01*
X635617Y197467D01*
X635548Y197539D01*
X635482Y197613D01*
X635418Y197691D01*
X635358Y197770D01*
X635301Y197852D01*
X635247Y197936D01*
X635197Y198022D01*
X635150Y198110D01*
X635106Y198200D01*
X635066Y198291D01*
X635030Y198384D01*
X634997Y198478D01*
X634968Y198574D01*
X634943Y198670D01*
X634922Y198767D01*
X634904Y198866D01*
X634891Y198964D01*
X634881Y199064D01*
X634875Y199163D01*
X634873Y199263D01*
X634873Y205613D01*
X634875Y205713D01*
X634881Y205812D01*
X634891Y205912D01*
X634904Y206010D01*
X634922Y206109D01*
X634943Y206206D01*
X634968Y206302D01*
X634997Y206398D01*
X635030Y206492D01*
X635066Y206585D01*
X635106Y206676D01*
X635150Y206766D01*
X635197Y206854D01*
X635247Y206940D01*
X635301Y207024D01*
X635358Y207106D01*
X635418Y207185D01*
X635482Y207263D01*
X635548Y207337D01*
X635617Y207409D01*
X635689Y207478D01*
X635763Y207544D01*
X635841Y207608D01*
X635920Y207668D01*
X636002Y207725D01*
X636086Y207779D01*
X636172Y207829D01*
X636260Y207876D01*
X636350Y207920D01*
X636441Y207960D01*
X636534Y207996D01*
X636628Y208029D01*
X636724Y208058D01*
X636820Y208083D01*
X636917Y208104D01*
X637016Y208122D01*
X637114Y208135D01*
X637214Y208145D01*
X637313Y208151D01*
X637413Y208153D01*
X639953Y208153D01*
X644816Y208153D02*
X644816Y196723D01*
X651166Y196723D02*
X644816Y208153D01*
X651166Y208153D02*
X651166Y196723D01*
X656627Y205613D02*
X659802Y208153D01*
X659802Y196723D01*
X656627Y196723D02*
X662977Y196723D01*
X157353Y69723D02*
X154813Y69723D01*
X154713Y69725D01*
X154614Y69731D01*
X154514Y69741D01*
X154416Y69754D01*
X154317Y69772D01*
X154220Y69793D01*
X154124Y69818D01*
X154028Y69847D01*
X153934Y69880D01*
X153841Y69916D01*
X153750Y69956D01*
X153660Y70000D01*
X153572Y70047D01*
X153486Y70097D01*
X153402Y70151D01*
X153320Y70208D01*
X153241Y70268D01*
X153163Y70332D01*
X153089Y70398D01*
X153017Y70467D01*
X152948Y70539D01*
X152882Y70613D01*
X152818Y70691D01*
X152758Y70770D01*
X152701Y70852D01*
X152647Y70936D01*
X152597Y71022D01*
X152550Y71110D01*
X152506Y71200D01*
X152466Y71291D01*
X152430Y71384D01*
X152397Y71478D01*
X152368Y71574D01*
X152343Y71670D01*
X152322Y71767D01*
X152304Y71866D01*
X152291Y71964D01*
X152281Y72064D01*
X152275Y72163D01*
X152273Y72263D01*
X152273Y78613D01*
X152275Y78713D01*
X152281Y78812D01*
X152291Y78912D01*
X152304Y79010D01*
X152322Y79109D01*
X152343Y79206D01*
X152368Y79302D01*
X152397Y79398D01*
X152430Y79492D01*
X152466Y79585D01*
X152506Y79676D01*
X152550Y79766D01*
X152597Y79854D01*
X152647Y79940D01*
X152701Y80024D01*
X152758Y80106D01*
X152818Y80185D01*
X152882Y80263D01*
X152948Y80337D01*
X153017Y80409D01*
X153089Y80478D01*
X153163Y80544D01*
X153241Y80608D01*
X153320Y80668D01*
X153402Y80725D01*
X153486Y80779D01*
X153572Y80829D01*
X153660Y80876D01*
X153750Y80920D01*
X153841Y80960D01*
X153934Y80996D01*
X154028Y81029D01*
X154124Y81058D01*
X154220Y81083D01*
X154317Y81104D01*
X154416Y81122D01*
X154514Y81135D01*
X154614Y81145D01*
X154713Y81151D01*
X154813Y81153D01*
X157353Y81153D01*
X162216Y81153D02*
X162216Y69723D01*
X168566Y69723D02*
X162216Y81153D01*
X168566Y81153D02*
X168566Y69723D01*
X177520Y81154D02*
X177624Y81152D01*
X177729Y81146D01*
X177833Y81137D01*
X177936Y81124D01*
X178039Y81106D01*
X178141Y81086D01*
X178243Y81061D01*
X178343Y81033D01*
X178443Y81001D01*
X178541Y80965D01*
X178638Y80926D01*
X178733Y80884D01*
X178827Y80838D01*
X178919Y80788D01*
X179009Y80736D01*
X179097Y80680D01*
X179183Y80620D01*
X179267Y80558D01*
X179348Y80493D01*
X179427Y80425D01*
X179504Y80353D01*
X179577Y80280D01*
X179649Y80203D01*
X179717Y80124D01*
X179782Y80043D01*
X179844Y79959D01*
X179904Y79873D01*
X179960Y79785D01*
X180012Y79695D01*
X180062Y79603D01*
X180108Y79509D01*
X180150Y79414D01*
X180189Y79317D01*
X180225Y79219D01*
X180257Y79119D01*
X180285Y79019D01*
X180310Y78917D01*
X180330Y78815D01*
X180348Y78712D01*
X180361Y78609D01*
X180370Y78505D01*
X180376Y78400D01*
X180378Y78296D01*
X177520Y81153D02*
X177402Y81151D01*
X177283Y81145D01*
X177165Y81136D01*
X177048Y81123D01*
X176931Y81105D01*
X176814Y81085D01*
X176698Y81060D01*
X176583Y81032D01*
X176470Y80999D01*
X176357Y80964D01*
X176245Y80924D01*
X176135Y80882D01*
X176026Y80835D01*
X175918Y80785D01*
X175813Y80732D01*
X175709Y80675D01*
X175607Y80615D01*
X175507Y80552D01*
X175409Y80485D01*
X175313Y80416D01*
X175220Y80343D01*
X175129Y80267D01*
X175040Y80189D01*
X174954Y80107D01*
X174871Y80023D01*
X174790Y79937D01*
X174713Y79847D01*
X174638Y79756D01*
X174566Y79662D01*
X174497Y79565D01*
X174432Y79467D01*
X174369Y79366D01*
X174310Y79263D01*
X174254Y79159D01*
X174202Y79053D01*
X174153Y78945D01*
X174108Y78836D01*
X174066Y78725D01*
X174028Y78613D01*
X179425Y76074D02*
X179501Y76149D01*
X179576Y76228D01*
X179647Y76309D01*
X179716Y76393D01*
X179781Y76479D01*
X179843Y76567D01*
X179903Y76657D01*
X179959Y76749D01*
X180012Y76844D01*
X180061Y76940D01*
X180107Y77038D01*
X180150Y77137D01*
X180189Y77238D01*
X180224Y77340D01*
X180256Y77443D01*
X180284Y77547D01*
X180309Y77652D01*
X180330Y77759D01*
X180347Y77865D01*
X180360Y77972D01*
X180369Y78080D01*
X180375Y78188D01*
X180377Y78296D01*
X179425Y76073D02*
X174027Y69723D01*
X180377Y69723D01*
D14*
X635000Y31750D02*
X635000Y19050D01*
X628650Y12700D01*
X615950Y12700D02*
X609600Y19050D01*
X635000Y57150D02*
X628650Y63500D01*
X635000Y57150D02*
X635000Y44450D01*
X628650Y38100D01*
X615950Y38100D02*
X609600Y44450D01*
X609600Y57150D01*
X615950Y63500D01*
X628650Y38100D02*
X635000Y31750D01*
X615950Y38100D02*
X609600Y31750D01*
X609600Y19050D01*
X635000Y95250D02*
X635000Y107950D01*
X635000Y95250D02*
X628650Y88900D01*
X615950Y88900D02*
X609600Y95250D01*
X628650Y88900D02*
X635000Y82550D01*
X635000Y69850D01*
X628650Y63500D01*
X615950Y63500D02*
X609600Y69850D01*
X609600Y82550D01*
X615950Y88900D01*
X615950Y114300D02*
X628650Y114300D01*
X635000Y107950D01*
X615950Y114300D02*
X609600Y107950D01*
X609600Y95250D01*
X615950Y12700D02*
X628650Y12700D01*
D10*
X652653Y88863D02*
X652653Y91403D01*
X652653Y88863D02*
X652651Y88763D01*
X652645Y88664D01*
X652635Y88564D01*
X652622Y88466D01*
X652604Y88367D01*
X652583Y88270D01*
X652558Y88174D01*
X652529Y88078D01*
X652496Y87984D01*
X652460Y87891D01*
X652420Y87800D01*
X652376Y87710D01*
X652329Y87622D01*
X652279Y87536D01*
X652225Y87452D01*
X652168Y87370D01*
X652108Y87291D01*
X652044Y87213D01*
X651978Y87139D01*
X651909Y87067D01*
X651837Y86998D01*
X651763Y86932D01*
X651685Y86868D01*
X651606Y86808D01*
X651524Y86751D01*
X651440Y86697D01*
X651354Y86647D01*
X651266Y86600D01*
X651176Y86556D01*
X651085Y86516D01*
X650992Y86480D01*
X650898Y86447D01*
X650802Y86418D01*
X650706Y86393D01*
X650609Y86372D01*
X650510Y86354D01*
X650412Y86341D01*
X650312Y86331D01*
X650213Y86325D01*
X650113Y86323D01*
X643763Y86323D01*
X643663Y86325D01*
X643564Y86331D01*
X643464Y86341D01*
X643366Y86354D01*
X643267Y86372D01*
X643170Y86393D01*
X643074Y86418D01*
X642978Y86447D01*
X642884Y86480D01*
X642791Y86516D01*
X642700Y86556D01*
X642610Y86600D01*
X642522Y86647D01*
X642436Y86697D01*
X642352Y86751D01*
X642270Y86808D01*
X642191Y86868D01*
X642113Y86932D01*
X642039Y86998D01*
X641967Y87067D01*
X641898Y87139D01*
X641832Y87213D01*
X641768Y87291D01*
X641708Y87370D01*
X641651Y87452D01*
X641597Y87536D01*
X641547Y87622D01*
X641500Y87710D01*
X641456Y87800D01*
X641416Y87891D01*
X641380Y87984D01*
X641347Y88078D01*
X641318Y88174D01*
X641293Y88270D01*
X641272Y88367D01*
X641254Y88466D01*
X641241Y88564D01*
X641231Y88664D01*
X641225Y88763D01*
X641223Y88863D01*
X641223Y91403D01*
X641223Y96266D02*
X652653Y96266D01*
X652653Y102616D02*
X641223Y96266D01*
X641223Y102616D02*
X652653Y102616D01*
X652653Y108077D02*
X652653Y111252D01*
X652651Y111363D01*
X652645Y111473D01*
X652636Y111584D01*
X652622Y111694D01*
X652605Y111803D01*
X652584Y111912D01*
X652559Y112020D01*
X652530Y112127D01*
X652498Y112233D01*
X652462Y112338D01*
X652422Y112441D01*
X652379Y112543D01*
X652332Y112644D01*
X652281Y112743D01*
X652228Y112840D01*
X652171Y112934D01*
X652110Y113027D01*
X652047Y113118D01*
X651980Y113207D01*
X651910Y113293D01*
X651837Y113376D01*
X651762Y113458D01*
X651684Y113536D01*
X651602Y113611D01*
X651519Y113684D01*
X651433Y113754D01*
X651344Y113821D01*
X651253Y113884D01*
X651160Y113945D01*
X651066Y114002D01*
X650969Y114055D01*
X650870Y114106D01*
X650769Y114153D01*
X650667Y114196D01*
X650564Y114236D01*
X650459Y114272D01*
X650353Y114304D01*
X650246Y114333D01*
X650138Y114358D01*
X650029Y114379D01*
X649920Y114396D01*
X649810Y114410D01*
X649699Y114419D01*
X649589Y114425D01*
X649478Y114427D01*
X649367Y114425D01*
X649257Y114419D01*
X649146Y114410D01*
X649036Y114396D01*
X648927Y114379D01*
X648818Y114358D01*
X648710Y114333D01*
X648603Y114304D01*
X648497Y114272D01*
X648392Y114236D01*
X648289Y114196D01*
X648187Y114153D01*
X648086Y114106D01*
X647987Y114055D01*
X647891Y114002D01*
X647796Y113945D01*
X647703Y113884D01*
X647612Y113821D01*
X647523Y113754D01*
X647437Y113684D01*
X647354Y113611D01*
X647272Y113536D01*
X647194Y113458D01*
X647119Y113376D01*
X647046Y113293D01*
X646976Y113207D01*
X646909Y113118D01*
X646846Y113027D01*
X646785Y112934D01*
X646728Y112839D01*
X646675Y112743D01*
X646624Y112644D01*
X646577Y112543D01*
X646534Y112441D01*
X646494Y112338D01*
X646458Y112233D01*
X646426Y112127D01*
X646397Y112020D01*
X646372Y111912D01*
X646351Y111803D01*
X646334Y111694D01*
X646320Y111584D01*
X646311Y111473D01*
X646305Y111363D01*
X646303Y111252D01*
X641223Y111887D02*
X641223Y108077D01*
X641223Y111887D02*
X641225Y111987D01*
X641231Y112086D01*
X641241Y112186D01*
X641254Y112284D01*
X641272Y112383D01*
X641293Y112480D01*
X641318Y112576D01*
X641347Y112672D01*
X641380Y112766D01*
X641416Y112859D01*
X641456Y112950D01*
X641500Y113040D01*
X641547Y113128D01*
X641597Y113214D01*
X641651Y113298D01*
X641708Y113380D01*
X641768Y113459D01*
X641832Y113537D01*
X641898Y113611D01*
X641967Y113683D01*
X642039Y113752D01*
X642113Y113818D01*
X642191Y113882D01*
X642270Y113942D01*
X642352Y113999D01*
X642436Y114053D01*
X642522Y114103D01*
X642610Y114150D01*
X642700Y114194D01*
X642791Y114234D01*
X642884Y114270D01*
X642978Y114303D01*
X643074Y114332D01*
X643170Y114357D01*
X643267Y114378D01*
X643366Y114396D01*
X643464Y114409D01*
X643564Y114419D01*
X643663Y114425D01*
X643763Y114427D01*
X643863Y114425D01*
X643962Y114419D01*
X644062Y114409D01*
X644160Y114396D01*
X644259Y114378D01*
X644356Y114357D01*
X644452Y114332D01*
X644548Y114303D01*
X644642Y114270D01*
X644735Y114234D01*
X644826Y114194D01*
X644916Y114150D01*
X645004Y114103D01*
X645090Y114053D01*
X645174Y113999D01*
X645256Y113942D01*
X645335Y113882D01*
X645413Y113818D01*
X645487Y113752D01*
X645559Y113683D01*
X645628Y113611D01*
X645694Y113537D01*
X645758Y113459D01*
X645818Y113380D01*
X645875Y113298D01*
X645929Y113214D01*
X645979Y113128D01*
X646026Y113040D01*
X646070Y112950D01*
X646110Y112859D01*
X646146Y112766D01*
X646179Y112672D01*
X646208Y112576D01*
X646233Y112480D01*
X646254Y112383D01*
X646272Y112284D01*
X646285Y112186D01*
X646295Y112086D01*
X646301Y111987D01*
X646303Y111887D01*
X646303Y109347D01*
D13*
X756500Y43100D02*
X756624Y43233D01*
X756752Y43363D01*
X756882Y43490D01*
X757016Y43614D01*
X757152Y43735D01*
X757292Y43852D01*
X757434Y43965D01*
X757579Y44075D01*
X757727Y44182D01*
X757877Y44285D01*
X758030Y44384D01*
X758185Y44479D01*
X758342Y44571D01*
X758502Y44658D01*
X758664Y44742D01*
X758827Y44822D01*
X758993Y44898D01*
X759160Y44969D01*
X759330Y45037D01*
X759500Y45100D01*
X759672Y45159D01*
X759846Y45214D01*
X760021Y45265D01*
X760197Y45311D01*
X760374Y45353D01*
X760552Y45391D01*
X760732Y45424D01*
X760911Y45453D01*
X761092Y45477D01*
X761273Y45497D01*
X761454Y45513D01*
X761636Y45524D01*
X761818Y45531D01*
X762000Y45533D01*
X762182Y45531D01*
X762364Y45524D01*
X762546Y45513D01*
X762727Y45497D01*
X762908Y45477D01*
X763089Y45453D01*
X763268Y45424D01*
X763448Y45391D01*
X763626Y45353D01*
X763803Y45311D01*
X763979Y45265D01*
X764154Y45214D01*
X764328Y45159D01*
X764500Y45100D01*
X764670Y45037D01*
X764840Y44969D01*
X765007Y44898D01*
X765173Y44822D01*
X765336Y44742D01*
X765498Y44658D01*
X765658Y44571D01*
X765815Y44479D01*
X765970Y44384D01*
X766123Y44285D01*
X766273Y44182D01*
X766421Y44075D01*
X766566Y43965D01*
X766708Y43852D01*
X766848Y43735D01*
X766984Y43614D01*
X767118Y43490D01*
X767248Y43363D01*
X767376Y43233D01*
X767500Y43100D01*
X767500Y33100D02*
X767376Y32967D01*
X767248Y32837D01*
X767118Y32710D01*
X766984Y32586D01*
X766848Y32465D01*
X766708Y32348D01*
X766566Y32235D01*
X766421Y32125D01*
X766273Y32018D01*
X766123Y31915D01*
X765970Y31816D01*
X765815Y31721D01*
X765658Y31629D01*
X765498Y31542D01*
X765336Y31458D01*
X765173Y31378D01*
X765007Y31302D01*
X764840Y31231D01*
X764670Y31163D01*
X764500Y31100D01*
X764328Y31041D01*
X764154Y30986D01*
X763979Y30935D01*
X763803Y30889D01*
X763626Y30847D01*
X763448Y30809D01*
X763268Y30776D01*
X763089Y30747D01*
X762908Y30723D01*
X762727Y30703D01*
X762546Y30687D01*
X762364Y30676D01*
X762182Y30669D01*
X762000Y30667D01*
X761818Y30669D01*
X761636Y30676D01*
X761454Y30687D01*
X761273Y30703D01*
X761092Y30723D01*
X760911Y30747D01*
X760732Y30776D01*
X760552Y30809D01*
X760374Y30847D01*
X760197Y30889D01*
X760021Y30935D01*
X759846Y30986D01*
X759672Y31041D01*
X759500Y31100D01*
X759330Y31163D01*
X759160Y31231D01*
X758993Y31302D01*
X758827Y31378D01*
X758664Y31458D01*
X758502Y31542D01*
X758342Y31629D01*
X758185Y31721D01*
X758030Y31816D01*
X757877Y31915D01*
X757727Y32018D01*
X757579Y32125D01*
X757434Y32235D01*
X757292Y32348D01*
X757152Y32465D01*
X757016Y32586D01*
X756882Y32710D01*
X756752Y32837D01*
X756624Y32967D01*
X756500Y33100D01*
D15*
X762000Y38100D03*
D16*
X756750Y43850D03*
D13*
X730377Y19699D02*
X728430Y19699D01*
X730377Y19699D02*
X730377Y13208D01*
X726482Y13208D01*
X726383Y13210D01*
X726283Y13216D01*
X726184Y13225D01*
X726086Y13238D01*
X725988Y13255D01*
X725890Y13276D01*
X725794Y13301D01*
X725699Y13329D01*
X725605Y13361D01*
X725512Y13396D01*
X725420Y13435D01*
X725330Y13478D01*
X725242Y13523D01*
X725155Y13573D01*
X725071Y13625D01*
X724988Y13681D01*
X724908Y13739D01*
X724830Y13801D01*
X724755Y13866D01*
X724682Y13934D01*
X724612Y14004D01*
X724544Y14077D01*
X724479Y14152D01*
X724417Y14230D01*
X724359Y14310D01*
X724303Y14393D01*
X724251Y14477D01*
X724201Y14564D01*
X724156Y14652D01*
X724113Y14742D01*
X724074Y14834D01*
X724039Y14927D01*
X724007Y15021D01*
X723979Y15116D01*
X723954Y15212D01*
X723933Y15310D01*
X723916Y15408D01*
X723903Y15506D01*
X723894Y15605D01*
X723888Y15705D01*
X723886Y15804D01*
X723886Y22296D01*
X723888Y22395D01*
X723894Y22495D01*
X723903Y22594D01*
X723916Y22692D01*
X723933Y22790D01*
X723954Y22888D01*
X723979Y22984D01*
X724007Y23079D01*
X724039Y23173D01*
X724074Y23266D01*
X724113Y23358D01*
X724156Y23448D01*
X724201Y23536D01*
X724251Y23623D01*
X724303Y23707D01*
X724359Y23790D01*
X724417Y23870D01*
X724479Y23948D01*
X724544Y24023D01*
X724612Y24096D01*
X724682Y24166D01*
X724755Y24234D01*
X724830Y24299D01*
X724908Y24361D01*
X724988Y24419D01*
X725071Y24475D01*
X725155Y24527D01*
X725242Y24577D01*
X725330Y24622D01*
X725420Y24665D01*
X725512Y24704D01*
X725604Y24739D01*
X725699Y24771D01*
X725794Y24799D01*
X725890Y24824D01*
X725988Y24845D01*
X726086Y24862D01*
X726184Y24875D01*
X726283Y24884D01*
X726383Y24890D01*
X726482Y24892D01*
X730377Y24892D01*
X736152Y24892D02*
X736152Y13208D01*
X736152Y24892D02*
X739397Y24892D01*
X739510Y24890D01*
X739623Y24884D01*
X739736Y24874D01*
X739849Y24860D01*
X739961Y24843D01*
X740072Y24821D01*
X740182Y24796D01*
X740292Y24766D01*
X740400Y24733D01*
X740507Y24696D01*
X740613Y24656D01*
X740717Y24611D01*
X740820Y24563D01*
X740921Y24512D01*
X741020Y24457D01*
X741117Y24399D01*
X741212Y24337D01*
X741305Y24272D01*
X741395Y24204D01*
X741483Y24133D01*
X741569Y24058D01*
X741652Y23981D01*
X741732Y23901D01*
X741809Y23818D01*
X741884Y23732D01*
X741955Y23644D01*
X742023Y23554D01*
X742088Y23461D01*
X742150Y23366D01*
X742208Y23269D01*
X742263Y23170D01*
X742314Y23069D01*
X742362Y22966D01*
X742407Y22862D01*
X742447Y22756D01*
X742484Y22649D01*
X742517Y22541D01*
X742547Y22431D01*
X742572Y22321D01*
X742594Y22210D01*
X742611Y22098D01*
X742625Y21985D01*
X742635Y21872D01*
X742641Y21759D01*
X742643Y21646D01*
X742641Y21533D01*
X742635Y21420D01*
X742625Y21307D01*
X742611Y21194D01*
X742594Y21082D01*
X742572Y20971D01*
X742547Y20861D01*
X742517Y20751D01*
X742484Y20643D01*
X742447Y20536D01*
X742407Y20430D01*
X742362Y20326D01*
X742314Y20223D01*
X742263Y20122D01*
X742208Y20023D01*
X742150Y19926D01*
X742088Y19831D01*
X742023Y19738D01*
X741955Y19648D01*
X741884Y19560D01*
X741809Y19474D01*
X741732Y19391D01*
X741652Y19311D01*
X741569Y19234D01*
X741483Y19159D01*
X741395Y19088D01*
X741305Y19020D01*
X741212Y18955D01*
X741117Y18893D01*
X741020Y18835D01*
X740921Y18780D01*
X740820Y18729D01*
X740717Y18681D01*
X740613Y18636D01*
X740507Y18596D01*
X740400Y18559D01*
X740292Y18526D01*
X740182Y18496D01*
X740072Y18471D01*
X739961Y18449D01*
X739849Y18432D01*
X739736Y18418D01*
X739623Y18408D01*
X739510Y18402D01*
X739397Y18400D01*
X739397Y18401D02*
X736152Y18401D01*
X740046Y18401D02*
X742643Y13208D01*
X747912Y13208D02*
X753104Y13208D01*
X747912Y13208D02*
X747912Y24892D01*
X753104Y24892D01*
X751806Y19699D02*
X747912Y19699D01*
X757818Y13208D02*
X763010Y13208D01*
X757818Y13208D02*
X757818Y24892D01*
X763010Y24892D01*
X761712Y19699D02*
X757818Y19699D01*
X767701Y24892D02*
X767701Y13208D01*
X774192Y13208D02*
X767701Y24892D01*
X774192Y24892D02*
X774192Y13208D01*
D17*
X177500Y205500D02*
X175500Y203500D01*
X203500Y205500D02*
X205500Y205500D01*
X205500Y203500D01*
X205500Y177500D02*
X205500Y175500D01*
X203500Y175500D01*
X177500Y175500D02*
X175500Y175500D01*
X175500Y177500D01*
D18*
X172500Y205500D03*
D13*
X167306Y214408D02*
X167306Y226092D01*
X166008Y214408D02*
X168604Y214408D01*
X168604Y226092D02*
X166008Y226092D01*
X175768Y214408D02*
X178364Y214408D01*
X175768Y214408D02*
X175669Y214410D01*
X175569Y214416D01*
X175470Y214425D01*
X175372Y214438D01*
X175274Y214455D01*
X175176Y214476D01*
X175080Y214501D01*
X174985Y214529D01*
X174891Y214561D01*
X174798Y214596D01*
X174706Y214635D01*
X174616Y214678D01*
X174528Y214723D01*
X174441Y214773D01*
X174357Y214825D01*
X174274Y214881D01*
X174194Y214939D01*
X174116Y215001D01*
X174041Y215066D01*
X173968Y215134D01*
X173898Y215204D01*
X173830Y215277D01*
X173765Y215352D01*
X173703Y215430D01*
X173645Y215510D01*
X173589Y215593D01*
X173537Y215677D01*
X173487Y215764D01*
X173442Y215852D01*
X173399Y215942D01*
X173360Y216034D01*
X173325Y216127D01*
X173293Y216221D01*
X173265Y216316D01*
X173240Y216412D01*
X173219Y216510D01*
X173202Y216608D01*
X173189Y216706D01*
X173180Y216805D01*
X173174Y216905D01*
X173172Y217004D01*
X173171Y217004D02*
X173171Y223496D01*
X173172Y223496D02*
X173174Y223595D01*
X173180Y223695D01*
X173189Y223794D01*
X173202Y223892D01*
X173219Y223990D01*
X173240Y224088D01*
X173265Y224184D01*
X173293Y224279D01*
X173325Y224373D01*
X173360Y224466D01*
X173399Y224558D01*
X173442Y224648D01*
X173487Y224736D01*
X173537Y224823D01*
X173589Y224907D01*
X173645Y224990D01*
X173703Y225070D01*
X173765Y225148D01*
X173830Y225223D01*
X173898Y225296D01*
X173968Y225366D01*
X174041Y225434D01*
X174116Y225499D01*
X174194Y225561D01*
X174274Y225619D01*
X174357Y225675D01*
X174441Y225727D01*
X174528Y225777D01*
X174616Y225822D01*
X174706Y225865D01*
X174798Y225904D01*
X174890Y225939D01*
X174985Y225971D01*
X175080Y225999D01*
X175176Y226024D01*
X175274Y226045D01*
X175372Y226062D01*
X175470Y226075D01*
X175569Y226084D01*
X175669Y226090D01*
X175768Y226092D01*
X178364Y226092D01*
X183224Y226092D02*
X183224Y214408D01*
X187118Y219601D02*
X183224Y226092D01*
X187118Y219601D02*
X191013Y226092D01*
X191013Y214408D01*
X195952Y213110D02*
X201145Y213110D01*
X205590Y223496D02*
X208835Y226092D01*
X208835Y214408D01*
X205590Y214408D02*
X212081Y214408D01*
X648208Y121158D02*
X659892Y121158D01*
X648208Y121158D02*
X648208Y124404D01*
X648210Y124517D01*
X648216Y124630D01*
X648226Y124743D01*
X648240Y124856D01*
X648257Y124968D01*
X648279Y125079D01*
X648304Y125189D01*
X648334Y125299D01*
X648367Y125407D01*
X648404Y125514D01*
X648444Y125620D01*
X648489Y125724D01*
X648537Y125827D01*
X648588Y125928D01*
X648643Y126027D01*
X648701Y126124D01*
X648763Y126219D01*
X648828Y126312D01*
X648896Y126402D01*
X648967Y126490D01*
X649042Y126576D01*
X649119Y126659D01*
X649199Y126739D01*
X649282Y126816D01*
X649368Y126891D01*
X649456Y126962D01*
X649546Y127030D01*
X649639Y127095D01*
X649734Y127157D01*
X649831Y127215D01*
X649930Y127270D01*
X650031Y127321D01*
X650134Y127369D01*
X650238Y127414D01*
X650344Y127454D01*
X650451Y127491D01*
X650559Y127524D01*
X650669Y127554D01*
X650779Y127579D01*
X650890Y127601D01*
X651002Y127618D01*
X651115Y127632D01*
X651228Y127642D01*
X651341Y127648D01*
X651454Y127650D01*
X651567Y127648D01*
X651680Y127642D01*
X651793Y127632D01*
X651906Y127618D01*
X652018Y127601D01*
X652129Y127579D01*
X652239Y127554D01*
X652349Y127524D01*
X652457Y127491D01*
X652564Y127454D01*
X652670Y127414D01*
X652774Y127369D01*
X652877Y127321D01*
X652978Y127270D01*
X653077Y127215D01*
X653174Y127157D01*
X653269Y127095D01*
X653362Y127030D01*
X653452Y126962D01*
X653540Y126891D01*
X653626Y126816D01*
X653709Y126739D01*
X653789Y126659D01*
X653866Y126576D01*
X653941Y126490D01*
X654012Y126402D01*
X654080Y126312D01*
X654145Y126219D01*
X654207Y126124D01*
X654265Y126027D01*
X654320Y125928D01*
X654371Y125827D01*
X654419Y125724D01*
X654464Y125620D01*
X654504Y125514D01*
X654541Y125407D01*
X654574Y125299D01*
X654604Y125189D01*
X654629Y125079D01*
X654651Y124968D01*
X654668Y124856D01*
X654682Y124743D01*
X654692Y124630D01*
X654698Y124517D01*
X654700Y124404D01*
X654699Y124404D02*
X654699Y121158D01*
X654699Y125053D02*
X659892Y127649D01*
X650804Y132514D02*
X648208Y135760D01*
X659892Y135760D01*
X659892Y139005D02*
X659892Y132514D01*
X151892Y133858D02*
X140208Y133858D01*
X140208Y137104D01*
X140210Y137217D01*
X140216Y137330D01*
X140226Y137443D01*
X140240Y137556D01*
X140257Y137668D01*
X140279Y137779D01*
X140304Y137889D01*
X140334Y137999D01*
X140367Y138107D01*
X140404Y138214D01*
X140444Y138320D01*
X140489Y138424D01*
X140537Y138527D01*
X140588Y138628D01*
X140643Y138727D01*
X140701Y138824D01*
X140763Y138919D01*
X140828Y139012D01*
X140896Y139102D01*
X140967Y139190D01*
X141042Y139276D01*
X141119Y139359D01*
X141199Y139439D01*
X141282Y139516D01*
X141368Y139591D01*
X141456Y139662D01*
X141546Y139730D01*
X141639Y139795D01*
X141734Y139857D01*
X141831Y139915D01*
X141930Y139970D01*
X142031Y140021D01*
X142134Y140069D01*
X142238Y140114D01*
X142344Y140154D01*
X142451Y140191D01*
X142559Y140224D01*
X142669Y140254D01*
X142779Y140279D01*
X142890Y140301D01*
X143002Y140318D01*
X143115Y140332D01*
X143228Y140342D01*
X143341Y140348D01*
X143454Y140350D01*
X143567Y140348D01*
X143680Y140342D01*
X143793Y140332D01*
X143906Y140318D01*
X144018Y140301D01*
X144129Y140279D01*
X144239Y140254D01*
X144349Y140224D01*
X144457Y140191D01*
X144564Y140154D01*
X144670Y140114D01*
X144774Y140069D01*
X144877Y140021D01*
X144978Y139970D01*
X145077Y139915D01*
X145174Y139857D01*
X145269Y139795D01*
X145362Y139730D01*
X145452Y139662D01*
X145540Y139591D01*
X145626Y139516D01*
X145709Y139439D01*
X145789Y139359D01*
X145866Y139276D01*
X145941Y139190D01*
X146012Y139102D01*
X146080Y139012D01*
X146145Y138919D01*
X146207Y138824D01*
X146265Y138727D01*
X146320Y138628D01*
X146371Y138527D01*
X146419Y138424D01*
X146464Y138320D01*
X146504Y138214D01*
X146541Y138107D01*
X146574Y137999D01*
X146604Y137889D01*
X146629Y137779D01*
X146651Y137668D01*
X146668Y137556D01*
X146682Y137443D01*
X146692Y137330D01*
X146698Y137217D01*
X146700Y137104D01*
X146699Y137104D02*
X146699Y133858D01*
X146699Y137753D02*
X151892Y140349D01*
X143129Y151705D02*
X143022Y151703D01*
X142916Y151697D01*
X142810Y151687D01*
X142704Y151674D01*
X142598Y151656D01*
X142494Y151635D01*
X142390Y151610D01*
X142287Y151581D01*
X142186Y151549D01*
X142086Y151512D01*
X141987Y151472D01*
X141889Y151429D01*
X141793Y151382D01*
X141699Y151331D01*
X141607Y151277D01*
X141517Y151220D01*
X141429Y151160D01*
X141344Y151096D01*
X141261Y151029D01*
X141180Y150959D01*
X141102Y150887D01*
X141026Y150811D01*
X140954Y150733D01*
X140884Y150652D01*
X140817Y150569D01*
X140753Y150484D01*
X140693Y150396D01*
X140636Y150306D01*
X140582Y150214D01*
X140531Y150120D01*
X140484Y150024D01*
X140441Y149926D01*
X140401Y149827D01*
X140364Y149727D01*
X140332Y149626D01*
X140303Y149523D01*
X140278Y149419D01*
X140257Y149315D01*
X140239Y149209D01*
X140226Y149103D01*
X140216Y148997D01*
X140210Y148891D01*
X140208Y148784D01*
X140210Y148663D01*
X140216Y148542D01*
X140226Y148422D01*
X140239Y148301D01*
X140257Y148182D01*
X140278Y148062D01*
X140303Y147944D01*
X140332Y147827D01*
X140365Y147710D01*
X140401Y147595D01*
X140442Y147481D01*
X140485Y147368D01*
X140533Y147256D01*
X140584Y147147D01*
X140639Y147039D01*
X140697Y146932D01*
X140758Y146828D01*
X140823Y146726D01*
X140891Y146626D01*
X140962Y146528D01*
X141036Y146432D01*
X141113Y146339D01*
X141194Y146249D01*
X141277Y146161D01*
X141363Y146076D01*
X141452Y145993D01*
X141543Y145914D01*
X141637Y145837D01*
X141733Y145764D01*
X141831Y145694D01*
X141932Y145627D01*
X142035Y145563D01*
X142140Y145503D01*
X142247Y145445D01*
X142355Y145392D01*
X142465Y145342D01*
X142577Y145296D01*
X142690Y145253D01*
X142805Y145214D01*
X145401Y150731D02*
X145323Y150810D01*
X145243Y150886D01*
X145160Y150959D01*
X145074Y151029D01*
X144987Y151096D01*
X144896Y151160D01*
X144804Y151220D01*
X144710Y151278D01*
X144613Y151332D01*
X144515Y151382D01*
X144415Y151429D01*
X144314Y151473D01*
X144211Y151513D01*
X144106Y151549D01*
X144001Y151581D01*
X143894Y151610D01*
X143787Y151635D01*
X143678Y151657D01*
X143569Y151674D01*
X143460Y151688D01*
X143350Y151697D01*
X143239Y151703D01*
X143129Y151705D01*
X145401Y150732D02*
X151892Y145214D01*
X151892Y151705D01*
X756158Y113792D02*
X756158Y102108D01*
X756158Y113792D02*
X759404Y113792D01*
X759517Y113790D01*
X759630Y113784D01*
X759743Y113774D01*
X759856Y113760D01*
X759968Y113743D01*
X760079Y113721D01*
X760189Y113696D01*
X760299Y113666D01*
X760407Y113633D01*
X760514Y113596D01*
X760620Y113556D01*
X760724Y113511D01*
X760827Y113463D01*
X760928Y113412D01*
X761027Y113357D01*
X761124Y113299D01*
X761219Y113237D01*
X761312Y113172D01*
X761402Y113104D01*
X761490Y113033D01*
X761576Y112958D01*
X761659Y112881D01*
X761739Y112801D01*
X761816Y112718D01*
X761891Y112632D01*
X761962Y112544D01*
X762030Y112454D01*
X762095Y112361D01*
X762157Y112266D01*
X762215Y112169D01*
X762270Y112070D01*
X762321Y111969D01*
X762369Y111866D01*
X762414Y111762D01*
X762454Y111656D01*
X762491Y111549D01*
X762524Y111441D01*
X762554Y111331D01*
X762579Y111221D01*
X762601Y111110D01*
X762618Y110998D01*
X762632Y110885D01*
X762642Y110772D01*
X762648Y110659D01*
X762650Y110546D01*
X762648Y110433D01*
X762642Y110320D01*
X762632Y110207D01*
X762618Y110094D01*
X762601Y109982D01*
X762579Y109871D01*
X762554Y109761D01*
X762524Y109651D01*
X762491Y109543D01*
X762454Y109436D01*
X762414Y109330D01*
X762369Y109226D01*
X762321Y109123D01*
X762270Y109022D01*
X762215Y108923D01*
X762157Y108826D01*
X762095Y108731D01*
X762030Y108638D01*
X761962Y108548D01*
X761891Y108460D01*
X761816Y108374D01*
X761739Y108291D01*
X761659Y108211D01*
X761576Y108134D01*
X761490Y108059D01*
X761402Y107988D01*
X761312Y107920D01*
X761219Y107855D01*
X761124Y107793D01*
X761027Y107735D01*
X760928Y107680D01*
X760827Y107629D01*
X760724Y107581D01*
X760620Y107536D01*
X760514Y107496D01*
X760407Y107459D01*
X760299Y107426D01*
X760189Y107396D01*
X760079Y107371D01*
X759968Y107349D01*
X759856Y107332D01*
X759743Y107318D01*
X759630Y107308D01*
X759517Y107302D01*
X759404Y107300D01*
X759404Y107301D02*
X756158Y107301D01*
X760053Y107301D02*
X762649Y102108D01*
X767514Y102108D02*
X770760Y102108D01*
X770873Y102110D01*
X770986Y102116D01*
X771099Y102126D01*
X771212Y102140D01*
X771324Y102157D01*
X771435Y102179D01*
X771545Y102204D01*
X771655Y102234D01*
X771763Y102267D01*
X771870Y102304D01*
X771976Y102344D01*
X772080Y102389D01*
X772183Y102437D01*
X772284Y102488D01*
X772383Y102543D01*
X772480Y102601D01*
X772575Y102663D01*
X772668Y102728D01*
X772758Y102796D01*
X772846Y102867D01*
X772932Y102942D01*
X773015Y103019D01*
X773095Y103099D01*
X773172Y103182D01*
X773247Y103268D01*
X773318Y103356D01*
X773386Y103446D01*
X773451Y103539D01*
X773513Y103634D01*
X773571Y103731D01*
X773626Y103830D01*
X773677Y103931D01*
X773725Y104034D01*
X773770Y104138D01*
X773810Y104244D01*
X773847Y104351D01*
X773880Y104459D01*
X773910Y104569D01*
X773935Y104679D01*
X773957Y104790D01*
X773974Y104902D01*
X773988Y105015D01*
X773998Y105128D01*
X774004Y105241D01*
X774006Y105354D01*
X774004Y105467D01*
X773998Y105580D01*
X773988Y105693D01*
X773974Y105806D01*
X773957Y105918D01*
X773935Y106029D01*
X773910Y106139D01*
X773880Y106249D01*
X773847Y106357D01*
X773810Y106464D01*
X773770Y106570D01*
X773725Y106674D01*
X773677Y106777D01*
X773626Y106878D01*
X773571Y106977D01*
X773513Y107074D01*
X773451Y107169D01*
X773386Y107262D01*
X773318Y107352D01*
X773247Y107440D01*
X773172Y107526D01*
X773095Y107609D01*
X773015Y107689D01*
X772932Y107766D01*
X772846Y107841D01*
X772758Y107912D01*
X772668Y107980D01*
X772575Y108045D01*
X772480Y108107D01*
X772383Y108165D01*
X772284Y108220D01*
X772183Y108271D01*
X772080Y108319D01*
X771976Y108364D01*
X771870Y108404D01*
X771763Y108441D01*
X771655Y108474D01*
X771545Y108504D01*
X771435Y108529D01*
X771324Y108551D01*
X771212Y108568D01*
X771099Y108582D01*
X770986Y108592D01*
X770873Y108598D01*
X770760Y108600D01*
X771409Y113792D02*
X767514Y113792D01*
X771409Y113792D02*
X771510Y113790D01*
X771610Y113784D01*
X771710Y113774D01*
X771810Y113761D01*
X771909Y113743D01*
X772008Y113722D01*
X772105Y113697D01*
X772202Y113668D01*
X772297Y113635D01*
X772391Y113599D01*
X772483Y113559D01*
X772574Y113516D01*
X772663Y113469D01*
X772750Y113419D01*
X772836Y113365D01*
X772919Y113308D01*
X772999Y113248D01*
X773078Y113185D01*
X773154Y113118D01*
X773227Y113049D01*
X773297Y112977D01*
X773365Y112903D01*
X773430Y112826D01*
X773491Y112746D01*
X773550Y112664D01*
X773605Y112580D01*
X773657Y112494D01*
X773706Y112406D01*
X773751Y112316D01*
X773793Y112224D01*
X773831Y112131D01*
X773865Y112036D01*
X773896Y111941D01*
X773923Y111844D01*
X773946Y111746D01*
X773966Y111647D01*
X773981Y111547D01*
X773993Y111447D01*
X774001Y111347D01*
X774005Y111246D01*
X774005Y111146D01*
X774001Y111045D01*
X773993Y110945D01*
X773981Y110845D01*
X773966Y110745D01*
X773946Y110646D01*
X773923Y110548D01*
X773896Y110451D01*
X773865Y110356D01*
X773831Y110261D01*
X773793Y110168D01*
X773751Y110076D01*
X773706Y109986D01*
X773657Y109898D01*
X773605Y109812D01*
X773550Y109728D01*
X773491Y109646D01*
X773430Y109566D01*
X773365Y109489D01*
X773297Y109415D01*
X773227Y109343D01*
X773154Y109274D01*
X773078Y109207D01*
X772999Y109144D01*
X772919Y109084D01*
X772836Y109027D01*
X772750Y108973D01*
X772663Y108923D01*
X772574Y108876D01*
X772483Y108833D01*
X772391Y108793D01*
X772297Y108757D01*
X772202Y108724D01*
X772105Y108695D01*
X772008Y108670D01*
X771909Y108649D01*
X771810Y108631D01*
X771710Y108618D01*
X771610Y108608D01*
X771510Y108602D01*
X771409Y108600D01*
X771409Y108599D02*
X768813Y108599D01*
X692658Y62992D02*
X692658Y51308D01*
X692658Y62992D02*
X695904Y62992D01*
X696017Y62990D01*
X696130Y62984D01*
X696243Y62974D01*
X696356Y62960D01*
X696468Y62943D01*
X696579Y62921D01*
X696689Y62896D01*
X696799Y62866D01*
X696907Y62833D01*
X697014Y62796D01*
X697120Y62756D01*
X697224Y62711D01*
X697327Y62663D01*
X697428Y62612D01*
X697527Y62557D01*
X697624Y62499D01*
X697719Y62437D01*
X697812Y62372D01*
X697902Y62304D01*
X697990Y62233D01*
X698076Y62158D01*
X698159Y62081D01*
X698239Y62001D01*
X698316Y61918D01*
X698391Y61832D01*
X698462Y61744D01*
X698530Y61654D01*
X698595Y61561D01*
X698657Y61466D01*
X698715Y61369D01*
X698770Y61270D01*
X698821Y61169D01*
X698869Y61066D01*
X698914Y60962D01*
X698954Y60856D01*
X698991Y60749D01*
X699024Y60641D01*
X699054Y60531D01*
X699079Y60421D01*
X699101Y60310D01*
X699118Y60198D01*
X699132Y60085D01*
X699142Y59972D01*
X699148Y59859D01*
X699150Y59746D01*
X699148Y59633D01*
X699142Y59520D01*
X699132Y59407D01*
X699118Y59294D01*
X699101Y59182D01*
X699079Y59071D01*
X699054Y58961D01*
X699024Y58851D01*
X698991Y58743D01*
X698954Y58636D01*
X698914Y58530D01*
X698869Y58426D01*
X698821Y58323D01*
X698770Y58222D01*
X698715Y58123D01*
X698657Y58026D01*
X698595Y57931D01*
X698530Y57838D01*
X698462Y57748D01*
X698391Y57660D01*
X698316Y57574D01*
X698239Y57491D01*
X698159Y57411D01*
X698076Y57334D01*
X697990Y57259D01*
X697902Y57188D01*
X697812Y57120D01*
X697719Y57055D01*
X697624Y56993D01*
X697527Y56935D01*
X697428Y56880D01*
X697327Y56829D01*
X697224Y56781D01*
X697120Y56736D01*
X697014Y56696D01*
X696907Y56659D01*
X696799Y56626D01*
X696689Y56596D01*
X696579Y56571D01*
X696468Y56549D01*
X696356Y56532D01*
X696243Y56518D01*
X696130Y56508D01*
X696017Y56502D01*
X695904Y56500D01*
X695904Y56501D02*
X692658Y56501D01*
X696553Y56501D02*
X699149Y51308D01*
X704014Y53904D02*
X706611Y62992D01*
X704014Y53904D02*
X710505Y53904D01*
X708558Y56501D02*
X708558Y51308D01*
X762508Y114995D02*
X774192Y114995D01*
X762508Y114995D02*
X762508Y118240D01*
X762510Y118353D01*
X762516Y118466D01*
X762526Y118579D01*
X762540Y118692D01*
X762557Y118804D01*
X762579Y118915D01*
X762604Y119025D01*
X762634Y119135D01*
X762667Y119243D01*
X762704Y119350D01*
X762744Y119456D01*
X762789Y119560D01*
X762837Y119663D01*
X762888Y119764D01*
X762943Y119863D01*
X763001Y119960D01*
X763063Y120055D01*
X763128Y120148D01*
X763196Y120238D01*
X763267Y120326D01*
X763342Y120412D01*
X763419Y120495D01*
X763499Y120575D01*
X763582Y120652D01*
X763668Y120727D01*
X763756Y120798D01*
X763846Y120866D01*
X763939Y120931D01*
X764034Y120993D01*
X764131Y121051D01*
X764230Y121106D01*
X764331Y121157D01*
X764434Y121205D01*
X764538Y121250D01*
X764644Y121290D01*
X764751Y121327D01*
X764859Y121360D01*
X764969Y121390D01*
X765079Y121415D01*
X765190Y121437D01*
X765302Y121454D01*
X765415Y121468D01*
X765528Y121478D01*
X765641Y121484D01*
X765754Y121486D01*
X765867Y121484D01*
X765980Y121478D01*
X766093Y121468D01*
X766206Y121454D01*
X766318Y121437D01*
X766429Y121415D01*
X766539Y121390D01*
X766649Y121360D01*
X766757Y121327D01*
X766864Y121290D01*
X766970Y121250D01*
X767074Y121205D01*
X767177Y121157D01*
X767278Y121106D01*
X767377Y121051D01*
X767474Y120993D01*
X767569Y120931D01*
X767662Y120866D01*
X767752Y120798D01*
X767840Y120727D01*
X767926Y120652D01*
X768009Y120575D01*
X768089Y120495D01*
X768166Y120412D01*
X768241Y120326D01*
X768312Y120238D01*
X768380Y120148D01*
X768445Y120055D01*
X768507Y119960D01*
X768565Y119863D01*
X768620Y119764D01*
X768671Y119663D01*
X768719Y119560D01*
X768764Y119456D01*
X768804Y119350D01*
X768841Y119243D01*
X768874Y119135D01*
X768904Y119025D01*
X768929Y118915D01*
X768951Y118804D01*
X768968Y118692D01*
X768982Y118579D01*
X768992Y118466D01*
X768998Y118353D01*
X769000Y118240D01*
X768999Y118240D02*
X768999Y114995D01*
X768999Y118889D02*
X774192Y121486D01*
X774192Y126351D02*
X774192Y130246D01*
X774190Y130345D01*
X774184Y130445D01*
X774175Y130544D01*
X774162Y130642D01*
X774145Y130740D01*
X774124Y130838D01*
X774099Y130934D01*
X774071Y131029D01*
X774039Y131123D01*
X774004Y131216D01*
X773965Y131308D01*
X773922Y131398D01*
X773877Y131486D01*
X773827Y131573D01*
X773775Y131657D01*
X773719Y131740D01*
X773661Y131820D01*
X773599Y131898D01*
X773534Y131973D01*
X773466Y132046D01*
X773396Y132116D01*
X773323Y132184D01*
X773248Y132249D01*
X773170Y132311D01*
X773090Y132369D01*
X773007Y132425D01*
X772923Y132477D01*
X772836Y132527D01*
X772748Y132572D01*
X772658Y132615D01*
X772566Y132654D01*
X772473Y132689D01*
X772379Y132721D01*
X772284Y132749D01*
X772188Y132774D01*
X772090Y132795D01*
X771992Y132812D01*
X771894Y132825D01*
X771795Y132834D01*
X771695Y132840D01*
X771596Y132842D01*
X770297Y132842D01*
X770198Y132840D01*
X770098Y132834D01*
X769999Y132825D01*
X769901Y132812D01*
X769803Y132795D01*
X769705Y132774D01*
X769609Y132749D01*
X769514Y132721D01*
X769420Y132689D01*
X769327Y132654D01*
X769235Y132615D01*
X769145Y132572D01*
X769057Y132527D01*
X768970Y132477D01*
X768886Y132425D01*
X768803Y132369D01*
X768723Y132311D01*
X768645Y132249D01*
X768570Y132184D01*
X768497Y132116D01*
X768427Y132046D01*
X768359Y131973D01*
X768294Y131898D01*
X768232Y131820D01*
X768174Y131740D01*
X768118Y131657D01*
X768066Y131573D01*
X768016Y131486D01*
X767971Y131398D01*
X767928Y131308D01*
X767889Y131216D01*
X767854Y131123D01*
X767822Y131029D01*
X767794Y130934D01*
X767769Y130838D01*
X767748Y130740D01*
X767731Y130642D01*
X767718Y130544D01*
X767709Y130445D01*
X767703Y130345D01*
X767701Y130246D01*
X767701Y126351D01*
X762508Y126351D01*
X762508Y132842D01*
X202692Y133858D02*
X191008Y133858D01*
X191008Y137104D01*
X191010Y137217D01*
X191016Y137330D01*
X191026Y137443D01*
X191040Y137556D01*
X191057Y137668D01*
X191079Y137779D01*
X191104Y137889D01*
X191134Y137999D01*
X191167Y138107D01*
X191204Y138214D01*
X191244Y138320D01*
X191289Y138424D01*
X191337Y138527D01*
X191388Y138628D01*
X191443Y138727D01*
X191501Y138824D01*
X191563Y138919D01*
X191628Y139012D01*
X191696Y139102D01*
X191767Y139190D01*
X191842Y139276D01*
X191919Y139359D01*
X191999Y139439D01*
X192082Y139516D01*
X192168Y139591D01*
X192256Y139662D01*
X192346Y139730D01*
X192439Y139795D01*
X192534Y139857D01*
X192631Y139915D01*
X192730Y139970D01*
X192831Y140021D01*
X192934Y140069D01*
X193038Y140114D01*
X193144Y140154D01*
X193251Y140191D01*
X193359Y140224D01*
X193469Y140254D01*
X193579Y140279D01*
X193690Y140301D01*
X193802Y140318D01*
X193915Y140332D01*
X194028Y140342D01*
X194141Y140348D01*
X194254Y140350D01*
X194367Y140348D01*
X194480Y140342D01*
X194593Y140332D01*
X194706Y140318D01*
X194818Y140301D01*
X194929Y140279D01*
X195039Y140254D01*
X195149Y140224D01*
X195257Y140191D01*
X195364Y140154D01*
X195470Y140114D01*
X195574Y140069D01*
X195677Y140021D01*
X195778Y139970D01*
X195877Y139915D01*
X195974Y139857D01*
X196069Y139795D01*
X196162Y139730D01*
X196252Y139662D01*
X196340Y139591D01*
X196426Y139516D01*
X196509Y139439D01*
X196589Y139359D01*
X196666Y139276D01*
X196741Y139190D01*
X196812Y139102D01*
X196880Y139012D01*
X196945Y138919D01*
X197007Y138824D01*
X197065Y138727D01*
X197120Y138628D01*
X197171Y138527D01*
X197219Y138424D01*
X197264Y138320D01*
X197304Y138214D01*
X197341Y138107D01*
X197374Y137999D01*
X197404Y137889D01*
X197429Y137779D01*
X197451Y137668D01*
X197468Y137556D01*
X197482Y137443D01*
X197492Y137330D01*
X197498Y137217D01*
X197500Y137104D01*
X197499Y137104D02*
X197499Y133858D01*
X197499Y137753D02*
X202692Y140349D01*
X196201Y145214D02*
X196201Y149109D01*
X196203Y149208D01*
X196209Y149308D01*
X196218Y149407D01*
X196231Y149505D01*
X196248Y149603D01*
X196269Y149701D01*
X196294Y149797D01*
X196322Y149892D01*
X196354Y149986D01*
X196389Y150079D01*
X196428Y150171D01*
X196471Y150261D01*
X196516Y150349D01*
X196566Y150436D01*
X196618Y150520D01*
X196674Y150603D01*
X196732Y150683D01*
X196794Y150761D01*
X196859Y150836D01*
X196927Y150909D01*
X196997Y150979D01*
X197070Y151047D01*
X197145Y151112D01*
X197223Y151174D01*
X197303Y151232D01*
X197386Y151288D01*
X197470Y151340D01*
X197557Y151390D01*
X197645Y151435D01*
X197735Y151478D01*
X197827Y151517D01*
X197920Y151552D01*
X198014Y151584D01*
X198109Y151612D01*
X198205Y151637D01*
X198303Y151658D01*
X198401Y151675D01*
X198499Y151688D01*
X198598Y151697D01*
X198698Y151703D01*
X198797Y151705D01*
X199446Y151705D01*
X199446Y151706D02*
X199559Y151704D01*
X199672Y151698D01*
X199785Y151688D01*
X199898Y151674D01*
X200010Y151657D01*
X200121Y151635D01*
X200231Y151610D01*
X200341Y151580D01*
X200449Y151547D01*
X200556Y151510D01*
X200662Y151470D01*
X200766Y151425D01*
X200869Y151377D01*
X200970Y151326D01*
X201069Y151271D01*
X201166Y151213D01*
X201261Y151151D01*
X201354Y151086D01*
X201444Y151018D01*
X201532Y150947D01*
X201618Y150872D01*
X201701Y150795D01*
X201781Y150715D01*
X201858Y150632D01*
X201933Y150546D01*
X202004Y150458D01*
X202072Y150368D01*
X202137Y150275D01*
X202199Y150180D01*
X202257Y150083D01*
X202312Y149984D01*
X202363Y149883D01*
X202411Y149780D01*
X202456Y149676D01*
X202496Y149570D01*
X202533Y149463D01*
X202566Y149355D01*
X202596Y149245D01*
X202621Y149135D01*
X202643Y149024D01*
X202660Y148912D01*
X202674Y148799D01*
X202684Y148686D01*
X202690Y148573D01*
X202692Y148460D01*
X202690Y148347D01*
X202684Y148234D01*
X202674Y148121D01*
X202660Y148008D01*
X202643Y147896D01*
X202621Y147785D01*
X202596Y147675D01*
X202566Y147565D01*
X202533Y147457D01*
X202496Y147350D01*
X202456Y147244D01*
X202411Y147140D01*
X202363Y147037D01*
X202312Y146936D01*
X202257Y146837D01*
X202199Y146740D01*
X202137Y146645D01*
X202072Y146552D01*
X202004Y146462D01*
X201933Y146374D01*
X201858Y146288D01*
X201781Y146205D01*
X201701Y146125D01*
X201618Y146048D01*
X201532Y145973D01*
X201444Y145902D01*
X201354Y145834D01*
X201261Y145769D01*
X201166Y145707D01*
X201069Y145649D01*
X200970Y145594D01*
X200869Y145543D01*
X200766Y145495D01*
X200662Y145450D01*
X200556Y145410D01*
X200449Y145373D01*
X200341Y145340D01*
X200231Y145310D01*
X200121Y145285D01*
X200010Y145263D01*
X199898Y145246D01*
X199785Y145232D01*
X199672Y145222D01*
X199559Y145216D01*
X199446Y145214D01*
X196201Y145214D01*
X196058Y145216D01*
X195915Y145222D01*
X195772Y145232D01*
X195630Y145246D01*
X195488Y145263D01*
X195346Y145285D01*
X195205Y145310D01*
X195065Y145340D01*
X194926Y145373D01*
X194788Y145410D01*
X194651Y145451D01*
X194515Y145495D01*
X194380Y145544D01*
X194247Y145596D01*
X194115Y145651D01*
X193985Y145711D01*
X193856Y145774D01*
X193729Y145840D01*
X193605Y145910D01*
X193482Y145983D01*
X193361Y146060D01*
X193242Y146139D01*
X193126Y146223D01*
X193011Y146309D01*
X192900Y146398D01*
X192791Y146491D01*
X192684Y146586D01*
X192580Y146685D01*
X192479Y146786D01*
X192380Y146890D01*
X192285Y146996D01*
X192192Y147106D01*
X192103Y147217D01*
X192017Y147331D01*
X191934Y147448D01*
X191854Y147567D01*
X191777Y147688D01*
X191704Y147810D01*
X191634Y147935D01*
X191568Y148062D01*
X191505Y148191D01*
X191445Y148321D01*
X191390Y148453D01*
X191338Y148586D01*
X191289Y148721D01*
X191245Y148857D01*
X191204Y148994D01*
X191167Y149132D01*
X191134Y149271D01*
X191104Y149411D01*
X191079Y149552D01*
X191057Y149694D01*
X191040Y149836D01*
X191026Y149978D01*
X191016Y150121D01*
X191010Y150264D01*
X191008Y150407D01*
X756500Y58500D02*
X756624Y58367D01*
X756752Y58237D01*
X756882Y58110D01*
X757016Y57986D01*
X757152Y57865D01*
X757292Y57748D01*
X757434Y57635D01*
X757579Y57525D01*
X757727Y57418D01*
X757877Y57315D01*
X758030Y57216D01*
X758185Y57121D01*
X758342Y57029D01*
X758502Y56942D01*
X758664Y56858D01*
X758827Y56778D01*
X758993Y56702D01*
X759160Y56631D01*
X759330Y56563D01*
X759500Y56500D01*
X759672Y56441D01*
X759846Y56386D01*
X760021Y56335D01*
X760197Y56289D01*
X760374Y56247D01*
X760552Y56209D01*
X760732Y56176D01*
X760911Y56147D01*
X761092Y56123D01*
X761273Y56103D01*
X761454Y56087D01*
X761636Y56076D01*
X761818Y56069D01*
X762000Y56067D01*
X762182Y56069D01*
X762364Y56076D01*
X762546Y56087D01*
X762727Y56103D01*
X762908Y56123D01*
X763089Y56147D01*
X763268Y56176D01*
X763448Y56209D01*
X763626Y56247D01*
X763803Y56289D01*
X763979Y56335D01*
X764154Y56386D01*
X764328Y56441D01*
X764500Y56500D01*
X764670Y56563D01*
X764840Y56631D01*
X765007Y56702D01*
X765173Y56778D01*
X765336Y56858D01*
X765498Y56942D01*
X765658Y57029D01*
X765815Y57121D01*
X765970Y57216D01*
X766123Y57315D01*
X766273Y57418D01*
X766421Y57525D01*
X766566Y57635D01*
X766708Y57748D01*
X766848Y57865D01*
X766984Y57986D01*
X767118Y58110D01*
X767248Y58237D01*
X767376Y58367D01*
X767500Y58500D01*
X767500Y68500D02*
X767376Y68633D01*
X767248Y68763D01*
X767118Y68890D01*
X766984Y69014D01*
X766848Y69135D01*
X766708Y69252D01*
X766566Y69365D01*
X766421Y69475D01*
X766273Y69582D01*
X766123Y69685D01*
X765970Y69784D01*
X765815Y69879D01*
X765658Y69971D01*
X765498Y70058D01*
X765336Y70142D01*
X765173Y70222D01*
X765007Y70298D01*
X764840Y70369D01*
X764670Y70437D01*
X764500Y70500D01*
X764328Y70559D01*
X764154Y70614D01*
X763979Y70665D01*
X763803Y70711D01*
X763626Y70753D01*
X763448Y70791D01*
X763268Y70824D01*
X763089Y70853D01*
X762908Y70877D01*
X762727Y70897D01*
X762546Y70913D01*
X762364Y70924D01*
X762182Y70931D01*
X762000Y70933D01*
X761818Y70931D01*
X761636Y70924D01*
X761454Y70913D01*
X761273Y70897D01*
X761092Y70877D01*
X760911Y70853D01*
X760732Y70824D01*
X760552Y70791D01*
X760374Y70753D01*
X760197Y70711D01*
X760021Y70665D01*
X759846Y70614D01*
X759672Y70559D01*
X759500Y70500D01*
X759330Y70437D01*
X759160Y70369D01*
X758993Y70298D01*
X758827Y70222D01*
X758664Y70142D01*
X758502Y70058D01*
X758342Y69971D01*
X758185Y69879D01*
X758030Y69784D01*
X757877Y69685D01*
X757727Y69582D01*
X757579Y69475D01*
X757434Y69365D01*
X757292Y69252D01*
X757152Y69135D01*
X757016Y69014D01*
X756882Y68890D01*
X756752Y68763D01*
X756624Y68633D01*
X756500Y68500D01*
D15*
X762000Y63500D03*
D16*
X767250Y57750D03*
D13*
X749808Y76708D02*
X749808Y88392D01*
X753054Y88392D01*
X753167Y88390D01*
X753280Y88384D01*
X753393Y88374D01*
X753506Y88360D01*
X753618Y88343D01*
X753729Y88321D01*
X753839Y88296D01*
X753949Y88266D01*
X754057Y88233D01*
X754164Y88196D01*
X754270Y88156D01*
X754374Y88111D01*
X754477Y88063D01*
X754578Y88012D01*
X754677Y87957D01*
X754774Y87899D01*
X754869Y87837D01*
X754962Y87772D01*
X755052Y87704D01*
X755140Y87633D01*
X755226Y87558D01*
X755309Y87481D01*
X755389Y87401D01*
X755466Y87318D01*
X755541Y87232D01*
X755612Y87144D01*
X755680Y87054D01*
X755745Y86961D01*
X755807Y86866D01*
X755865Y86769D01*
X755920Y86670D01*
X755971Y86569D01*
X756019Y86466D01*
X756064Y86362D01*
X756104Y86256D01*
X756141Y86149D01*
X756174Y86041D01*
X756204Y85931D01*
X756229Y85821D01*
X756251Y85710D01*
X756268Y85598D01*
X756282Y85485D01*
X756292Y85372D01*
X756298Y85259D01*
X756300Y85146D01*
X756298Y85033D01*
X756292Y84920D01*
X756282Y84807D01*
X756268Y84694D01*
X756251Y84582D01*
X756229Y84471D01*
X756204Y84361D01*
X756174Y84251D01*
X756141Y84143D01*
X756104Y84036D01*
X756064Y83930D01*
X756019Y83826D01*
X755971Y83723D01*
X755920Y83622D01*
X755865Y83523D01*
X755807Y83426D01*
X755745Y83331D01*
X755680Y83238D01*
X755612Y83148D01*
X755541Y83060D01*
X755466Y82974D01*
X755389Y82891D01*
X755309Y82811D01*
X755226Y82734D01*
X755140Y82659D01*
X755052Y82588D01*
X754962Y82520D01*
X754869Y82455D01*
X754774Y82393D01*
X754677Y82335D01*
X754578Y82280D01*
X754477Y82229D01*
X754374Y82181D01*
X754270Y82136D01*
X754164Y82096D01*
X754057Y82059D01*
X753949Y82026D01*
X753839Y81996D01*
X753729Y81971D01*
X753618Y81949D01*
X753506Y81932D01*
X753393Y81918D01*
X753280Y81908D01*
X753167Y81902D01*
X753054Y81900D01*
X753054Y81901D02*
X749808Y81901D01*
X753703Y81901D02*
X756299Y76708D01*
X761568Y76708D02*
X766761Y76708D01*
X761568Y76708D02*
X761568Y88392D01*
X766761Y88392D01*
X765463Y83199D02*
X761568Y83199D01*
X771451Y88392D02*
X771451Y76708D01*
X771451Y88392D02*
X774697Y88392D01*
X774810Y88390D01*
X774923Y88384D01*
X775036Y88374D01*
X775149Y88360D01*
X775261Y88343D01*
X775372Y88321D01*
X775482Y88296D01*
X775592Y88266D01*
X775700Y88233D01*
X775807Y88196D01*
X775913Y88156D01*
X776017Y88111D01*
X776120Y88063D01*
X776221Y88012D01*
X776320Y87957D01*
X776417Y87899D01*
X776512Y87837D01*
X776605Y87772D01*
X776695Y87704D01*
X776783Y87633D01*
X776869Y87558D01*
X776952Y87481D01*
X777032Y87401D01*
X777109Y87318D01*
X777184Y87232D01*
X777255Y87144D01*
X777323Y87054D01*
X777388Y86961D01*
X777450Y86866D01*
X777508Y86769D01*
X777563Y86670D01*
X777614Y86569D01*
X777662Y86466D01*
X777707Y86362D01*
X777747Y86256D01*
X777784Y86149D01*
X777817Y86041D01*
X777847Y85931D01*
X777872Y85821D01*
X777894Y85710D01*
X777911Y85598D01*
X777925Y85485D01*
X777935Y85372D01*
X777941Y85259D01*
X777943Y85146D01*
X777942Y85146D02*
X777942Y79954D01*
X777943Y79954D02*
X777941Y79841D01*
X777935Y79728D01*
X777925Y79615D01*
X777911Y79502D01*
X777894Y79390D01*
X777872Y79279D01*
X777847Y79169D01*
X777817Y79059D01*
X777784Y78951D01*
X777747Y78844D01*
X777707Y78738D01*
X777662Y78634D01*
X777614Y78531D01*
X777563Y78430D01*
X777508Y78331D01*
X777450Y78234D01*
X777388Y78139D01*
X777323Y78046D01*
X777255Y77956D01*
X777184Y77868D01*
X777109Y77782D01*
X777032Y77699D01*
X776952Y77619D01*
X776869Y77542D01*
X776783Y77467D01*
X776695Y77396D01*
X776605Y77328D01*
X776512Y77263D01*
X776417Y77201D01*
X776320Y77143D01*
X776221Y77088D01*
X776120Y77037D01*
X776017Y76989D01*
X775913Y76944D01*
X775807Y76904D01*
X775700Y76867D01*
X775592Y76834D01*
X775482Y76804D01*
X775372Y76779D01*
X775261Y76757D01*
X775149Y76740D01*
X775036Y76726D01*
X774923Y76716D01*
X774810Y76710D01*
X774697Y76708D01*
X771451Y76708D01*
D10*
X347500Y137400D02*
X347498Y137302D01*
X347492Y137204D01*
X347483Y137106D01*
X347469Y137009D01*
X347452Y136912D01*
X347431Y136816D01*
X347406Y136721D01*
X347378Y136627D01*
X347345Y136535D01*
X347310Y136443D01*
X347270Y136353D01*
X347228Y136265D01*
X347181Y136178D01*
X347132Y136094D01*
X347079Y136011D01*
X347023Y135931D01*
X346963Y135852D01*
X346901Y135776D01*
X346836Y135703D01*
X346768Y135632D01*
X346697Y135564D01*
X346624Y135499D01*
X346548Y135437D01*
X346469Y135377D01*
X346389Y135321D01*
X346306Y135268D01*
X346222Y135219D01*
X346135Y135172D01*
X346047Y135130D01*
X345957Y135090D01*
X345865Y135055D01*
X345773Y135022D01*
X345679Y134994D01*
X345584Y134969D01*
X345488Y134948D01*
X345391Y134931D01*
X345294Y134917D01*
X345196Y134908D01*
X345098Y134902D01*
X345000Y134900D01*
X290000Y134900D01*
X289902Y134902D01*
X289804Y134908D01*
X289706Y134917D01*
X289609Y134931D01*
X289512Y134948D01*
X289416Y134969D01*
X289321Y134994D01*
X289227Y135022D01*
X289135Y135055D01*
X289043Y135090D01*
X288953Y135130D01*
X288865Y135172D01*
X288778Y135219D01*
X288694Y135268D01*
X288611Y135321D01*
X288531Y135377D01*
X288452Y135437D01*
X288376Y135499D01*
X288303Y135564D01*
X288232Y135632D01*
X288164Y135703D01*
X288099Y135776D01*
X288037Y135852D01*
X287977Y135931D01*
X287921Y136011D01*
X287868Y136094D01*
X287819Y136178D01*
X287772Y136265D01*
X287730Y136353D01*
X287690Y136443D01*
X287655Y136535D01*
X287622Y136627D01*
X287594Y136721D01*
X287569Y136816D01*
X287548Y136912D01*
X287531Y137009D01*
X287517Y137106D01*
X287508Y137204D01*
X287502Y137302D01*
X287500Y137400D01*
X287500Y167400D02*
X287520Y167507D01*
X287544Y167613D01*
X287571Y167718D01*
X287602Y167822D01*
X287637Y167925D01*
X287675Y168026D01*
X287717Y168126D01*
X287763Y168225D01*
X287812Y168322D01*
X287864Y168417D01*
X287920Y168510D01*
X287979Y168601D01*
X288041Y168690D01*
X288107Y168776D01*
X288175Y168861D01*
X288247Y168942D01*
X288321Y169021D01*
X288398Y169098D01*
X288478Y169171D01*
X288560Y169242D01*
X288645Y169310D01*
X288732Y169375D01*
X288822Y169436D01*
X288913Y169494D01*
X289007Y169549D01*
X289103Y169601D01*
X289200Y169649D01*
X289299Y169694D01*
X289399Y169735D01*
X289501Y169772D01*
X289604Y169806D01*
X289709Y169836D01*
X289814Y169863D01*
X289920Y169885D01*
X290027Y169904D01*
X290135Y169919D01*
X290243Y169930D01*
X290351Y169937D01*
X290459Y169941D01*
X290568Y169940D01*
X290676Y169936D01*
X290785Y169928D01*
X290893Y169916D01*
X291000Y169900D01*
X345000Y169900D01*
X345098Y169898D01*
X345196Y169892D01*
X345294Y169883D01*
X345391Y169869D01*
X345488Y169852D01*
X345584Y169831D01*
X345679Y169806D01*
X345773Y169778D01*
X345865Y169745D01*
X345957Y169710D01*
X346047Y169670D01*
X346135Y169628D01*
X346222Y169581D01*
X346306Y169532D01*
X346389Y169479D01*
X346469Y169423D01*
X346548Y169363D01*
X346624Y169301D01*
X346697Y169236D01*
X346768Y169168D01*
X346836Y169097D01*
X346901Y169024D01*
X346963Y168948D01*
X347023Y168869D01*
X347079Y168789D01*
X347132Y168706D01*
X347181Y168622D01*
X347228Y168535D01*
X347270Y168447D01*
X347310Y168357D01*
X347345Y168265D01*
X347378Y168173D01*
X347406Y168079D01*
X347431Y167984D01*
X347452Y167888D01*
X347469Y167791D01*
X347483Y167694D01*
X347492Y167596D01*
X347498Y167498D01*
X347500Y167400D01*
X347500Y163400D01*
X347500Y141400D02*
X347500Y137400D01*
X287500Y137400D02*
X287500Y141400D01*
X287500Y163400D02*
X287500Y167400D01*
X302500Y144900D02*
X332500Y144900D01*
X332500Y159900D02*
X302500Y159900D01*
X332500Y159900D02*
X332500Y144900D01*
X302500Y144900D02*
X302500Y159900D01*
D12*
X318647Y132146D02*
X318647Y125034D01*
X318647Y132146D02*
X320622Y132146D01*
X320709Y132144D01*
X320797Y132138D01*
X320884Y132129D01*
X320970Y132115D01*
X321056Y132098D01*
X321140Y132077D01*
X321224Y132052D01*
X321307Y132023D01*
X321388Y131991D01*
X321468Y131956D01*
X321546Y131917D01*
X321623Y131874D01*
X321697Y131828D01*
X321769Y131779D01*
X321839Y131727D01*
X321907Y131671D01*
X321972Y131613D01*
X322035Y131552D01*
X322094Y131488D01*
X322151Y131421D01*
X322205Y131353D01*
X322256Y131281D01*
X322303Y131208D01*
X322348Y131133D01*
X322389Y131055D01*
X322426Y130976D01*
X322460Y130896D01*
X322490Y130814D01*
X322517Y130731D01*
X322540Y130646D01*
X322559Y130561D01*
X322574Y130475D01*
X322586Y130388D01*
X322594Y130301D01*
X322598Y130214D01*
X322598Y130126D01*
X322594Y130039D01*
X322586Y129952D01*
X322574Y129865D01*
X322559Y129779D01*
X322540Y129694D01*
X322517Y129609D01*
X322490Y129526D01*
X322460Y129444D01*
X322426Y129364D01*
X322389Y129285D01*
X322348Y129207D01*
X322303Y129132D01*
X322256Y129059D01*
X322205Y128987D01*
X322151Y128919D01*
X322094Y128852D01*
X322035Y128788D01*
X321972Y128727D01*
X321907Y128669D01*
X321839Y128613D01*
X321769Y128561D01*
X321697Y128512D01*
X321623Y128466D01*
X321546Y128423D01*
X321468Y128384D01*
X321388Y128349D01*
X321307Y128317D01*
X321224Y128288D01*
X321140Y128263D01*
X321056Y128242D01*
X320970Y128225D01*
X320884Y128211D01*
X320797Y128202D01*
X320709Y128196D01*
X320622Y128194D01*
X320622Y128195D02*
X318647Y128195D01*
X321017Y128195D02*
X322598Y125034D01*
X325705Y125034D02*
X328866Y125034D01*
X325705Y125034D02*
X325705Y132146D01*
X328866Y132146D01*
X328076Y128985D02*
X325705Y128985D01*
X333550Y125034D02*
X333628Y125036D01*
X333705Y125042D01*
X333782Y125051D01*
X333858Y125064D01*
X333934Y125081D01*
X334009Y125102D01*
X334082Y125126D01*
X334155Y125154D01*
X334226Y125186D01*
X334295Y125221D01*
X334362Y125259D01*
X334428Y125300D01*
X334491Y125345D01*
X334552Y125393D01*
X334611Y125443D01*
X334667Y125497D01*
X334721Y125553D01*
X334771Y125612D01*
X334819Y125673D01*
X334864Y125736D01*
X334905Y125802D01*
X334943Y125869D01*
X334978Y125938D01*
X335010Y126009D01*
X335038Y126082D01*
X335062Y126155D01*
X335083Y126230D01*
X335100Y126306D01*
X335113Y126382D01*
X335122Y126459D01*
X335128Y126536D01*
X335130Y126614D01*
X333550Y125034D02*
X333435Y125036D01*
X333321Y125042D01*
X333207Y125052D01*
X333093Y125065D01*
X332980Y125083D01*
X332867Y125105D01*
X332755Y125130D01*
X332645Y125159D01*
X332535Y125192D01*
X332426Y125229D01*
X332319Y125269D01*
X332213Y125313D01*
X332109Y125361D01*
X332006Y125412D01*
X331906Y125467D01*
X331807Y125525D01*
X331710Y125587D01*
X331616Y125651D01*
X331523Y125719D01*
X331433Y125791D01*
X331346Y125865D01*
X331261Y125942D01*
X331179Y126022D01*
X331377Y130566D02*
X331379Y130644D01*
X331385Y130721D01*
X331394Y130798D01*
X331407Y130874D01*
X331424Y130950D01*
X331445Y131025D01*
X331469Y131098D01*
X331497Y131171D01*
X331529Y131242D01*
X331564Y131311D01*
X331602Y131378D01*
X331643Y131444D01*
X331688Y131507D01*
X331736Y131568D01*
X331786Y131627D01*
X331840Y131683D01*
X331896Y131737D01*
X331955Y131787D01*
X332016Y131835D01*
X332079Y131880D01*
X332145Y131921D01*
X332212Y131959D01*
X332281Y131994D01*
X332352Y132026D01*
X332425Y132054D01*
X332498Y132078D01*
X332573Y132099D01*
X332649Y132116D01*
X332725Y132129D01*
X332802Y132138D01*
X332880Y132144D01*
X332957Y132146D01*
X333063Y132144D01*
X333169Y132138D01*
X333274Y132129D01*
X333379Y132116D01*
X333484Y132099D01*
X333588Y132078D01*
X333691Y132054D01*
X333793Y132026D01*
X333894Y131994D01*
X333994Y131959D01*
X334092Y131920D01*
X334190Y131877D01*
X334285Y131832D01*
X334379Y131783D01*
X334471Y131730D01*
X334561Y131674D01*
X334649Y131615D01*
X334735Y131553D01*
X332167Y129183D02*
X332100Y129225D01*
X332035Y129270D01*
X331972Y129319D01*
X331911Y129370D01*
X331854Y129425D01*
X331799Y129482D01*
X331746Y129542D01*
X331697Y129604D01*
X331651Y129669D01*
X331609Y129735D01*
X331569Y129804D01*
X331533Y129875D01*
X331501Y129948D01*
X331472Y130022D01*
X331447Y130097D01*
X331426Y130173D01*
X331408Y130251D01*
X331395Y130329D01*
X331385Y130408D01*
X331379Y130487D01*
X331377Y130566D01*
X334340Y127997D02*
X334407Y127955D01*
X334472Y127910D01*
X334535Y127861D01*
X334596Y127810D01*
X334653Y127755D01*
X334708Y127698D01*
X334761Y127638D01*
X334810Y127576D01*
X334856Y127511D01*
X334898Y127445D01*
X334938Y127376D01*
X334974Y127305D01*
X335006Y127232D01*
X335035Y127158D01*
X335060Y127083D01*
X335081Y127007D01*
X335099Y126929D01*
X335112Y126851D01*
X335122Y126772D01*
X335128Y126693D01*
X335130Y126614D01*
X334340Y127997D02*
X332167Y129183D01*
X338050Y125034D02*
X341210Y125034D01*
X338050Y125034D02*
X338050Y132146D01*
X341210Y132146D01*
X340420Y128985D02*
X338050Y128985D01*
X345270Y132146D02*
X345270Y125034D01*
X343295Y132146D02*
X347246Y132146D01*
D17*
X780700Y158800D02*
X780702Y158863D01*
X780708Y158925D01*
X780718Y158987D01*
X780731Y159049D01*
X780749Y159109D01*
X780770Y159168D01*
X780795Y159226D01*
X780824Y159282D01*
X780856Y159336D01*
X780891Y159388D01*
X780929Y159437D01*
X780971Y159485D01*
X781015Y159529D01*
X781063Y159571D01*
X781112Y159609D01*
X781164Y159644D01*
X781218Y159676D01*
X781274Y159705D01*
X781332Y159730D01*
X781391Y159751D01*
X781451Y159769D01*
X781513Y159782D01*
X781575Y159792D01*
X781637Y159798D01*
X781700Y159800D01*
X781763Y159798D01*
X781825Y159792D01*
X781887Y159782D01*
X781949Y159769D01*
X782009Y159751D01*
X782068Y159730D01*
X782126Y159705D01*
X782182Y159676D01*
X782236Y159644D01*
X782288Y159609D01*
X782337Y159571D01*
X782385Y159529D01*
X782429Y159485D01*
X782471Y159437D01*
X782509Y159388D01*
X782544Y159336D01*
X782576Y159282D01*
X782605Y159226D01*
X782630Y159168D01*
X782651Y159109D01*
X782669Y159049D01*
X782682Y158987D01*
X782692Y158925D01*
X782698Y158863D01*
X782700Y158800D01*
X782698Y158737D01*
X782692Y158675D01*
X782682Y158613D01*
X782669Y158551D01*
X782651Y158491D01*
X782630Y158432D01*
X782605Y158374D01*
X782576Y158318D01*
X782544Y158264D01*
X782509Y158212D01*
X782471Y158163D01*
X782429Y158115D01*
X782385Y158071D01*
X782337Y158029D01*
X782288Y157991D01*
X782236Y157956D01*
X782182Y157924D01*
X782126Y157895D01*
X782068Y157870D01*
X782009Y157849D01*
X781949Y157831D01*
X781887Y157818D01*
X781825Y157808D01*
X781763Y157802D01*
X781700Y157800D01*
X781637Y157802D01*
X781575Y157808D01*
X781513Y157818D01*
X781451Y157831D01*
X781391Y157849D01*
X781332Y157870D01*
X781274Y157895D01*
X781218Y157924D01*
X781164Y157956D01*
X781112Y157991D01*
X781063Y158029D01*
X781015Y158071D01*
X780971Y158115D01*
X780929Y158163D01*
X780891Y158212D01*
X780856Y158264D01*
X780824Y158318D01*
X780795Y158374D01*
X780770Y158432D01*
X780749Y158491D01*
X780731Y158551D01*
X780718Y158613D01*
X780708Y158675D01*
X780702Y158737D01*
X780700Y158800D01*
D10*
X766700Y163800D02*
X766700Y191800D01*
X782700Y191800D02*
X782700Y163800D01*
X766700Y163800D01*
X766700Y191800D02*
X782700Y191800D01*
D14*
X803007Y151384D02*
X803007Y132588D01*
X808228Y132588D02*
X797786Y132588D01*
X790765Y132588D02*
X790765Y151384D01*
X790765Y132588D02*
X785544Y132588D01*
X785401Y132590D01*
X785259Y132596D01*
X785117Y132606D01*
X784975Y132619D01*
X784833Y132637D01*
X784692Y132658D01*
X784552Y132683D01*
X784412Y132712D01*
X784273Y132745D01*
X784135Y132782D01*
X783999Y132822D01*
X783863Y132866D01*
X783729Y132914D01*
X783596Y132965D01*
X783464Y133020D01*
X783334Y133079D01*
X783206Y133141D01*
X783079Y133207D01*
X782954Y133276D01*
X782831Y133348D01*
X782710Y133424D01*
X782592Y133503D01*
X782475Y133585D01*
X782361Y133671D01*
X782249Y133759D01*
X782140Y133851D01*
X782033Y133945D01*
X781929Y134042D01*
X781827Y134142D01*
X781728Y134245D01*
X781632Y134351D01*
X781539Y134459D01*
X781449Y134570D01*
X781362Y134683D01*
X781279Y134798D01*
X781198Y134916D01*
X781121Y135036D01*
X781046Y135157D01*
X780976Y135281D01*
X780908Y135407D01*
X780844Y135535D01*
X780784Y135664D01*
X780727Y135795D01*
X780674Y135927D01*
X780624Y136061D01*
X780579Y136196D01*
X780536Y136332D01*
X780498Y136469D01*
X780463Y136608D01*
X780432Y136747D01*
X780405Y136887D01*
X780382Y137027D01*
X780362Y137169D01*
X780347Y137311D01*
X780335Y137453D01*
X780327Y137595D01*
X780323Y137738D01*
X780323Y137880D01*
X780327Y138023D01*
X780335Y138165D01*
X780347Y138307D01*
X780362Y138449D01*
X780382Y138591D01*
X780405Y138731D01*
X780432Y138871D01*
X780463Y139010D01*
X780498Y139149D01*
X780536Y139286D01*
X780579Y139422D01*
X780624Y139557D01*
X780674Y139691D01*
X780727Y139823D01*
X780784Y139954D01*
X780844Y140083D01*
X780908Y140211D01*
X780976Y140337D01*
X781046Y140461D01*
X781121Y140582D01*
X781198Y140702D01*
X781279Y140820D01*
X781362Y140935D01*
X781449Y141048D01*
X781539Y141159D01*
X781632Y141267D01*
X781728Y141373D01*
X781827Y141476D01*
X781929Y141576D01*
X782033Y141673D01*
X782140Y141767D01*
X782249Y141859D01*
X782361Y141947D01*
X782475Y142033D01*
X782592Y142115D01*
X782710Y142194D01*
X782831Y142270D01*
X782954Y142342D01*
X783079Y142411D01*
X783206Y142477D01*
X783334Y142539D01*
X783464Y142598D01*
X783596Y142653D01*
X783729Y142704D01*
X783863Y142752D01*
X783999Y142796D01*
X784135Y142836D01*
X784273Y142873D01*
X784412Y142906D01*
X784552Y142935D01*
X784692Y142960D01*
X784833Y142981D01*
X784975Y142999D01*
X785117Y143012D01*
X785259Y143022D01*
X785401Y143028D01*
X785544Y143030D01*
X790765Y143030D01*
X768077Y151384D02*
X767951Y151382D01*
X767825Y151376D01*
X767699Y151367D01*
X767574Y151354D01*
X767449Y151336D01*
X767324Y151316D01*
X767200Y151291D01*
X767077Y151263D01*
X766955Y151231D01*
X766834Y151195D01*
X766714Y151156D01*
X766596Y151113D01*
X766479Y151066D01*
X766363Y151016D01*
X766248Y150963D01*
X766136Y150906D01*
X766025Y150845D01*
X765916Y150782D01*
X765809Y150715D01*
X765704Y150645D01*
X765601Y150571D01*
X765501Y150495D01*
X765403Y150416D01*
X765307Y150334D01*
X765214Y150248D01*
X765123Y150161D01*
X765036Y150070D01*
X764950Y149977D01*
X764868Y149881D01*
X764789Y149783D01*
X764713Y149683D01*
X764639Y149580D01*
X764569Y149475D01*
X764502Y149368D01*
X764439Y149259D01*
X764378Y149148D01*
X764322Y149036D01*
X764268Y148921D01*
X764218Y148805D01*
X764171Y148688D01*
X764128Y148570D01*
X764089Y148450D01*
X764053Y148329D01*
X764021Y148207D01*
X763993Y148084D01*
X763968Y147960D01*
X763948Y147835D01*
X763930Y147710D01*
X763917Y147585D01*
X763908Y147459D01*
X763902Y147333D01*
X763900Y147207D01*
X768077Y151384D02*
X768288Y151381D01*
X768499Y151374D01*
X768710Y151361D01*
X768920Y151344D01*
X769130Y151321D01*
X769339Y151293D01*
X769548Y151261D01*
X769756Y151223D01*
X769963Y151180D01*
X770168Y151133D01*
X770373Y151080D01*
X770576Y151023D01*
X770778Y150961D01*
X770978Y150894D01*
X771176Y150822D01*
X771373Y150745D01*
X771568Y150664D01*
X771761Y150578D01*
X771952Y150488D01*
X772140Y150393D01*
X772326Y150293D01*
X772510Y150190D01*
X772692Y150081D01*
X772870Y149969D01*
X773046Y149852D01*
X773219Y149731D01*
X773389Y149606D01*
X773556Y149477D01*
X773720Y149344D01*
X773881Y149207D01*
X774038Y149066D01*
X774192Y148922D01*
X774342Y148773D01*
X773820Y136765D02*
X773818Y136636D01*
X773812Y136508D01*
X773802Y136380D01*
X773788Y136252D01*
X773771Y136124D01*
X773749Y135997D01*
X773723Y135871D01*
X773694Y135746D01*
X773661Y135622D01*
X773623Y135499D01*
X773583Y135377D01*
X773538Y135256D01*
X773490Y135137D01*
X773438Y135019D01*
X773382Y134903D01*
X773323Y134789D01*
X773260Y134677D01*
X773194Y134566D01*
X773125Y134458D01*
X773052Y134352D01*
X772976Y134248D01*
X772897Y134146D01*
X772815Y134047D01*
X772730Y133951D01*
X772642Y133857D01*
X772551Y133766D01*
X772457Y133678D01*
X772361Y133593D01*
X772262Y133511D01*
X772160Y133432D01*
X772056Y133356D01*
X771950Y133283D01*
X771842Y133214D01*
X771732Y133148D01*
X771619Y133085D01*
X771505Y133026D01*
X771389Y132970D01*
X771271Y132918D01*
X771152Y132870D01*
X771031Y132825D01*
X770909Y132785D01*
X770786Y132747D01*
X770662Y132714D01*
X770537Y132685D01*
X770411Y132659D01*
X770284Y132637D01*
X770156Y132620D01*
X770028Y132606D01*
X769900Y132596D01*
X769772Y132590D01*
X769643Y132588D01*
X769456Y132590D01*
X769270Y132597D01*
X769084Y132608D01*
X768898Y132624D01*
X768712Y132644D01*
X768527Y132668D01*
X768343Y132697D01*
X768159Y132730D01*
X767976Y132767D01*
X767794Y132809D01*
X767613Y132856D01*
X767434Y132906D01*
X767255Y132961D01*
X767078Y133020D01*
X766903Y133083D01*
X766729Y133151D01*
X766556Y133222D01*
X766386Y133298D01*
X766217Y133377D01*
X766050Y133461D01*
X765885Y133549D01*
X765722Y133640D01*
X765562Y133735D01*
X765404Y133835D01*
X765248Y133937D01*
X765095Y134044D01*
X764944Y134154D01*
X771732Y140420D02*
X771842Y140352D01*
X771951Y140281D01*
X772057Y140207D01*
X772161Y140130D01*
X772262Y140050D01*
X772361Y139966D01*
X772458Y139880D01*
X772552Y139790D01*
X772643Y139698D01*
X772731Y139603D01*
X772816Y139505D01*
X772898Y139405D01*
X772977Y139303D01*
X773053Y139198D01*
X773126Y139091D01*
X773195Y138981D01*
X773261Y138870D01*
X773324Y138756D01*
X773383Y138641D01*
X773438Y138524D01*
X773490Y138405D01*
X773538Y138285D01*
X773583Y138163D01*
X773624Y138040D01*
X773661Y137916D01*
X773694Y137791D01*
X773723Y137665D01*
X773749Y137538D01*
X773771Y137410D01*
X773788Y137282D01*
X773802Y137153D01*
X773812Y137024D01*
X773818Y136895D01*
X773820Y136765D01*
X765988Y143552D02*
X765878Y143620D01*
X765769Y143691D01*
X765663Y143765D01*
X765559Y143842D01*
X765458Y143922D01*
X765359Y144006D01*
X765262Y144092D01*
X765168Y144182D01*
X765077Y144274D01*
X764989Y144369D01*
X764904Y144467D01*
X764822Y144567D01*
X764743Y144669D01*
X764667Y144774D01*
X764594Y144881D01*
X764525Y144991D01*
X764459Y145102D01*
X764396Y145216D01*
X764337Y145331D01*
X764282Y145448D01*
X764230Y145567D01*
X764182Y145687D01*
X764137Y145809D01*
X764096Y145932D01*
X764059Y146056D01*
X764026Y146181D01*
X763997Y146307D01*
X763971Y146434D01*
X763949Y146562D01*
X763932Y146690D01*
X763918Y146819D01*
X763908Y146948D01*
X763902Y147077D01*
X763900Y147207D01*
X765988Y143552D02*
X771731Y140420D01*
X757841Y153472D02*
X749487Y153472D01*
X742834Y134676D02*
X742834Y132588D01*
X732392Y132588D01*
X737613Y151384D01*
X724999Y146163D02*
X724997Y146020D01*
X724991Y145878D01*
X724981Y145736D01*
X724968Y145594D01*
X724950Y145452D01*
X724929Y145311D01*
X724904Y145171D01*
X724875Y145031D01*
X724842Y144892D01*
X724805Y144754D01*
X724765Y144618D01*
X724721Y144482D01*
X724673Y144348D01*
X724622Y144215D01*
X724567Y144083D01*
X724508Y143953D01*
X724446Y143825D01*
X724380Y143698D01*
X724311Y143573D01*
X724239Y143450D01*
X724163Y143329D01*
X724084Y143211D01*
X724002Y143094D01*
X723916Y142980D01*
X723828Y142868D01*
X723736Y142759D01*
X723642Y142652D01*
X723545Y142548D01*
X723445Y142446D01*
X723342Y142347D01*
X723236Y142251D01*
X723128Y142158D01*
X723017Y142068D01*
X722904Y141981D01*
X722789Y141898D01*
X722671Y141817D01*
X722551Y141740D01*
X722430Y141665D01*
X722306Y141595D01*
X722180Y141527D01*
X722052Y141463D01*
X721923Y141403D01*
X721792Y141346D01*
X721660Y141293D01*
X721526Y141243D01*
X721391Y141198D01*
X721255Y141155D01*
X721118Y141117D01*
X720979Y141082D01*
X720840Y141051D01*
X720700Y141024D01*
X720560Y141001D01*
X720418Y140981D01*
X720276Y140966D01*
X720134Y140954D01*
X719992Y140946D01*
X719849Y140942D01*
X719707Y140942D01*
X719564Y140946D01*
X719422Y140954D01*
X719280Y140966D01*
X719138Y140981D01*
X718996Y141001D01*
X718856Y141024D01*
X718716Y141051D01*
X718577Y141082D01*
X718438Y141117D01*
X718301Y141155D01*
X718165Y141198D01*
X718030Y141243D01*
X717896Y141293D01*
X717764Y141346D01*
X717633Y141403D01*
X717504Y141463D01*
X717376Y141527D01*
X717250Y141595D01*
X717126Y141665D01*
X717005Y141740D01*
X716885Y141817D01*
X716767Y141898D01*
X716652Y141981D01*
X716539Y142068D01*
X716428Y142158D01*
X716320Y142251D01*
X716214Y142347D01*
X716111Y142446D01*
X716011Y142548D01*
X715914Y142652D01*
X715820Y142759D01*
X715728Y142868D01*
X715640Y142980D01*
X715554Y143094D01*
X715472Y143211D01*
X715393Y143329D01*
X715317Y143450D01*
X715245Y143573D01*
X715176Y143698D01*
X715110Y143825D01*
X715048Y143953D01*
X714989Y144083D01*
X714934Y144215D01*
X714883Y144348D01*
X714835Y144482D01*
X714791Y144618D01*
X714751Y144754D01*
X714714Y144892D01*
X714681Y145031D01*
X714652Y145171D01*
X714627Y145311D01*
X714606Y145452D01*
X714588Y145594D01*
X714575Y145736D01*
X714565Y145878D01*
X714559Y146020D01*
X714557Y146163D01*
X714559Y146306D01*
X714565Y146448D01*
X714575Y146590D01*
X714588Y146732D01*
X714606Y146874D01*
X714627Y147015D01*
X714652Y147155D01*
X714681Y147295D01*
X714714Y147434D01*
X714751Y147572D01*
X714791Y147708D01*
X714835Y147844D01*
X714883Y147978D01*
X714934Y148111D01*
X714989Y148243D01*
X715048Y148373D01*
X715110Y148501D01*
X715176Y148628D01*
X715245Y148753D01*
X715317Y148876D01*
X715393Y148997D01*
X715472Y149115D01*
X715554Y149232D01*
X715640Y149346D01*
X715728Y149458D01*
X715820Y149567D01*
X715914Y149674D01*
X716011Y149778D01*
X716111Y149880D01*
X716214Y149979D01*
X716320Y150075D01*
X716428Y150168D01*
X716539Y150258D01*
X716652Y150345D01*
X716767Y150428D01*
X716885Y150509D01*
X717005Y150586D01*
X717126Y150661D01*
X717250Y150731D01*
X717376Y150799D01*
X717504Y150863D01*
X717633Y150923D01*
X717764Y150980D01*
X717896Y151033D01*
X718030Y151083D01*
X718165Y151128D01*
X718301Y151171D01*
X718438Y151209D01*
X718577Y151244D01*
X718716Y151275D01*
X718856Y151302D01*
X718996Y151325D01*
X719138Y151345D01*
X719280Y151360D01*
X719422Y151372D01*
X719564Y151380D01*
X719707Y151384D01*
X719849Y151384D01*
X719992Y151380D01*
X720134Y151372D01*
X720276Y151360D01*
X720418Y151345D01*
X720560Y151325D01*
X720700Y151302D01*
X720840Y151275D01*
X720979Y151244D01*
X721118Y151209D01*
X721255Y151171D01*
X721391Y151128D01*
X721526Y151083D01*
X721660Y151033D01*
X721792Y150980D01*
X721923Y150923D01*
X722052Y150863D01*
X722180Y150799D01*
X722306Y150731D01*
X722430Y150661D01*
X722551Y150586D01*
X722671Y150509D01*
X722789Y150428D01*
X722904Y150345D01*
X723017Y150258D01*
X723128Y150168D01*
X723236Y150075D01*
X723342Y149979D01*
X723445Y149880D01*
X723545Y149778D01*
X723642Y149674D01*
X723736Y149567D01*
X723828Y149458D01*
X723916Y149346D01*
X724002Y149232D01*
X724084Y149115D01*
X724163Y148997D01*
X724239Y148876D01*
X724311Y148753D01*
X724380Y148628D01*
X724446Y148501D01*
X724508Y148373D01*
X724567Y148243D01*
X724622Y148111D01*
X724673Y147978D01*
X724721Y147844D01*
X724765Y147708D01*
X724805Y147572D01*
X724842Y147434D01*
X724875Y147295D01*
X724904Y147155D01*
X724929Y147015D01*
X724950Y146874D01*
X724968Y146732D01*
X724981Y146590D01*
X724991Y146448D01*
X724997Y146306D01*
X724999Y146163D01*
X723955Y136765D02*
X723953Y136638D01*
X723947Y136510D01*
X723938Y136383D01*
X723924Y136257D01*
X723907Y136130D01*
X723885Y136005D01*
X723860Y135880D01*
X723831Y135756D01*
X723799Y135633D01*
X723762Y135511D01*
X723722Y135390D01*
X723678Y135270D01*
X723631Y135152D01*
X723580Y135035D01*
X723525Y134920D01*
X723467Y134807D01*
X723406Y134695D01*
X723341Y134585D01*
X723273Y134478D01*
X723202Y134372D01*
X723127Y134269D01*
X723049Y134168D01*
X722969Y134069D01*
X722885Y133973D01*
X722798Y133880D01*
X722709Y133789D01*
X722617Y133701D01*
X722522Y133616D01*
X722425Y133534D01*
X722325Y133454D01*
X722223Y133378D01*
X722118Y133305D01*
X722012Y133236D01*
X721903Y133169D01*
X721793Y133106D01*
X721680Y133046D01*
X721566Y132990D01*
X721450Y132937D01*
X721332Y132888D01*
X721213Y132842D01*
X721093Y132800D01*
X720971Y132762D01*
X720849Y132728D01*
X720725Y132697D01*
X720601Y132670D01*
X720475Y132647D01*
X720350Y132627D01*
X720223Y132612D01*
X720096Y132600D01*
X719969Y132592D01*
X719842Y132588D01*
X719714Y132588D01*
X719587Y132592D01*
X719460Y132600D01*
X719333Y132612D01*
X719206Y132627D01*
X719081Y132647D01*
X718955Y132670D01*
X718831Y132697D01*
X718707Y132728D01*
X718585Y132762D01*
X718463Y132800D01*
X718343Y132842D01*
X718224Y132888D01*
X718106Y132937D01*
X717990Y132990D01*
X717876Y133046D01*
X717763Y133106D01*
X717653Y133169D01*
X717544Y133236D01*
X717438Y133305D01*
X717333Y133378D01*
X717231Y133454D01*
X717131Y133534D01*
X717034Y133616D01*
X716939Y133701D01*
X716847Y133789D01*
X716758Y133880D01*
X716671Y133973D01*
X716587Y134069D01*
X716507Y134168D01*
X716429Y134269D01*
X716354Y134372D01*
X716283Y134478D01*
X716215Y134585D01*
X716150Y134695D01*
X716089Y134807D01*
X716031Y134920D01*
X715976Y135035D01*
X715925Y135152D01*
X715878Y135270D01*
X715834Y135390D01*
X715794Y135511D01*
X715757Y135633D01*
X715725Y135756D01*
X715696Y135880D01*
X715671Y136005D01*
X715649Y136130D01*
X715632Y136257D01*
X715618Y136383D01*
X715609Y136510D01*
X715603Y136638D01*
X715601Y136765D01*
X715603Y136892D01*
X715609Y137020D01*
X715618Y137147D01*
X715632Y137273D01*
X715649Y137400D01*
X715671Y137525D01*
X715696Y137650D01*
X715725Y137774D01*
X715757Y137897D01*
X715794Y138019D01*
X715834Y138140D01*
X715878Y138260D01*
X715925Y138378D01*
X715976Y138495D01*
X716031Y138610D01*
X716089Y138723D01*
X716150Y138835D01*
X716215Y138945D01*
X716283Y139052D01*
X716354Y139158D01*
X716429Y139261D01*
X716507Y139362D01*
X716587Y139461D01*
X716671Y139557D01*
X716758Y139650D01*
X716847Y139741D01*
X716939Y139829D01*
X717034Y139914D01*
X717131Y139996D01*
X717231Y140076D01*
X717333Y140152D01*
X717438Y140225D01*
X717544Y140294D01*
X717653Y140361D01*
X717763Y140424D01*
X717876Y140484D01*
X717990Y140540D01*
X718106Y140593D01*
X718224Y140642D01*
X718343Y140688D01*
X718463Y140730D01*
X718585Y140768D01*
X718707Y140802D01*
X718831Y140833D01*
X718955Y140860D01*
X719081Y140883D01*
X719206Y140903D01*
X719333Y140918D01*
X719460Y140930D01*
X719587Y140938D01*
X719714Y140942D01*
X719842Y140942D01*
X719969Y140938D01*
X720096Y140930D01*
X720223Y140918D01*
X720350Y140903D01*
X720475Y140883D01*
X720601Y140860D01*
X720725Y140833D01*
X720849Y140802D01*
X720971Y140768D01*
X721093Y140730D01*
X721213Y140688D01*
X721332Y140642D01*
X721450Y140593D01*
X721566Y140540D01*
X721680Y140484D01*
X721793Y140424D01*
X721903Y140361D01*
X722012Y140294D01*
X722118Y140225D01*
X722223Y140152D01*
X722325Y140076D01*
X722425Y139996D01*
X722522Y139914D01*
X722617Y139829D01*
X722709Y139741D01*
X722798Y139650D01*
X722885Y139557D01*
X722969Y139461D01*
X723049Y139362D01*
X723127Y139261D01*
X723202Y139158D01*
X723273Y139052D01*
X723341Y138945D01*
X723406Y138835D01*
X723467Y138723D01*
X723525Y138610D01*
X723580Y138495D01*
X723631Y138378D01*
X723678Y138260D01*
X723722Y138140D01*
X723762Y138019D01*
X723799Y137897D01*
X723831Y137774D01*
X723860Y137650D01*
X723885Y137525D01*
X723907Y137400D01*
X723924Y137273D01*
X723938Y137147D01*
X723947Y137020D01*
X723953Y136892D01*
X723955Y136765D01*
X707164Y151384D02*
X701943Y151384D01*
X701800Y151382D01*
X701658Y151376D01*
X701516Y151366D01*
X701374Y151353D01*
X701232Y151335D01*
X701091Y151314D01*
X700951Y151289D01*
X700811Y151260D01*
X700672Y151227D01*
X700534Y151190D01*
X700398Y151150D01*
X700262Y151106D01*
X700128Y151058D01*
X699995Y151007D01*
X699863Y150952D01*
X699733Y150893D01*
X699605Y150831D01*
X699478Y150765D01*
X699353Y150696D01*
X699230Y150624D01*
X699109Y150548D01*
X698991Y150469D01*
X698874Y150387D01*
X698760Y150301D01*
X698648Y150213D01*
X698539Y150121D01*
X698432Y150027D01*
X698328Y149930D01*
X698226Y149830D01*
X698127Y149727D01*
X698031Y149621D01*
X697938Y149513D01*
X697848Y149402D01*
X697761Y149289D01*
X697678Y149174D01*
X697597Y149056D01*
X697520Y148936D01*
X697445Y148815D01*
X697375Y148691D01*
X697307Y148565D01*
X697243Y148437D01*
X697183Y148308D01*
X697126Y148177D01*
X697073Y148045D01*
X697023Y147911D01*
X696978Y147776D01*
X696935Y147640D01*
X696897Y147503D01*
X696862Y147364D01*
X696831Y147225D01*
X696804Y147085D01*
X696781Y146945D01*
X696761Y146803D01*
X696746Y146661D01*
X696734Y146519D01*
X696726Y146377D01*
X696722Y146234D01*
X696722Y146092D01*
X696726Y145949D01*
X696734Y145807D01*
X696746Y145665D01*
X696761Y145523D01*
X696781Y145381D01*
X696804Y145241D01*
X696831Y145101D01*
X696862Y144962D01*
X696897Y144823D01*
X696935Y144686D01*
X696978Y144550D01*
X697023Y144415D01*
X697073Y144281D01*
X697126Y144149D01*
X697183Y144018D01*
X697243Y143889D01*
X697307Y143761D01*
X697375Y143635D01*
X697445Y143511D01*
X697520Y143390D01*
X697597Y143270D01*
X697678Y143152D01*
X697761Y143037D01*
X697848Y142924D01*
X697938Y142813D01*
X698031Y142705D01*
X698127Y142599D01*
X698226Y142496D01*
X698328Y142396D01*
X698432Y142299D01*
X698539Y142205D01*
X698648Y142113D01*
X698760Y142025D01*
X698874Y141939D01*
X698991Y141857D01*
X699109Y141778D01*
X699230Y141702D01*
X699353Y141630D01*
X699478Y141561D01*
X699605Y141495D01*
X699733Y141433D01*
X699863Y141374D01*
X699995Y141319D01*
X700128Y141268D01*
X700262Y141220D01*
X700398Y141176D01*
X700534Y141136D01*
X700672Y141099D01*
X700811Y141066D01*
X700951Y141037D01*
X701091Y141012D01*
X701232Y140991D01*
X701374Y140973D01*
X701516Y140960D01*
X701658Y140950D01*
X701800Y140944D01*
X701943Y140942D01*
X700899Y132588D02*
X707164Y132588D01*
X700899Y132588D02*
X700772Y132590D01*
X700644Y132596D01*
X700517Y132605D01*
X700391Y132619D01*
X700264Y132636D01*
X700139Y132658D01*
X700014Y132683D01*
X699890Y132712D01*
X699767Y132744D01*
X699645Y132781D01*
X699524Y132821D01*
X699404Y132865D01*
X699286Y132912D01*
X699169Y132963D01*
X699054Y133018D01*
X698941Y133076D01*
X698829Y133137D01*
X698719Y133202D01*
X698612Y133270D01*
X698506Y133341D01*
X698403Y133416D01*
X698302Y133494D01*
X698203Y133574D01*
X698107Y133658D01*
X698014Y133745D01*
X697923Y133834D01*
X697835Y133926D01*
X697750Y134021D01*
X697668Y134118D01*
X697588Y134218D01*
X697512Y134320D01*
X697439Y134425D01*
X697370Y134531D01*
X697303Y134640D01*
X697240Y134750D01*
X697180Y134863D01*
X697124Y134977D01*
X697071Y135093D01*
X697022Y135211D01*
X696976Y135330D01*
X696934Y135450D01*
X696896Y135572D01*
X696862Y135694D01*
X696831Y135818D01*
X696804Y135942D01*
X696781Y136068D01*
X696761Y136193D01*
X696746Y136320D01*
X696734Y136447D01*
X696726Y136574D01*
X696722Y136701D01*
X696722Y136829D01*
X696726Y136956D01*
X696734Y137083D01*
X696746Y137210D01*
X696761Y137337D01*
X696781Y137462D01*
X696804Y137588D01*
X696831Y137712D01*
X696862Y137836D01*
X696896Y137958D01*
X696934Y138080D01*
X696976Y138200D01*
X697022Y138319D01*
X697071Y138437D01*
X697124Y138553D01*
X697180Y138667D01*
X697240Y138780D01*
X697303Y138890D01*
X697370Y138999D01*
X697439Y139105D01*
X697512Y139210D01*
X697588Y139312D01*
X697668Y139412D01*
X697750Y139509D01*
X697835Y139604D01*
X697923Y139696D01*
X698014Y139785D01*
X698107Y139872D01*
X698203Y139956D01*
X698302Y140036D01*
X698403Y140114D01*
X698506Y140189D01*
X698612Y140260D01*
X698719Y140328D01*
X698829Y140393D01*
X698941Y140454D01*
X699054Y140512D01*
X699169Y140567D01*
X699286Y140618D01*
X699404Y140665D01*
X699524Y140709D01*
X699645Y140749D01*
X699767Y140786D01*
X699890Y140818D01*
X700014Y140847D01*
X700139Y140872D01*
X700264Y140894D01*
X700391Y140911D01*
X700517Y140925D01*
X700644Y140934D01*
X700772Y140940D01*
X700899Y140942D01*
X705076Y140942D01*
X690374Y151384D02*
X677843Y132588D01*
X690374Y132588D02*
X677843Y151384D01*
X672539Y151384D02*
X660008Y132588D01*
X672539Y132588D02*
X660008Y151384D01*
X653660Y136765D02*
X648439Y132588D01*
X648439Y151384D01*
X653660Y151384D02*
X643218Y151384D01*
D17*
X678500Y106200D02*
X678502Y106263D01*
X678508Y106325D01*
X678518Y106387D01*
X678531Y106449D01*
X678549Y106509D01*
X678570Y106568D01*
X678595Y106626D01*
X678624Y106682D01*
X678656Y106736D01*
X678691Y106788D01*
X678729Y106837D01*
X678771Y106885D01*
X678815Y106929D01*
X678863Y106971D01*
X678912Y107009D01*
X678964Y107044D01*
X679018Y107076D01*
X679074Y107105D01*
X679132Y107130D01*
X679191Y107151D01*
X679251Y107169D01*
X679313Y107182D01*
X679375Y107192D01*
X679437Y107198D01*
X679500Y107200D01*
X679563Y107198D01*
X679625Y107192D01*
X679687Y107182D01*
X679749Y107169D01*
X679809Y107151D01*
X679868Y107130D01*
X679926Y107105D01*
X679982Y107076D01*
X680036Y107044D01*
X680088Y107009D01*
X680137Y106971D01*
X680185Y106929D01*
X680229Y106885D01*
X680271Y106837D01*
X680309Y106788D01*
X680344Y106736D01*
X680376Y106682D01*
X680405Y106626D01*
X680430Y106568D01*
X680451Y106509D01*
X680469Y106449D01*
X680482Y106387D01*
X680492Y106325D01*
X680498Y106263D01*
X680500Y106200D01*
X680498Y106137D01*
X680492Y106075D01*
X680482Y106013D01*
X680469Y105951D01*
X680451Y105891D01*
X680430Y105832D01*
X680405Y105774D01*
X680376Y105718D01*
X680344Y105664D01*
X680309Y105612D01*
X680271Y105563D01*
X680229Y105515D01*
X680185Y105471D01*
X680137Y105429D01*
X680088Y105391D01*
X680036Y105356D01*
X679982Y105324D01*
X679926Y105295D01*
X679868Y105270D01*
X679809Y105249D01*
X679749Y105231D01*
X679687Y105218D01*
X679625Y105208D01*
X679563Y105202D01*
X679500Y105200D01*
X679437Y105202D01*
X679375Y105208D01*
X679313Y105218D01*
X679251Y105231D01*
X679191Y105249D01*
X679132Y105270D01*
X679074Y105295D01*
X679018Y105324D01*
X678964Y105356D01*
X678912Y105391D01*
X678863Y105429D01*
X678815Y105471D01*
X678771Y105515D01*
X678729Y105563D01*
X678691Y105612D01*
X678656Y105664D01*
X678624Y105718D01*
X678595Y105774D01*
X678570Y105832D01*
X678549Y105891D01*
X678531Y105951D01*
X678518Y106013D01*
X678508Y106075D01*
X678502Y106137D01*
X678500Y106200D01*
D14*
X663542Y123425D02*
X663542Y137000D01*
X663542Y123425D02*
X663544Y123282D01*
X663550Y123140D01*
X663560Y122998D01*
X663573Y122856D01*
X663591Y122714D01*
X663612Y122573D01*
X663637Y122433D01*
X663666Y122293D01*
X663699Y122154D01*
X663736Y122016D01*
X663776Y121880D01*
X663820Y121744D01*
X663868Y121610D01*
X663919Y121477D01*
X663974Y121345D01*
X664033Y121215D01*
X664095Y121087D01*
X664161Y120960D01*
X664230Y120835D01*
X664302Y120712D01*
X664378Y120591D01*
X664457Y120473D01*
X664539Y120356D01*
X664625Y120242D01*
X664713Y120130D01*
X664805Y120021D01*
X664899Y119914D01*
X664996Y119810D01*
X665096Y119708D01*
X665199Y119609D01*
X665305Y119513D01*
X665413Y119420D01*
X665524Y119330D01*
X665637Y119243D01*
X665752Y119160D01*
X665870Y119079D01*
X665990Y119002D01*
X666111Y118927D01*
X666235Y118857D01*
X666361Y118789D01*
X666489Y118725D01*
X666618Y118665D01*
X666749Y118608D01*
X666881Y118555D01*
X667015Y118505D01*
X667150Y118460D01*
X667286Y118417D01*
X667423Y118379D01*
X667562Y118344D01*
X667701Y118313D01*
X667841Y118286D01*
X667981Y118263D01*
X668123Y118243D01*
X668265Y118228D01*
X668407Y118216D01*
X668549Y118208D01*
X668692Y118204D01*
X668834Y118204D01*
X668977Y118208D01*
X669119Y118216D01*
X669261Y118228D01*
X669403Y118243D01*
X669545Y118263D01*
X669685Y118286D01*
X669825Y118313D01*
X669964Y118344D01*
X670103Y118379D01*
X670240Y118417D01*
X670376Y118460D01*
X670511Y118505D01*
X670645Y118555D01*
X670777Y118608D01*
X670908Y118665D01*
X671037Y118725D01*
X671165Y118789D01*
X671291Y118857D01*
X671415Y118927D01*
X671536Y119002D01*
X671656Y119079D01*
X671774Y119160D01*
X671889Y119243D01*
X672002Y119330D01*
X672113Y119420D01*
X672221Y119513D01*
X672327Y119609D01*
X672430Y119708D01*
X672530Y119810D01*
X672627Y119914D01*
X672721Y120021D01*
X672813Y120130D01*
X672901Y120242D01*
X672987Y120356D01*
X673069Y120473D01*
X673148Y120591D01*
X673224Y120712D01*
X673296Y120835D01*
X673365Y120960D01*
X673431Y121087D01*
X673493Y121215D01*
X673552Y121345D01*
X673607Y121477D01*
X673658Y121610D01*
X673706Y121744D01*
X673750Y121880D01*
X673790Y122016D01*
X673827Y122154D01*
X673860Y122293D01*
X673889Y122433D01*
X673914Y122573D01*
X673935Y122714D01*
X673953Y122856D01*
X673966Y122998D01*
X673976Y123140D01*
X673982Y123282D01*
X673984Y123425D01*
X673984Y137000D01*
X686003Y137000D02*
X686003Y118204D01*
X686003Y127602D02*
X683393Y129168D01*
X683299Y129227D01*
X683207Y129289D01*
X683117Y129355D01*
X683030Y129423D01*
X682945Y129495D01*
X682863Y129569D01*
X682783Y129647D01*
X682707Y129727D01*
X682633Y129810D01*
X682562Y129895D01*
X682494Y129983D01*
X682430Y130074D01*
X682368Y130166D01*
X682310Y130261D01*
X682256Y130357D01*
X682204Y130456D01*
X682157Y130556D01*
X682113Y130658D01*
X682072Y130762D01*
X682036Y130866D01*
X682003Y130972D01*
X681974Y131080D01*
X681949Y131188D01*
X681927Y131297D01*
X681910Y131406D01*
X681896Y131516D01*
X681886Y131627D01*
X681881Y131738D01*
X681879Y131849D01*
X681881Y131960D01*
X681887Y132071D01*
X681897Y132181D01*
X681911Y132291D01*
X681929Y132401D01*
X681951Y132510D01*
X681977Y132618D01*
X682006Y132725D01*
X682040Y132831D01*
X682077Y132935D01*
X682117Y133039D01*
X682162Y133140D01*
X682210Y133241D01*
X682261Y133339D01*
X682316Y133435D01*
X682374Y133530D01*
X682436Y133622D01*
X682501Y133712D01*
X682569Y133800D01*
X682640Y133885D01*
X682715Y133968D01*
X682792Y134048D01*
X682871Y134125D01*
X682954Y134199D01*
X683039Y134270D01*
X683127Y134338D01*
X683217Y134403D01*
X683309Y134465D01*
X683403Y134524D01*
X683500Y134579D01*
X683598Y134630D01*
X683698Y134678D01*
X683800Y134723D01*
X683903Y134764D01*
X684008Y134801D01*
X684114Y134834D01*
X684221Y134864D01*
X684329Y134889D01*
X684437Y134911D01*
X684633Y134945D01*
X684830Y134973D01*
X685027Y134997D01*
X685225Y135016D01*
X685424Y135031D01*
X685622Y135040D01*
X685821Y135045D01*
X686020Y135045D01*
X686219Y135041D01*
X686417Y135031D01*
X686616Y135017D01*
X686814Y134998D01*
X687011Y134974D01*
X687208Y134946D01*
X687404Y134913D01*
X687599Y134875D01*
X687793Y134832D01*
X687987Y134785D01*
X688178Y134733D01*
X688369Y134676D01*
X688558Y134615D01*
X688746Y134550D01*
X688932Y134480D01*
X689117Y134405D01*
X689299Y134326D01*
X689480Y134243D01*
X689658Y134155D01*
X689835Y134063D01*
X690009Y133967D01*
X690180Y133867D01*
X686003Y127602D02*
X688614Y126036D01*
X688708Y125977D01*
X688800Y125915D01*
X688890Y125849D01*
X688977Y125781D01*
X689062Y125709D01*
X689144Y125635D01*
X689224Y125557D01*
X689300Y125477D01*
X689374Y125394D01*
X689445Y125309D01*
X689513Y125221D01*
X689578Y125130D01*
X689639Y125038D01*
X689697Y124943D01*
X689751Y124847D01*
X689803Y124748D01*
X689850Y124648D01*
X689894Y124546D01*
X689935Y124442D01*
X689971Y124338D01*
X690004Y124232D01*
X690033Y124124D01*
X690058Y124016D01*
X690080Y123907D01*
X690097Y123798D01*
X690111Y123688D01*
X690121Y123577D01*
X690126Y123466D01*
X690128Y123355D01*
X690126Y123244D01*
X690120Y123133D01*
X690110Y123023D01*
X690096Y122913D01*
X690078Y122803D01*
X690056Y122694D01*
X690030Y122586D01*
X690001Y122479D01*
X689967Y122373D01*
X689930Y122269D01*
X689890Y122165D01*
X689845Y122064D01*
X689797Y121963D01*
X689746Y121865D01*
X689691Y121769D01*
X689633Y121674D01*
X689571Y121582D01*
X689506Y121492D01*
X689438Y121404D01*
X689367Y121319D01*
X689292Y121236D01*
X689215Y121156D01*
X689136Y121079D01*
X689053Y121005D01*
X688968Y120934D01*
X688880Y120866D01*
X688790Y120801D01*
X688698Y120739D01*
X688604Y120680D01*
X688507Y120625D01*
X688409Y120574D01*
X688309Y120526D01*
X688207Y120481D01*
X688104Y120441D01*
X687999Y120403D01*
X687893Y120370D01*
X687786Y120340D01*
X687678Y120315D01*
X687570Y120293D01*
X687570Y120292D02*
X687374Y120258D01*
X687177Y120230D01*
X686980Y120206D01*
X686782Y120187D01*
X686583Y120172D01*
X686385Y120163D01*
X686186Y120158D01*
X685987Y120158D01*
X685788Y120162D01*
X685590Y120172D01*
X685391Y120186D01*
X685193Y120205D01*
X684996Y120229D01*
X684799Y120257D01*
X684603Y120290D01*
X684408Y120328D01*
X684214Y120371D01*
X684020Y120418D01*
X683829Y120470D01*
X683638Y120527D01*
X683449Y120588D01*
X683261Y120653D01*
X683075Y120723D01*
X682890Y120798D01*
X682708Y120877D01*
X682527Y120960D01*
X682349Y121048D01*
X682172Y121140D01*
X681998Y121236D01*
X681827Y121336D01*
X703171Y137000D02*
X703305Y136998D01*
X703439Y136992D01*
X703573Y136983D01*
X703707Y136969D01*
X703840Y136952D01*
X703972Y136931D01*
X704104Y136906D01*
X704235Y136878D01*
X704366Y136846D01*
X704495Y136810D01*
X704623Y136770D01*
X704750Y136727D01*
X704876Y136680D01*
X705000Y136629D01*
X705123Y136575D01*
X705244Y136518D01*
X705364Y136457D01*
X705482Y136393D01*
X705598Y136325D01*
X705711Y136254D01*
X705823Y136180D01*
X705933Y136103D01*
X706040Y136022D01*
X706146Y135939D01*
X706248Y135852D01*
X706348Y135763D01*
X706446Y135671D01*
X706541Y135576D01*
X706633Y135478D01*
X706722Y135378D01*
X706809Y135276D01*
X706892Y135170D01*
X706973Y135063D01*
X707050Y134953D01*
X707124Y134841D01*
X707195Y134728D01*
X707263Y134612D01*
X707327Y134494D01*
X707388Y134374D01*
X707445Y134253D01*
X707499Y134130D01*
X707550Y134006D01*
X707597Y133880D01*
X707640Y133753D01*
X707680Y133625D01*
X707716Y133496D01*
X707748Y133365D01*
X707776Y133234D01*
X707801Y133102D01*
X707822Y132970D01*
X707839Y132837D01*
X707853Y132703D01*
X707862Y132569D01*
X707868Y132435D01*
X707870Y132301D01*
X703171Y137000D02*
X703019Y136998D01*
X702867Y136992D01*
X702716Y136983D01*
X702565Y136969D01*
X702414Y136952D01*
X702263Y136931D01*
X702114Y136907D01*
X701964Y136878D01*
X701816Y136846D01*
X701669Y136810D01*
X701522Y136770D01*
X701376Y136727D01*
X701232Y136680D01*
X701089Y136630D01*
X700947Y136575D01*
X700807Y136518D01*
X700668Y136456D01*
X700530Y136392D01*
X700395Y136324D01*
X700261Y136252D01*
X700129Y136177D01*
X699998Y136099D01*
X699870Y136018D01*
X699744Y135933D01*
X699620Y135845D01*
X699499Y135754D01*
X699379Y135661D01*
X699262Y135564D01*
X699148Y135464D01*
X699036Y135361D01*
X698927Y135256D01*
X698820Y135148D01*
X698716Y135037D01*
X698615Y134924D01*
X698517Y134808D01*
X698422Y134690D01*
X698329Y134569D01*
X698240Y134446D01*
X698154Y134321D01*
X698071Y134194D01*
X697992Y134065D01*
X697915Y133933D01*
X697842Y133800D01*
X697773Y133665D01*
X697706Y133529D01*
X697644Y133390D01*
X697584Y133251D01*
X697528Y133109D01*
X697476Y132967D01*
X697428Y132823D01*
X706304Y128646D02*
X706404Y128745D01*
X706502Y128846D01*
X706597Y128950D01*
X706689Y129057D01*
X706778Y129166D01*
X706864Y129278D01*
X706947Y129392D01*
X707027Y129508D01*
X707103Y129627D01*
X707176Y129747D01*
X707246Y129870D01*
X707312Y129994D01*
X707375Y130120D01*
X707434Y130248D01*
X707489Y130378D01*
X707541Y130509D01*
X707589Y130641D01*
X707634Y130775D01*
X707675Y130910D01*
X707711Y131046D01*
X707745Y131183D01*
X707774Y131321D01*
X707799Y131459D01*
X707821Y131599D01*
X707839Y131738D01*
X707852Y131879D01*
X707862Y132019D01*
X707868Y132160D01*
X707870Y132301D01*
X706304Y128646D02*
X697428Y118204D01*
X707870Y118204D01*
D17*
X198200Y72900D02*
X198202Y72963D01*
X198208Y73025D01*
X198218Y73087D01*
X198231Y73149D01*
X198249Y73209D01*
X198270Y73268D01*
X198295Y73326D01*
X198324Y73382D01*
X198356Y73436D01*
X198391Y73488D01*
X198429Y73537D01*
X198471Y73585D01*
X198515Y73629D01*
X198563Y73671D01*
X198612Y73709D01*
X198664Y73744D01*
X198718Y73776D01*
X198774Y73805D01*
X198832Y73830D01*
X198891Y73851D01*
X198951Y73869D01*
X199013Y73882D01*
X199075Y73892D01*
X199137Y73898D01*
X199200Y73900D01*
X199263Y73898D01*
X199325Y73892D01*
X199387Y73882D01*
X199449Y73869D01*
X199509Y73851D01*
X199568Y73830D01*
X199626Y73805D01*
X199682Y73776D01*
X199736Y73744D01*
X199788Y73709D01*
X199837Y73671D01*
X199885Y73629D01*
X199929Y73585D01*
X199971Y73537D01*
X200009Y73488D01*
X200044Y73436D01*
X200076Y73382D01*
X200105Y73326D01*
X200130Y73268D01*
X200151Y73209D01*
X200169Y73149D01*
X200182Y73087D01*
X200192Y73025D01*
X200198Y72963D01*
X200200Y72900D01*
X200198Y72837D01*
X200192Y72775D01*
X200182Y72713D01*
X200169Y72651D01*
X200151Y72591D01*
X200130Y72532D01*
X200105Y72474D01*
X200076Y72418D01*
X200044Y72364D01*
X200009Y72312D01*
X199971Y72263D01*
X199929Y72215D01*
X199885Y72171D01*
X199837Y72129D01*
X199788Y72091D01*
X199736Y72056D01*
X199682Y72024D01*
X199626Y71995D01*
X199568Y71970D01*
X199509Y71949D01*
X199449Y71931D01*
X199387Y71918D01*
X199325Y71908D01*
X199263Y71902D01*
X199200Y71900D01*
X199137Y71902D01*
X199075Y71908D01*
X199013Y71918D01*
X198951Y71931D01*
X198891Y71949D01*
X198832Y71970D01*
X198774Y71995D01*
X198718Y72024D01*
X198664Y72056D01*
X198612Y72091D01*
X198563Y72129D01*
X198515Y72171D01*
X198471Y72215D01*
X198429Y72263D01*
X198391Y72312D01*
X198356Y72364D01*
X198324Y72418D01*
X198295Y72474D01*
X198270Y72532D01*
X198249Y72591D01*
X198231Y72651D01*
X198218Y72713D01*
X198208Y72775D01*
X198202Y72837D01*
X198200Y72900D01*
D10*
X186200Y76900D02*
X186200Y100900D01*
X201200Y100900D01*
X201200Y76900D01*
X186200Y76900D01*
D19*
X176015Y78027D02*
X173263Y78027D01*
X176015Y78027D02*
X176079Y78029D01*
X176143Y78035D01*
X176206Y78044D01*
X176268Y78058D01*
X176330Y78075D01*
X176390Y78096D01*
X176449Y78120D01*
X176507Y78148D01*
X176562Y78180D01*
X176616Y78214D01*
X176667Y78252D01*
X176717Y78293D01*
X176763Y78337D01*
X176807Y78383D01*
X176848Y78433D01*
X176886Y78484D01*
X176920Y78538D01*
X176952Y78593D01*
X176980Y78651D01*
X177004Y78710D01*
X177025Y78770D01*
X177042Y78832D01*
X177056Y78894D01*
X177065Y78957D01*
X177071Y79021D01*
X177073Y79085D01*
X177071Y79149D01*
X177065Y79213D01*
X177056Y79276D01*
X177042Y79338D01*
X177025Y79400D01*
X177004Y79460D01*
X176980Y79519D01*
X176952Y79577D01*
X176920Y79632D01*
X176886Y79686D01*
X176848Y79737D01*
X176807Y79787D01*
X176763Y79833D01*
X176717Y79877D01*
X176667Y79918D01*
X176616Y79956D01*
X176562Y79990D01*
X176507Y80022D01*
X176449Y80050D01*
X176390Y80074D01*
X176330Y80095D01*
X176268Y80112D01*
X176206Y80126D01*
X176143Y80135D01*
X176079Y80141D01*
X176015Y80143D01*
X176015Y80144D02*
X173263Y80144D01*
X173263Y82621D02*
X177073Y82621D01*
X175168Y82621D02*
X174851Y82092D01*
X174850Y82092D02*
X174823Y82051D01*
X174793Y82012D01*
X174760Y81975D01*
X174724Y81941D01*
X174685Y81910D01*
X174645Y81882D01*
X174602Y81858D01*
X174557Y81836D01*
X174511Y81819D01*
X174464Y81805D01*
X174416Y81794D01*
X174367Y81788D01*
X174318Y81785D01*
X174268Y81786D01*
X174219Y81791D01*
X174171Y81800D01*
X174123Y81813D01*
X174076Y81829D01*
X174031Y81849D01*
X173988Y81872D01*
X173946Y81899D01*
X173907Y81929D01*
X173870Y81961D01*
X173836Y81997D01*
X173805Y82035D01*
X173776Y82075D01*
X173751Y82118D01*
X173730Y82162D01*
X173712Y82208D01*
X173697Y82255D01*
X173686Y82303D01*
X173686Y82304D02*
X173674Y82383D01*
X173665Y82463D01*
X173660Y82544D01*
X173659Y82624D01*
X173662Y82705D01*
X173669Y82785D01*
X173679Y82865D01*
X173694Y82945D01*
X173712Y83023D01*
X173734Y83101D01*
X173760Y83177D01*
X173789Y83252D01*
X173822Y83326D01*
X173858Y83398D01*
X173898Y83468D01*
X175168Y82621D02*
X175486Y83150D01*
X175513Y83191D01*
X175543Y83230D01*
X175576Y83267D01*
X175612Y83301D01*
X175651Y83332D01*
X175691Y83360D01*
X175734Y83384D01*
X175779Y83406D01*
X175825Y83423D01*
X175872Y83437D01*
X175920Y83448D01*
X175969Y83454D01*
X176018Y83457D01*
X176068Y83456D01*
X176117Y83451D01*
X176165Y83442D01*
X176213Y83429D01*
X176260Y83413D01*
X176305Y83393D01*
X176348Y83370D01*
X176390Y83343D01*
X176429Y83313D01*
X176466Y83281D01*
X176500Y83245D01*
X176531Y83207D01*
X176560Y83167D01*
X176585Y83124D01*
X176606Y83080D01*
X176624Y83034D01*
X176639Y82987D01*
X176650Y82939D01*
X176650Y82938D02*
X176662Y82859D01*
X176671Y82779D01*
X176676Y82698D01*
X176677Y82618D01*
X176674Y82537D01*
X176667Y82457D01*
X176657Y82377D01*
X176642Y82297D01*
X176624Y82219D01*
X176602Y82141D01*
X176576Y82065D01*
X176547Y81990D01*
X176514Y81916D01*
X176478Y81844D01*
X176438Y81774D01*
X177073Y84976D02*
X177073Y86035D01*
X177071Y86099D01*
X177065Y86163D01*
X177056Y86226D01*
X177042Y86288D01*
X177025Y86350D01*
X177004Y86410D01*
X176980Y86469D01*
X176952Y86527D01*
X176920Y86582D01*
X176886Y86636D01*
X176848Y86687D01*
X176807Y86737D01*
X176763Y86783D01*
X176717Y86827D01*
X176667Y86868D01*
X176616Y86906D01*
X176562Y86940D01*
X176507Y86972D01*
X176449Y87000D01*
X176390Y87024D01*
X176330Y87045D01*
X176268Y87062D01*
X176206Y87076D01*
X176143Y87085D01*
X176079Y87091D01*
X176015Y87093D01*
X175951Y87091D01*
X175887Y87085D01*
X175824Y87076D01*
X175762Y87062D01*
X175700Y87045D01*
X175640Y87024D01*
X175581Y87000D01*
X175523Y86972D01*
X175468Y86940D01*
X175414Y86906D01*
X175363Y86868D01*
X175313Y86827D01*
X175267Y86783D01*
X175223Y86737D01*
X175182Y86687D01*
X175144Y86636D01*
X175110Y86582D01*
X175078Y86527D01*
X175050Y86469D01*
X175026Y86410D01*
X175005Y86350D01*
X174988Y86288D01*
X174974Y86226D01*
X174965Y86163D01*
X174959Y86099D01*
X174957Y86035D01*
X173263Y86246D02*
X173263Y84976D01*
X173263Y86246D02*
X173265Y86303D01*
X173271Y86359D01*
X173280Y86415D01*
X173293Y86470D01*
X173310Y86524D01*
X173330Y86577D01*
X173354Y86628D01*
X173381Y86678D01*
X173412Y86725D01*
X173445Y86771D01*
X173482Y86814D01*
X173521Y86855D01*
X173563Y86893D01*
X173608Y86928D01*
X173654Y86960D01*
X173703Y86989D01*
X173753Y87014D01*
X173806Y87036D01*
X173859Y87055D01*
X173914Y87070D01*
X173969Y87081D01*
X174025Y87089D01*
X174082Y87093D01*
X174138Y87093D01*
X174195Y87089D01*
X174251Y87081D01*
X174306Y87070D01*
X174361Y87055D01*
X174414Y87036D01*
X174467Y87014D01*
X174517Y86989D01*
X174566Y86960D01*
X174612Y86928D01*
X174657Y86893D01*
X174699Y86855D01*
X174738Y86814D01*
X174775Y86771D01*
X174808Y86725D01*
X174839Y86678D01*
X174866Y86628D01*
X174890Y86577D01*
X174910Y86524D01*
X174927Y86470D01*
X174940Y86415D01*
X174949Y86359D01*
X174955Y86303D01*
X174957Y86246D01*
X174956Y86246D02*
X174956Y85400D01*
D20*
X608838Y184035D02*
X608838Y188121D01*
X611108Y184035D01*
X611108Y188121D01*
X613772Y188121D02*
X612411Y184035D01*
X615134Y184035D02*
X613772Y188121D01*
X614794Y185057D02*
X612751Y185057D01*
X616455Y184035D02*
X616455Y188121D01*
X617817Y185851D01*
X619179Y188121D01*
X619179Y184035D01*
X620853Y184035D02*
X622669Y184035D01*
X620853Y184035D02*
X620853Y188121D01*
X622669Y188121D01*
X622215Y186305D02*
X620853Y186305D01*
D21*
X625100Y203200D02*
X625102Y203244D01*
X625108Y203288D01*
X625118Y203331D01*
X625131Y203373D01*
X625148Y203414D01*
X625169Y203453D01*
X625193Y203490D01*
X625220Y203525D01*
X625250Y203557D01*
X625283Y203587D01*
X625319Y203613D01*
X625356Y203637D01*
X625396Y203656D01*
X625437Y203673D01*
X625480Y203685D01*
X625523Y203694D01*
X625567Y203699D01*
X625611Y203700D01*
X625655Y203697D01*
X625699Y203690D01*
X625742Y203679D01*
X625784Y203665D01*
X625824Y203647D01*
X625863Y203625D01*
X625899Y203601D01*
X625933Y203573D01*
X625965Y203542D01*
X625994Y203508D01*
X626020Y203472D01*
X626042Y203434D01*
X626061Y203394D01*
X626076Y203352D01*
X626088Y203310D01*
X626096Y203266D01*
X626100Y203222D01*
X626100Y203178D01*
X626096Y203134D01*
X626088Y203090D01*
X626076Y203048D01*
X626061Y203006D01*
X626042Y202966D01*
X626020Y202928D01*
X625994Y202892D01*
X625965Y202858D01*
X625933Y202827D01*
X625899Y202799D01*
X625863Y202775D01*
X625824Y202753D01*
X625784Y202735D01*
X625742Y202721D01*
X625699Y202710D01*
X625655Y202703D01*
X625611Y202700D01*
X625567Y202701D01*
X625523Y202706D01*
X625480Y202715D01*
X625437Y202727D01*
X625396Y202744D01*
X625356Y202763D01*
X625319Y202787D01*
X625283Y202813D01*
X625250Y202843D01*
X625220Y202875D01*
X625193Y202910D01*
X625169Y202947D01*
X625148Y202986D01*
X625131Y203027D01*
X625118Y203069D01*
X625108Y203112D01*
X625102Y203156D01*
X625100Y203200D01*
D10*
X622100Y193450D02*
X622100Y190700D01*
X622100Y212950D02*
X622100Y215700D01*
X619350Y215700D01*
X619350Y190700D02*
X622100Y190700D01*
X597100Y212950D02*
X597100Y215700D01*
X599850Y215700D01*
X599850Y190700D02*
X597100Y190700D01*
X597100Y193450D01*
X573000Y153500D02*
X443000Y153500D01*
X443000Y-31500D01*
X573000Y-31500D01*
X573000Y153500D01*
D13*
X552690Y-32258D02*
X552690Y-40696D01*
X552689Y-40696D02*
X552691Y-40809D01*
X552697Y-40922D01*
X552707Y-41035D01*
X552721Y-41148D01*
X552738Y-41260D01*
X552760Y-41371D01*
X552785Y-41481D01*
X552815Y-41591D01*
X552848Y-41699D01*
X552885Y-41806D01*
X552925Y-41912D01*
X552970Y-42016D01*
X553018Y-42119D01*
X553069Y-42220D01*
X553124Y-42319D01*
X553182Y-42416D01*
X553244Y-42511D01*
X553309Y-42604D01*
X553377Y-42694D01*
X553448Y-42782D01*
X553523Y-42868D01*
X553600Y-42951D01*
X553680Y-43031D01*
X553763Y-43108D01*
X553849Y-43183D01*
X553937Y-43254D01*
X554027Y-43322D01*
X554120Y-43387D01*
X554215Y-43449D01*
X554312Y-43507D01*
X554411Y-43562D01*
X554512Y-43613D01*
X554615Y-43661D01*
X554719Y-43706D01*
X554825Y-43746D01*
X554932Y-43783D01*
X555040Y-43816D01*
X555150Y-43846D01*
X555260Y-43871D01*
X555371Y-43893D01*
X555483Y-43910D01*
X555596Y-43924D01*
X555709Y-43934D01*
X555822Y-43940D01*
X555935Y-43942D01*
X556048Y-43940D01*
X556161Y-43934D01*
X556274Y-43924D01*
X556387Y-43910D01*
X556499Y-43893D01*
X556610Y-43871D01*
X556720Y-43846D01*
X556830Y-43816D01*
X556938Y-43783D01*
X557045Y-43746D01*
X557151Y-43706D01*
X557255Y-43661D01*
X557358Y-43613D01*
X557459Y-43562D01*
X557558Y-43507D01*
X557655Y-43449D01*
X557750Y-43387D01*
X557843Y-43322D01*
X557933Y-43254D01*
X558021Y-43183D01*
X558107Y-43108D01*
X558190Y-43031D01*
X558270Y-42951D01*
X558347Y-42868D01*
X558422Y-42782D01*
X558493Y-42694D01*
X558561Y-42604D01*
X558626Y-42511D01*
X558688Y-42416D01*
X558746Y-42319D01*
X558801Y-42220D01*
X558852Y-42119D01*
X558900Y-42016D01*
X558945Y-41912D01*
X558985Y-41806D01*
X559022Y-41699D01*
X559055Y-41591D01*
X559085Y-41481D01*
X559110Y-41371D01*
X559132Y-41260D01*
X559149Y-41148D01*
X559163Y-41035D01*
X559173Y-40922D01*
X559179Y-40809D01*
X559181Y-40696D01*
X559181Y-32258D01*
X568071Y-32258D02*
X568178Y-32260D01*
X568284Y-32266D01*
X568390Y-32276D01*
X568496Y-32289D01*
X568602Y-32307D01*
X568706Y-32328D01*
X568810Y-32353D01*
X568913Y-32382D01*
X569014Y-32414D01*
X569114Y-32451D01*
X569213Y-32491D01*
X569311Y-32534D01*
X569407Y-32581D01*
X569501Y-32632D01*
X569593Y-32686D01*
X569683Y-32743D01*
X569771Y-32803D01*
X569856Y-32867D01*
X569939Y-32934D01*
X570020Y-33004D01*
X570098Y-33076D01*
X570174Y-33152D01*
X570246Y-33230D01*
X570316Y-33311D01*
X570383Y-33394D01*
X570447Y-33479D01*
X570507Y-33567D01*
X570564Y-33657D01*
X570618Y-33749D01*
X570669Y-33843D01*
X570716Y-33939D01*
X570759Y-34037D01*
X570799Y-34136D01*
X570836Y-34236D01*
X570868Y-34337D01*
X570897Y-34440D01*
X570922Y-34544D01*
X570943Y-34648D01*
X570961Y-34754D01*
X570974Y-34860D01*
X570984Y-34966D01*
X570990Y-35072D01*
X570992Y-35179D01*
X568071Y-32258D02*
X567950Y-32260D01*
X567829Y-32266D01*
X567709Y-32276D01*
X567588Y-32289D01*
X567469Y-32307D01*
X567349Y-32328D01*
X567231Y-32353D01*
X567114Y-32382D01*
X566997Y-32415D01*
X566882Y-32451D01*
X566768Y-32492D01*
X566655Y-32535D01*
X566543Y-32583D01*
X566434Y-32634D01*
X566326Y-32689D01*
X566219Y-32747D01*
X566115Y-32808D01*
X566013Y-32873D01*
X565913Y-32941D01*
X565815Y-33012D01*
X565719Y-33086D01*
X565626Y-33163D01*
X565536Y-33244D01*
X565448Y-33327D01*
X565363Y-33413D01*
X565280Y-33502D01*
X565201Y-33593D01*
X565124Y-33687D01*
X565051Y-33783D01*
X564981Y-33881D01*
X564914Y-33982D01*
X564850Y-34085D01*
X564790Y-34190D01*
X564732Y-34297D01*
X564679Y-34405D01*
X564629Y-34515D01*
X564583Y-34627D01*
X564540Y-34740D01*
X564501Y-34855D01*
X570018Y-37451D02*
X570097Y-37373D01*
X570173Y-37293D01*
X570246Y-37210D01*
X570316Y-37124D01*
X570383Y-37037D01*
X570447Y-36946D01*
X570507Y-36854D01*
X570565Y-36760D01*
X570619Y-36663D01*
X570669Y-36565D01*
X570716Y-36465D01*
X570760Y-36364D01*
X570800Y-36261D01*
X570836Y-36156D01*
X570868Y-36051D01*
X570897Y-35944D01*
X570922Y-35837D01*
X570944Y-35728D01*
X570961Y-35619D01*
X570975Y-35510D01*
X570984Y-35400D01*
X570990Y-35289D01*
X570992Y-35179D01*
X570018Y-37451D02*
X564501Y-43942D01*
X570992Y-43942D01*
X505545Y142297D02*
X505220Y142297D01*
X499703Y143919D02*
X499633Y143917D01*
X499563Y143911D01*
X499493Y143902D01*
X499424Y143889D01*
X499356Y143872D01*
X499289Y143851D01*
X499223Y143827D01*
X499158Y143799D01*
X499095Y143768D01*
X499034Y143733D01*
X498975Y143695D01*
X498917Y143654D01*
X498863Y143610D01*
X498810Y143563D01*
X498761Y143514D01*
X498714Y143461D01*
X498670Y143407D01*
X498629Y143349D01*
X498591Y143290D01*
X498556Y143229D01*
X498525Y143166D01*
X498497Y143101D01*
X498473Y143035D01*
X498452Y142968D01*
X498435Y142900D01*
X498422Y142831D01*
X498413Y142761D01*
X498407Y142691D01*
X498405Y142621D01*
X498407Y142493D01*
X498413Y142365D01*
X498422Y142237D01*
X498436Y142110D01*
X498454Y141983D01*
X498475Y141857D01*
X498500Y141731D01*
X498529Y141606D01*
X498562Y141482D01*
X498598Y141359D01*
X498638Y141238D01*
X498682Y141117D01*
X498730Y140998D01*
X499703Y143920D02*
X499778Y143918D01*
X499852Y143913D01*
X499926Y143905D01*
X500000Y143893D01*
X500073Y143877D01*
X500145Y143859D01*
X500216Y143837D01*
X500286Y143811D01*
X500355Y143783D01*
X500423Y143752D01*
X500489Y143717D01*
X500554Y143679D01*
X500616Y143639D01*
X500677Y143595D01*
X500676Y143595D02*
X500757Y143532D01*
X500836Y143467D01*
X500913Y143399D01*
X500987Y143329D01*
X501060Y143257D01*
X501130Y143182D01*
X501198Y143105D01*
X501263Y143026D01*
X501325Y142945D01*
X501326Y142946D02*
X501375Y142884D01*
X501427Y142823D01*
X501481Y142766D01*
X501538Y142710D01*
X501598Y142658D01*
X501660Y142608D01*
X501724Y142561D01*
X501790Y142517D01*
X501858Y142476D01*
X501928Y142438D01*
X502000Y142403D01*
X502073Y142371D01*
X502147Y142343D01*
X502222Y142318D01*
X502299Y142297D01*
X502948Y142297D01*
X501650Y148463D02*
X511387Y142297D01*
X501650Y148463D02*
X491913Y142297D01*
X501650Y136130D01*
X511387Y142297D01*
X505545Y159823D02*
X505220Y159823D01*
X499703Y161445D02*
X499633Y161443D01*
X499563Y161437D01*
X499493Y161428D01*
X499424Y161415D01*
X499356Y161398D01*
X499289Y161377D01*
X499223Y161353D01*
X499158Y161325D01*
X499095Y161294D01*
X499034Y161259D01*
X498975Y161221D01*
X498917Y161180D01*
X498863Y161136D01*
X498810Y161089D01*
X498761Y161040D01*
X498714Y160987D01*
X498670Y160933D01*
X498629Y160875D01*
X498591Y160816D01*
X498556Y160755D01*
X498525Y160692D01*
X498497Y160627D01*
X498473Y160561D01*
X498452Y160494D01*
X498435Y160426D01*
X498422Y160357D01*
X498413Y160287D01*
X498407Y160217D01*
X498405Y160147D01*
X498407Y160019D01*
X498413Y159891D01*
X498422Y159763D01*
X498436Y159636D01*
X498454Y159509D01*
X498475Y159383D01*
X498500Y159257D01*
X498529Y159132D01*
X498562Y159008D01*
X498598Y158885D01*
X498638Y158764D01*
X498682Y158643D01*
X498730Y158524D01*
X499703Y161446D02*
X499778Y161444D01*
X499852Y161439D01*
X499926Y161431D01*
X500000Y161419D01*
X500073Y161403D01*
X500145Y161385D01*
X500216Y161363D01*
X500286Y161337D01*
X500355Y161309D01*
X500423Y161278D01*
X500489Y161243D01*
X500554Y161205D01*
X500616Y161165D01*
X500677Y161121D01*
X500676Y161121D02*
X500757Y161058D01*
X500836Y160993D01*
X500913Y160925D01*
X500987Y160855D01*
X501060Y160783D01*
X501130Y160708D01*
X501198Y160631D01*
X501263Y160552D01*
X501325Y160471D01*
X501326Y160472D02*
X501375Y160410D01*
X501427Y160349D01*
X501481Y160292D01*
X501538Y160236D01*
X501598Y160184D01*
X501660Y160134D01*
X501724Y160087D01*
X501790Y160043D01*
X501858Y160002D01*
X501928Y159964D01*
X502000Y159929D01*
X502073Y159897D01*
X502147Y159869D01*
X502222Y159844D01*
X502299Y159823D01*
X502948Y159823D01*
X501650Y165989D02*
X511387Y159823D01*
X501650Y165989D02*
X491913Y159823D01*
X501650Y153656D01*
X511387Y159823D01*
X505545Y177349D02*
X505220Y177349D01*
X499703Y178971D02*
X499633Y178969D01*
X499563Y178963D01*
X499493Y178954D01*
X499424Y178941D01*
X499356Y178924D01*
X499289Y178903D01*
X499223Y178879D01*
X499158Y178851D01*
X499095Y178820D01*
X499034Y178785D01*
X498975Y178747D01*
X498917Y178706D01*
X498863Y178662D01*
X498810Y178615D01*
X498761Y178566D01*
X498714Y178513D01*
X498670Y178459D01*
X498629Y178401D01*
X498591Y178342D01*
X498556Y178281D01*
X498525Y178218D01*
X498497Y178153D01*
X498473Y178087D01*
X498452Y178020D01*
X498435Y177952D01*
X498422Y177883D01*
X498413Y177813D01*
X498407Y177743D01*
X498405Y177673D01*
X498407Y177545D01*
X498413Y177417D01*
X498422Y177289D01*
X498436Y177162D01*
X498454Y177035D01*
X498475Y176909D01*
X498500Y176783D01*
X498529Y176658D01*
X498562Y176534D01*
X498598Y176411D01*
X498638Y176290D01*
X498682Y176169D01*
X498730Y176050D01*
X499703Y178972D02*
X499778Y178970D01*
X499852Y178965D01*
X499926Y178957D01*
X500000Y178945D01*
X500073Y178929D01*
X500145Y178911D01*
X500216Y178889D01*
X500286Y178863D01*
X500355Y178835D01*
X500423Y178804D01*
X500489Y178769D01*
X500554Y178731D01*
X500616Y178691D01*
X500677Y178647D01*
X500676Y178647D02*
X500757Y178584D01*
X500836Y178519D01*
X500913Y178451D01*
X500987Y178381D01*
X501060Y178309D01*
X501130Y178234D01*
X501198Y178157D01*
X501263Y178078D01*
X501325Y177997D01*
X501326Y177998D02*
X501375Y177936D01*
X501427Y177875D01*
X501481Y177818D01*
X501538Y177762D01*
X501598Y177710D01*
X501660Y177660D01*
X501724Y177613D01*
X501790Y177569D01*
X501858Y177528D01*
X501928Y177490D01*
X502000Y177455D01*
X502073Y177423D01*
X502147Y177395D01*
X502222Y177370D01*
X502299Y177349D01*
X502948Y177349D01*
X501650Y183515D02*
X511387Y177349D01*
X501650Y183515D02*
X491913Y177349D01*
X501650Y171182D01*
X511387Y177349D01*
X505545Y194875D02*
X505220Y194875D01*
X499703Y196497D02*
X499633Y196495D01*
X499563Y196489D01*
X499493Y196480D01*
X499424Y196467D01*
X499356Y196450D01*
X499289Y196429D01*
X499223Y196405D01*
X499158Y196377D01*
X499095Y196346D01*
X499034Y196311D01*
X498975Y196273D01*
X498917Y196232D01*
X498863Y196188D01*
X498810Y196141D01*
X498761Y196092D01*
X498714Y196039D01*
X498670Y195985D01*
X498629Y195927D01*
X498591Y195868D01*
X498556Y195807D01*
X498525Y195744D01*
X498497Y195679D01*
X498473Y195613D01*
X498452Y195546D01*
X498435Y195478D01*
X498422Y195409D01*
X498413Y195339D01*
X498407Y195269D01*
X498405Y195199D01*
X498407Y195071D01*
X498413Y194943D01*
X498422Y194815D01*
X498436Y194688D01*
X498454Y194561D01*
X498475Y194435D01*
X498500Y194309D01*
X498529Y194184D01*
X498562Y194060D01*
X498598Y193937D01*
X498638Y193816D01*
X498682Y193695D01*
X498730Y193576D01*
X499703Y196498D02*
X499778Y196496D01*
X499852Y196491D01*
X499926Y196483D01*
X500000Y196471D01*
X500073Y196455D01*
X500145Y196437D01*
X500216Y196415D01*
X500286Y196389D01*
X500355Y196361D01*
X500423Y196330D01*
X500489Y196295D01*
X500554Y196257D01*
X500616Y196217D01*
X500677Y196173D01*
X500676Y196173D02*
X500757Y196110D01*
X500836Y196045D01*
X500913Y195977D01*
X500987Y195907D01*
X501060Y195835D01*
X501130Y195760D01*
X501198Y195683D01*
X501263Y195604D01*
X501325Y195523D01*
X501326Y195524D02*
X501375Y195462D01*
X501427Y195401D01*
X501481Y195344D01*
X501538Y195288D01*
X501598Y195236D01*
X501660Y195186D01*
X501724Y195139D01*
X501790Y195095D01*
X501858Y195054D01*
X501928Y195016D01*
X502000Y194981D01*
X502073Y194949D01*
X502147Y194921D01*
X502222Y194896D01*
X502299Y194875D01*
X502948Y194875D01*
X501650Y201041D02*
X511387Y194875D01*
X501650Y201041D02*
X491913Y194875D01*
X501650Y188708D01*
X511387Y194875D01*
X503597Y205924D02*
X495808Y205924D01*
X506843Y205599D02*
X507492Y205599D01*
X506843Y205599D02*
X506843Y206248D01*
X507492Y206248D01*
X507492Y205599D01*
X503597Y210495D02*
X495808Y210495D01*
X506843Y210171D02*
X507492Y210171D01*
X506843Y210171D02*
X506843Y210820D01*
X507492Y210820D01*
X507492Y210171D01*
X503597Y215067D02*
X495808Y215067D01*
X506843Y214743D02*
X507492Y214743D01*
X506843Y214743D02*
X506843Y215392D01*
X507492Y215392D01*
X507492Y214743D01*
M02*
