G04 EAGLE Gerber RS-274X export*
G75*
%MOMM*%
%FSLAX34Y34*%
%LPD*%
%INSoldermask Bottom*%
%IPPOS*%
%AMOC8*
5,1,8,0,0,1.08239X$1,22.5*%
G01*
%ADD10C,1.981200*%
%ADD11C,0.959600*%


D10*
X647700Y177800D03*
X673100Y177800D03*
X698500Y177800D03*
X723900Y177800D03*
X139700Y50800D03*
X165100Y50800D03*
X190500Y50800D03*
X215900Y50800D03*
X622300Y101600D03*
X622300Y76200D03*
X622300Y50800D03*
X622300Y25400D03*
D11*
X254000Y165100D03*
X583118Y204282D03*
X628574Y222326D03*
X596799Y190500D03*
X252400Y130200D03*
X609600Y183868D03*
X215900Y203200D03*
X596900Y63500D03*
X635000Y63500D03*
X508000Y203200D03*
X507894Y187632D03*
X304800Y208554D03*
X304800Y177800D03*
X774700Y127000D03*
X762000Y76200D03*
X736600Y152400D03*
X165100Y88900D03*
X152294Y152400D03*
X215900Y177800D03*
X177800Y165100D03*
X486724Y173676D03*
X533400Y177800D03*
X635000Y190500D03*
X508000Y120368D03*
X432724Y166024D03*
X633868Y214768D03*
X203200Y228600D03*
X609600Y127000D03*
X590423Y184023D03*
X596900Y165100D03*
X520700Y114300D03*
X635000Y88900D03*
X177800Y215900D03*
X546100Y88900D03*
X698500Y203200D03*
X673100Y228600D03*
X596900Y101600D03*
X419100Y114300D03*
M02*
