G04 EAGLE Gerber RS-274X export*
G75*
%MOMM*%
%FSLAX34Y34*%
%LPD*%
%INSolderpaste Top*%
%IPPOS*%
%AMOC8*
5,1,8,0,0,1.08239X$1,22.5*%
G01*
%ADD10R,5.100000X2.500000*%
%ADD11R,2.300000X1.600000*%
%ADD12R,1.500000X1.300000*%
%ADD13R,1.300000X1.500000*%
%ADD14R,1.600000X1.803000*%
%ADD15R,1.150000X0.950000*%
%ADD16C,0.200000*%
%ADD17R,1.200000X0.550000*%
%ADD18R,1.981200X0.558800*%
%ADD19R,0.800000X0.420000*%
%ADD20R,0.830000X0.400000*%
%ADD21R,0.400000X0.580000*%
%ADD22R,0.580000X0.400000*%
%ADD23R,1.000000X2.000000*%
%ADD24R,2.000000X1.000000*%
%ADD25R,0.900000X0.900000*%

G36*
X621754Y206689D02*
X621754Y206689D01*
X621754Y206690D01*
X621754Y210690D01*
X621751Y210694D01*
X621750Y210694D01*
X618140Y210694D01*
X618138Y210693D01*
X618137Y210693D01*
X615947Y208503D01*
X615947Y208502D01*
X615946Y208501D01*
X615947Y208501D01*
X615946Y208500D01*
X615946Y206690D01*
X615949Y206686D01*
X615950Y206686D01*
X621750Y206686D01*
X621754Y206689D01*
G37*
G36*
X603254Y206689D02*
X603254Y206689D01*
X603254Y206690D01*
X603254Y208500D01*
X603253Y208502D01*
X603253Y208503D01*
X601063Y210693D01*
X601061Y210693D01*
X601061Y210694D01*
X601060Y210694D01*
X597450Y210694D01*
X597446Y210691D01*
X597446Y210690D01*
X597446Y206690D01*
X597449Y206686D01*
X597450Y206686D01*
X603250Y206686D01*
X603254Y206689D01*
G37*
G36*
X614902Y209547D02*
X614902Y209547D01*
X614903Y209547D01*
X617093Y211737D01*
X617093Y211739D01*
X617094Y211740D01*
X617094Y215350D01*
X617091Y215354D01*
X617090Y215354D01*
X613090Y215354D01*
X613086Y215351D01*
X613086Y215350D01*
X613086Y209550D01*
X613089Y209546D01*
X613090Y209546D01*
X614900Y209546D01*
X614902Y209547D01*
G37*
G36*
X606114Y209549D02*
X606114Y209549D01*
X606114Y209550D01*
X606114Y215350D01*
X606111Y215354D01*
X606110Y215354D01*
X602110Y215354D01*
X602106Y215351D01*
X602106Y215350D01*
X602106Y211740D01*
X602107Y211738D01*
X602107Y211737D01*
X604297Y209547D01*
X604299Y209547D01*
X604300Y209546D01*
X606110Y209546D01*
X606114Y209549D01*
G37*
G36*
X601062Y195707D02*
X601062Y195707D01*
X601063Y195707D01*
X603253Y197897D01*
X603253Y197899D01*
X603254Y197900D01*
X603254Y199710D01*
X603251Y199714D01*
X603250Y199714D01*
X597450Y199714D01*
X597446Y199711D01*
X597446Y199710D01*
X597446Y195710D01*
X597449Y195706D01*
X597450Y195706D01*
X601060Y195706D01*
X601062Y195707D01*
G37*
G36*
X621754Y195709D02*
X621754Y195709D01*
X621754Y195710D01*
X621754Y199710D01*
X621751Y199714D01*
X621750Y199714D01*
X615950Y199714D01*
X615946Y199711D01*
X615946Y199710D01*
X615946Y197900D01*
X615947Y197898D01*
X615947Y197897D01*
X618137Y195707D01*
X618139Y195707D01*
X618140Y195706D01*
X621750Y195706D01*
X621754Y195709D01*
G37*
G36*
X606114Y191049D02*
X606114Y191049D01*
X606114Y191050D01*
X606114Y196850D01*
X606111Y196854D01*
X606110Y196854D01*
X604300Y196854D01*
X604298Y196853D01*
X604297Y196853D01*
X602107Y194663D01*
X602107Y194661D01*
X602106Y194660D01*
X602106Y191050D01*
X602109Y191046D01*
X602110Y191046D01*
X606110Y191046D01*
X606114Y191049D01*
G37*
G36*
X617094Y191049D02*
X617094Y191049D01*
X617094Y191050D01*
X617094Y194660D01*
X617093Y194662D01*
X617093Y194663D01*
X614903Y196853D01*
X614901Y196853D01*
X614900Y196854D01*
X613090Y196854D01*
X613086Y196851D01*
X613086Y196850D01*
X613086Y191050D01*
X613089Y191046D01*
X613090Y191046D01*
X617090Y191046D01*
X617094Y191049D01*
G37*
D10*
X901700Y25200D03*
X901700Y254200D03*
D11*
X354000Y101600D03*
X281000Y101600D03*
X354000Y50800D03*
X281000Y50800D03*
D12*
X711200Y136500D03*
X711200Y117500D03*
X444500Y193700D03*
X444500Y212700D03*
X787400Y136500D03*
X787400Y117500D03*
X520700Y193700D03*
X520700Y212700D03*
X406400Y212700D03*
X406400Y193700D03*
D13*
X650900Y203200D03*
X669900Y203200D03*
D12*
X190500Y149200D03*
X190500Y130200D03*
X558800Y193700D03*
X558800Y212700D03*
D14*
X776220Y38100D03*
X747780Y38100D03*
D15*
X190500Y190500D03*
D16*
X177500Y200500D02*
X172500Y200500D01*
X172500Y196500D02*
X177500Y196500D01*
X177500Y192500D02*
X172500Y192500D01*
X172500Y188500D02*
X177500Y188500D01*
X177500Y184500D02*
X172500Y184500D01*
X172500Y180500D02*
X177500Y180500D01*
X180500Y177500D02*
X180500Y172500D01*
X184500Y172500D02*
X184500Y177500D01*
X188500Y177500D02*
X188500Y172500D01*
X192500Y172500D02*
X192500Y177500D01*
X196500Y177500D02*
X196500Y172500D01*
X200500Y172500D02*
X200500Y177500D01*
X203500Y180500D02*
X208500Y180500D01*
X208500Y184500D02*
X203500Y184500D01*
X203500Y188500D02*
X208500Y188500D01*
X208500Y192500D02*
X203500Y192500D01*
X203500Y196500D02*
X208500Y196500D01*
X208500Y200500D02*
X203500Y200500D01*
X200500Y203500D02*
X200500Y208500D01*
X196500Y208500D02*
X196500Y203500D01*
X192500Y203500D02*
X192500Y208500D01*
X188500Y208500D02*
X188500Y203500D01*
X184500Y203500D02*
X184500Y208500D01*
X180500Y208500D02*
X180500Y203500D01*
D12*
X673100Y117500D03*
X673100Y136500D03*
X165100Y130200D03*
X165100Y149200D03*
D13*
X752500Y88900D03*
X771500Y88900D03*
X689000Y38100D03*
X708000Y38100D03*
D12*
X749300Y136500D03*
X749300Y117500D03*
X215900Y130200D03*
X215900Y149200D03*
D14*
X747780Y63500D03*
X776220Y63500D03*
D11*
X354000Y152400D03*
X281000Y152400D03*
D17*
X787700Y168300D03*
X787700Y177800D03*
X787700Y187300D03*
X761700Y187300D03*
X761700Y168300D03*
D18*
X673862Y95250D03*
X673862Y82550D03*
X673862Y69850D03*
X673862Y57150D03*
X723138Y57150D03*
X723138Y69850D03*
X723138Y82550D03*
X723138Y95250D03*
D19*
X183200Y95400D03*
X204200Y95400D03*
X183200Y88900D03*
X204200Y88900D03*
X183200Y82400D03*
X204200Y82400D03*
D20*
X617600Y203200D03*
D21*
X609600Y193950D03*
D22*
X600350Y203200D03*
D21*
X609600Y212450D03*
D23*
X552400Y153500D03*
X539700Y153500D03*
X527000Y153500D03*
X514300Y153500D03*
X501600Y153500D03*
X488900Y153500D03*
X476200Y153500D03*
X463500Y153500D03*
D24*
X573000Y127500D03*
X573000Y114800D03*
X573000Y102100D03*
X573000Y89400D03*
X573000Y76700D03*
X573000Y64000D03*
X573000Y51300D03*
X573000Y38600D03*
X573000Y25900D03*
X573000Y13200D03*
X443000Y127500D03*
X443000Y114800D03*
X443000Y102100D03*
X443000Y89400D03*
X443000Y76700D03*
X443000Y64000D03*
X443000Y51300D03*
X443000Y38600D03*
X443000Y25900D03*
X443000Y13200D03*
D25*
X546100Y132500D03*
X533400Y132500D03*
X520700Y132500D03*
X508000Y132500D03*
X495300Y132500D03*
X482600Y132500D03*
X469900Y132500D03*
X464000Y108450D03*
X464000Y95750D03*
X464000Y83050D03*
X464000Y70350D03*
X464000Y57650D03*
X464000Y44950D03*
X464000Y32250D03*
X464000Y19550D03*
D12*
X482600Y212700D03*
X482600Y193700D03*
M02*
