M48
;GenerationSoftware,Autodesk,EAGLE,9.6.2*%
;CreationDate,2022-04-07T07:01:43Z*%
FMAT,2
ICI,OFF
METRIC,TZ,000.000
T2C0.350
T1C1.016
%
G90
M71
T1
X62230Y2540
X16510Y5080
X64770Y17780
X67310Y17780
X69850Y17780
X72390Y17780
X13970Y5080
X19050Y5080
X21590Y5080
X62230Y10160
X62230Y7620
X62230Y5080
T2
X30480Y17780
X77470Y12700
X76200Y7620
X73660Y15240
X16510Y8890
X15229Y15240
X21590Y17780
X17780Y16510
X48672Y17368
X53340Y17780
X63500Y19050
X50800Y12037
X43272Y16602
X21590Y20320
X20320Y22860
X60960Y12700
X59042Y18402
X59690Y16510
X52070Y11430
X63500Y8890
X17780Y21590
X54610Y8890
X69850Y20320
X67310Y22860
X59690Y10160
X25400Y16510
X58312Y20428
X62857Y22233
X59680Y19050
X25240Y13020
X60960Y18387
X63387Y21477
X59690Y6350
X63500Y6350
X50800Y20320
X50789Y18763
X30480Y20855
X41910Y11430
M30